<svg width="30" height="30" viewBox="0 0 30 30" fill="none" xmlns="http://www.w3.org/2000/svg">
<path d="M10.0088 2.98125C8.22299 3.47341 6.44935 4.00856 4.68938 4.58625C4.52868 4.63831 4.38582 4.73446 4.27709 4.86374C4.16836 4.99302 4.09812 5.15025 4.07439 5.3175C3.03564 13.1119 5.43564 18.7987 8.29876 22.545C9.51098 24.147 10.9564 25.5583 12.5869 26.7319C13.2356 27.1894 13.8094 27.5194 14.2613 27.7313C14.4863 27.8381 14.67 27.9094 14.8106 27.9525C14.8721 27.9741 14.9355 27.9898 15 27.9994C15.0637 27.989 15.1264 27.9733 15.1875 27.9525C15.33 27.9094 15.5138 27.8381 15.7388 27.7313C16.1888 27.5194 16.7644 27.1875 17.4131 26.7319C19.0436 25.5583 20.489 24.147 21.7013 22.545C24.5644 18.8006 26.9644 13.1119 25.9256 5.3175C25.9021 5.15017 25.832 4.99284 25.7232 4.86352C25.6144 4.7342 25.4715 4.63811 25.3106 4.58625C24.09 4.18688 22.0294 3.53625 19.9913 2.98312C17.91 2.41875 15.9956 2.00063 15 2.00063C14.0063 2.00063 12.09 2.41875 10.0088 2.98312V2.98125ZM9.51001 1.05C11.5444 0.496875 13.7063 0 15 0C16.2938 0 18.4556 0.496875 20.49 1.05C22.5713 1.6125 24.6694 2.27812 25.9031 2.68125C26.419 2.8516 26.8763 3.164 27.2225 3.58256C27.5688 4.00113 27.79 4.50889 27.8606 5.0475C28.9781 13.4419 26.385 19.6631 23.2388 23.7787C21.9046 25.5393 20.3137 27.0897 18.5194 28.3781C17.8989 28.824 17.2415 29.216 16.5544 29.55C16.0294 29.7975 15.465 30 15 30C14.535 30 13.9725 29.7975 13.4456 29.55C12.7585 29.216 12.1011 28.824 11.4806 28.3781C9.68631 27.0897 8.09548 25.5393 6.76126 23.7787C3.61501 19.6631 1.02189 13.4419 2.13939 5.0475C2.21005 4.50889 2.43122 4.00113 2.77748 3.58256C3.12374 3.164 3.58106 2.8516 4.09688 2.68125C5.88787 2.09402 7.69277 1.55011 9.51001 1.05Z" fill="#6B4EFF"/>
<path d="M20.3512 9.64872C20.4385 9.7358 20.5078 9.83926 20.555 9.95315C20.6023 10.0671 20.6266 10.1892 20.6266 10.3125C20.6266 10.4358 20.6023 10.5579 20.555 10.6718C20.5078 10.7857 20.4385 10.8891 20.3512 10.9762L14.7262 16.6012C14.6391 16.6885 14.5357 16.7578 14.4218 16.8051C14.3079 16.8523 14.1858 16.8766 14.0625 16.8766C13.9392 16.8766 13.817 16.8523 13.7032 16.8051C13.5893 16.7578 13.4858 16.6885 13.3987 16.6012L10.5862 13.7887C10.499 13.7016 10.4299 13.5981 10.3827 13.4842C10.3356 13.3703 10.3113 13.2482 10.3113 13.125C10.3113 13.0017 10.3356 12.8796 10.3827 12.7657C10.4299 12.6519 10.499 12.5484 10.5862 12.4612C10.6734 12.3741 10.7769 12.3049 10.8907 12.2577C11.0046 12.2106 11.1267 12.1863 11.25 12.1863C11.3732 12.1863 11.4953 12.2106 11.6092 12.2577C11.7231 12.3049 11.8265 12.3741 11.9137 12.4612L14.0625 14.6118L19.0237 9.64872C19.1108 9.56141 19.2143 9.49214 19.3282 9.44488C19.442 9.39762 19.5641 9.37329 19.6875 9.37329C19.8108 9.37329 19.9329 9.39762 20.0468 9.44488C20.1607 9.49214 20.2641 9.56141 20.3512 9.64872Z" fill="#6B4EFF"/>
</svg>
