<svg width="70" height="70" viewBox="0 0 70 70" fill="none" xmlns="http://www.w3.org/2000/svg">
<path d="M61.2355 20.1248C61.1871 19.6347 61.015 19.1648 60.7355 18.7593C60.4559 18.3537 60.078 18.0258 59.6372 17.8061L36.3039 6.13939C35.8987 5.93662 35.4518 5.83105 34.9987 5.83105C34.5455 5.83105 34.0987 5.93662 33.6935 6.13939L10.3601 17.8061C9.9205 18.027 9.54378 18.3554 9.26488 18.7607C8.98599 19.1661 8.81394 19.6353 8.7647 20.1248C8.73262 20.4369 5.96178 51.5286 33.816 63.9156C34.1881 64.0836 34.5918 64.1705 35.0001 64.1705C35.4084 64.1705 35.8121 64.0836 36.1843 63.9156C64.0385 51.5286 61.2676 20.4398 61.2355 20.1248V20.1248ZM35.0001 58.0327V34.9998H16.071C14.9385 30.8533 14.4042 26.5662 14.4843 22.2686L35.0001 12.0106V34.9998H53.8418C51.628 42.9915 46.556 52.4386 35.0001 58.0327Z" fill="#6B4EFF" fill-opacity="0.3"/>
</svg>
