<svg width="24" height="24" viewBox="0 0 24 24" fill="none" xmlns="http://www.w3.org/2000/svg">
<path d="M9.09437 21.006C8.46557 20.972 7.87385 20.6978 7.44137 20.24C6.92396 19.7423 6.46225 19.1897 6.06437 18.592C5.44285 17.702 4.95156 16.7279 4.60537 15.699C4.21357 14.5922 4.00746 13.4281 3.99537 12.254C3.96493 11.102 4.25023 9.96356 4.82037 8.96202C5.23794 8.24012 5.83356 7.63728 6.55037 7.21102C7.25925 6.78659 8.06818 6.55813 8.89437 6.54902C9.51719 6.58587 10.1292 6.72823 10.7044 6.97002C11.1634 7.17202 11.6454 7.31402 12.1404 7.39202C12.6864 7.27764 13.2199 7.11018 13.7334 6.89202C14.341 6.65476 14.9844 6.52189 15.6364 6.49902C15.7234 6.49902 15.8094 6.49902 15.8924 6.50902C17.3224 6.55002 18.6524 7.25202 19.4924 8.40902C18.8368 8.75966 18.2913 9.28521 17.9165 9.92728C17.5417 10.5693 17.3523 11.3028 17.3694 12.046C17.3628 12.6144 17.4768 13.1776 17.7038 13.6987C17.9308 14.2198 18.2657 14.6868 18.6864 15.069C19.0694 15.434 19.5154 15.726 20.0024 15.932C19.9024 16.232 19.7874 16.522 19.6654 16.814C19.3884 17.4593 19.0466 18.0748 18.6454 18.651C18.266 19.2283 17.8243 19.7622 17.3284 20.243C16.876 20.6919 16.273 20.9567 15.6364 20.986C15.0967 20.9621 14.5666 20.8355 14.0744 20.613C13.5436 20.3818 12.9731 20.2551 12.3944 20.24C11.7993 20.2518 11.212 20.3777 10.6644 20.611C10.1914 20.8244 9.68612 20.9572 9.16937 21.004L9.09437 21.006V21.006ZM12.2444 6.49902C12.1694 6.49902 12.0944 6.49902 12.0194 6.49002C12.0036 6.37099 11.9952 6.25109 11.9944 6.13102C12.0271 5.13216 12.4174 4.17826 13.0944 3.44302C13.473 3.02048 13.9319 2.67749 14.4444 2.43402C14.9219 2.18818 15.4438 2.04028 15.9794 1.99902C15.9944 2.13002 15.9944 2.25802 15.9944 2.38002C15.9803 3.36319 15.6109 4.30805 14.9544 5.04002C14.6365 5.46624 14.2292 5.81772 13.761 6.06977C13.2928 6.32182 12.7752 6.46833 12.2444 6.49902V6.49902Z" fill="#F3F3F3"/>
</svg>
