<svg width="24" height="24" viewBox="0 0 24 24" fill="none" xmlns="http://www.w3.org/2000/svg">
<path d="M9.09388 21.006C8.46508 20.972 7.87336 20.6978 7.44088 20.24C6.92347 19.7423 6.46176 19.1897 6.06388 18.592C5.44236 17.702 4.95107 16.7279 4.60488 15.699C4.21308 14.5922 4.00697 13.4281 3.99488 12.254C3.96444 11.102 4.24974 9.96356 4.81988 8.96202C5.23745 8.24012 5.83307 7.63728 6.54988 7.21102C7.25877 6.78659 8.0677 6.55813 8.89388 6.54902C9.5167 6.58587 10.1287 6.72823 10.7039 6.97002C11.1629 7.17202 11.6449 7.31402 12.1399 7.39202C12.6859 7.27764 13.2194 7.11018 13.7329 6.89202C14.3405 6.65476 14.9839 6.52188 15.6359 6.49902C15.7229 6.49902 15.8089 6.49902 15.8919 6.50902C17.3219 6.55002 18.6519 7.25202 19.4919 8.40902C18.8363 8.75965 18.2908 9.28521 17.916 9.92728C17.5412 10.5693 17.3518 11.3028 17.3689 12.046C17.3623 12.6144 17.4763 13.1776 17.7033 13.6987C17.9304 14.2198 18.2652 14.6868 18.6859 15.069C19.0689 15.434 19.5149 15.726 20.0019 15.932C19.9019 16.232 19.7869 16.522 19.6649 16.814C19.3879 17.4593 19.0461 18.0748 18.6449 18.651C18.2655 19.2283 17.8238 19.7622 17.3279 20.243C16.8755 20.6919 16.2725 20.9567 15.6359 20.986C15.0962 20.9621 14.5661 20.8355 14.0739 20.613C13.5431 20.3818 12.9727 20.2551 12.3939 20.24C11.7988 20.2518 11.2115 20.3777 10.6639 20.611C10.1909 20.8244 9.68563 20.9572 9.16888 21.004L9.09388 21.006ZM12.2439 6.49902C12.1689 6.49902 12.0939 6.49902 12.0189 6.49002C12.0031 6.37099 11.9948 6.25109 11.9939 6.13102C12.0266 5.13216 12.417 4.17826 13.0939 3.44302C13.4725 3.02048 13.9314 2.67749 14.4439 2.43402C14.9214 2.18818 15.4433 2.04028 15.9789 1.99902C15.9939 2.13002 15.9939 2.25802 15.9939 2.38002C15.9798 3.36319 15.6104 4.30805 14.9539 5.04002C14.636 5.46624 14.2287 5.81772 13.7605 6.06977C13.2924 6.32182 12.7747 6.46833 12.2439 6.49902Z" fill="#F3F3F3"/>
</svg>
