<svg width="24" height="24" viewBox="0 0 24 24" fill="none" xmlns="http://www.w3.org/2000/svg">
<path d="M9.09339 21.006C8.46459 20.972 7.87287 20.6978 7.44039 20.24C6.92299 19.7423 6.46127 19.1897 6.06339 18.592C5.44187 17.702 4.95058 16.7279 4.60439 15.699C4.2126 14.5922 4.00648 13.4281 3.99439 12.254C3.96395 11.102 4.24925 9.96356 4.81939 8.96202C5.23697 8.24012 5.83258 7.63728 6.54939 7.21102C7.25828 6.78659 8.06721 6.55813 8.89339 6.54902C9.51621 6.58587 10.1282 6.72823 10.7034 6.97002C11.1624 7.17202 11.6444 7.31402 12.1394 7.39202C12.6854 7.27764 13.2189 7.11018 13.7324 6.89202C14.3401 6.65476 14.9834 6.52189 15.6354 6.49902C15.7224 6.49902 15.8084 6.49902 15.8914 6.50902C17.3214 6.55002 18.6514 7.25202 19.4914 8.40902C18.8358 8.75966 18.2903 9.28521 17.9155 9.92728C17.5407 10.5693 17.3513 11.3028 17.3684 12.046C17.3619 12.6144 17.4758 13.1776 17.7029 13.6987C17.9299 14.2198 18.2647 14.6868 18.6854 15.069C19.0684 15.434 19.5144 15.726 20.0014 15.932C19.9014 16.232 19.7864 16.522 19.6644 16.814C19.3874 17.4593 19.0457 18.0748 18.6444 18.651C18.265 19.2283 17.8233 19.7622 17.3274 20.243C16.875 20.6919 16.272 20.9567 15.6354 20.986C15.0957 20.9621 14.5656 20.8355 14.0734 20.613C13.5426 20.3818 12.9722 20.2551 12.3934 20.24C11.7983 20.2518 11.211 20.3777 10.6634 20.611C10.1904 20.8244 9.68514 20.9572 9.16839 21.004L9.09339 21.006V21.006ZM12.2434 6.49902C12.1684 6.49902 12.0934 6.49902 12.0184 6.49002C12.0026 6.37099 11.9943 6.25109 11.9934 6.13102C12.0261 5.13216 12.4165 4.17826 13.0934 3.44302C13.472 3.02048 13.9309 2.67749 14.4434 2.43402C14.921 2.18818 15.4428 2.04028 15.9784 1.99902C15.9934 2.13002 15.9934 2.25802 15.9934 2.38002C15.9793 3.36319 15.6099 4.30805 14.9534 5.04002C14.6355 5.46624 14.2282 5.81772 13.76 6.06977C13.2919 6.32182 12.7742 6.46833 12.2434 6.49902V6.49902Z" fill="#F3F3F3"/>
</svg>
