<svg width="42" height="42" viewBox="0 0 42 42" fill="none" xmlns="http://www.w3.org/2000/svg">
<path d="M25.3401 32.7426C24.0577 33.2559 22.652 33.378 21.3003 33.0933C19.9487 32.8087 18.7116 32.1302 17.7451 31.1433C16.7786 30.1564 16.1261 28.9054 15.8697 27.5481C15.6134 26.1908 15.7648 24.788 16.3048 23.5166L20.8881 28.0999L24.5981 24.3881L20.0166 19.8049C21.3089 19.2536 22.7376 19.1052 24.1156 19.3792C25.4937 19.6531 26.7569 20.3367 27.7402 21.3403C28.7234 22.344 29.3808 23.621 29.6264 25.0044C29.872 26.3878 29.6943 27.8131 29.1166 29.0939L32.4993 32.4766C34.1298 30.1365 35.0027 27.3523 35.0001 24.5001C34.9749 20.0076 33.9395 15.5784 31.9705 11.5403C30.0014 7.50226 27.1492 3.95889 23.6251 1.17261C24.3727 3.91469 24.8071 6.73267 24.9201 9.57261C24.9822 10.3987 24.8747 11.2288 24.6041 12.0118C24.3335 12.7948 23.9055 13.5142 23.3465 14.1256C22.7875 14.737 22.1094 15.2276 21.3537 15.5672C20.5981 15.9068 19.7809 16.0881 18.9526 16.1001C18.1041 16.098 17.2646 15.9265 16.4833 15.5955C15.7021 15.2645 14.9948 14.7808 14.4031 14.1728C13.8113 13.5647 13.347 12.8446 13.0374 12.0546C12.7278 11.2647 12.5791 10.4208 12.6001 9.57261L12.6526 8.94261C8.99029 13.2982 6.98788 18.8095 7.00006 24.5001C7.00052 27.0325 7.68787 29.5174 8.98891 31.6901C10.2899 33.8627 12.1559 35.6418 14.3881 36.8378C16.6203 38.0338 19.1351 38.602 21.6647 38.4818C24.1943 38.3615 26.6439 37.5574 28.7526 36.1551L25.3401 32.7426Z" fill="#6B4EFF"/>
</svg>
