<svg width="42" height="42" viewBox="0 0 42 42" fill="none" xmlns="http://www.w3.org/2000/svg">
<path d="M25.34 32.7425C24.0576 33.2559 22.652 33.3779 21.3003 33.0933C19.9486 32.8087 18.7116 32.1301 17.7451 31.1432C16.7786 30.1564 16.126 28.9054 15.8697 27.5481C15.6134 26.1907 15.7648 24.7879 16.3048 23.5165L20.888 28.0998L24.598 24.388L20.0165 19.8048C21.3089 19.2535 22.7375 19.1052 24.1156 19.3791C25.4936 19.6531 26.7569 20.3366 27.7401 21.3402C28.7234 22.3439 29.3808 23.621 29.6264 25.0044C29.8719 26.3877 29.6942 27.813 29.1165 29.0938L32.4993 32.4765C34.1298 30.1364 35.0027 27.3522 35 24.5C34.9749 20.0076 33.9395 15.5783 31.9704 11.5402C30.0014 7.5022 27.1492 3.95883 23.625 1.17255C24.3727 3.91463 24.8071 6.73261 24.92 9.57255C24.9822 10.3987 24.8747 11.2287 24.604 12.0117C24.3334 12.7947 23.9055 13.5141 23.3465 14.1255C22.7875 14.737 22.1093 15.2276 21.3537 15.5671C20.598 15.9067 19.7809 16.0881 18.9525 16.1C18.1041 16.098 17.2646 15.9264 16.4833 15.5955C15.702 15.2645 14.9948 14.7808 14.403 14.1727C13.8113 13.5647 13.347 12.8445 13.0373 12.0546C12.7277 11.2646 12.579 10.4208 12.6 9.57255L12.6525 8.94255C8.99026 13.2981 6.98785 18.8094 7.00002 24.5C7.00049 27.0325 7.68784 29.5173 8.98888 31.69C10.2899 33.8627 12.1559 35.6417 14.3881 36.8378C16.6203 38.0338 19.1351 38.6019 21.6647 38.4817C24.1942 38.3615 26.6438 37.5574 28.7525 36.155L25.34 32.7425Z" fill="#6B4EFF"/>
</svg>
