<svg width="32" height="32" viewBox="0 0 32 32" fill="none" xmlns="http://www.w3.org/2000/svg">
<path d="M31.4667 1.59998C31.2 1.33331 30.6667 1.33331 30.2667 1.33331L22.6667 3.59998V30.4L31.0667 28C31.6 27.8666 32 27.3333 32 26.6666V2.66665C32 2.26665 31.8667 1.86665 31.4667 1.59998Z" fill="#D6B1FF"/>
<path d="M20 3.59998L12 1.59998V28.4L20 30.4V3.59998Z" fill="#2EC5CE"/>
<path d="M9.33333 1.59998L0.933334 3.99997C0.400001 4.26664 0 4.79997 0 5.33331V29.3333C0 29.7333 0.133333 30.1333 0.533333 30.4C0.799999 30.5333 1.06667 30.6666 1.33333 30.6666H1.73333L9.33333 28.4V1.59998Z" fill="#8C30F5"/>
</svg>
