<svg width="72" height="72" viewBox="0 0 72 72" fill="none" xmlns="http://www.w3.org/2000/svg">
<rect width="72" height="72" rx="36" fill="#F4F5F7"/>
<path d="M47.6 25.2C47.4 25 47 25 46.7 25L41 26.7V46.8L47.3 45C47.7 44.9 48 44.5 48 44V26C48 25.7 47.9 25.4 47.6 25.2Z" fill="#D6B1FF"/>
<path d="M39 26.7002L33 25.2002V45.3002L39 46.8002V26.7002Z" fill="#2EC5CE"/>
<path d="M31 25.2002L24.7 27.0002C24.3 27.2002 24 27.6002 24 28.0002V46.0002C24 46.3002 24.1 46.6002 24.4 46.8002C24.6 46.9002 24.8 47.0002 25 47.0002H25.3L31 45.3002V25.2002Z" fill="#8C30F5"/>
</svg>
