<svg width="32" height="32" viewBox="0 0 32 32" fill="none" xmlns="http://www.w3.org/2000/svg">
<path d="M30.6666 8.00004V2.66671C30.6666 2.31309 30.5261 1.97395 30.2761 1.7239C30.026 1.47385 29.6869 1.33337 29.3333 1.33337H2.66659C2.31296 1.33337 1.97382 1.47385 1.72378 1.7239C1.47373 1.97395 1.33325 2.31309 1.33325 2.66671V8.00004H30.6666Z" fill="#2EC5CE"/>
<path d="M1.33325 10.6667V29.3334C1.33325 29.687 1.47373 30.0262 1.72378 30.2762C1.97382 30.5263 2.31296 30.6667 2.66659 30.6667H9.33325V10.6667H1.33325Z" fill="#D6B1FF"/>
<path d="M12 30.6667H29.3333C29.687 30.6667 30.0261 30.5263 30.2761 30.2762C30.5262 30.0262 30.6667 29.687 30.6667 29.3334V10.6667H12V30.6667Z" fill="#8C30F5"/>
</svg>
