<svg width="96" height="96" viewBox="0 0 96 96" fill="none" xmlns="http://www.w3.org/2000/svg">
<rect width="96" height="96" rx="48" fill="#F4F5F7"/>
<path d="M41 37H38C37.7348 37 37.4804 37.1054 37.2929 37.2929C37.1054 37.4804 37 37.7348 37 38V58C37 58.2652 37.1054 58.5196 37.2929 58.7071C37.4804 58.8946 37.7348 59 38 59H41V37Z" fill="#FAB8C3"/>
<path d="M43 59H53V37H43V59ZM48 55C47.7348 55 47.4804 54.8946 47.2929 54.7071C47.1054 54.5196 47 54.2652 47 54C47 53.7348 47.1054 53.4804 47.2929 53.2929C47.4804 53.1054 47.7348 53 48 53C48.2652 53 48.5196 53.1054 48.7071 53.2929C48.8946 53.4804 49 53.7348 49 54C49 54.2652 48.8946 54.5196 48.7071 54.7071C48.5196 54.8946 48.2652 55 48 55ZM48 41C48.2652 41 48.5196 41.1054 48.7071 41.2929C48.8946 41.4804 49 41.7348 49 42C49 42.2652 48.8946 42.5196 48.7071 42.7071C48.5196 42.8946 48.2652 43 48 43C47.7348 43 47.4804 42.8946 47.2929 42.7071C47.1054 42.5196 47 42.2652 47 42C47 41.7348 47.1054 41.4804 47.2929 41.2929C47.4804 41.1054 47.7348 41 48 41ZM48 47C48.2652 47 48.5196 47.1054 48.7071 47.2929C48.8946 47.4804 49 47.7348 49 48C49 48.2652 48.8946 48.5196 48.7071 48.7071C48.5196 48.8946 48.2652 49 48 49C47.7348 49 47.4804 48.8946 47.2929 48.7071C47.1054 48.5196 47 48.2652 47 48C47 47.7348 47.1054 47.4804 47.2929 47.2929C47.4804 47.1054 47.7348 47 48 47Z" fill="#6B4EFF"/>
<path d="M58 37H55V59H58C58.2652 59 58.5196 58.8946 58.7071 58.7071C58.8946 58.5196 59 58.2652 59 58V38C59 37.7348 58.8946 37.4804 58.7071 37.2929C58.5196 37.1054 58.2652 37 58 37Z" fill="#72B8F9"/>
</svg>
