<svg width="14" height="14" viewBox="0 0 14 14" fill="none" xmlns="http://www.w3.org/2000/svg">
<g clip-path="url(#clip0_29_1423)">
<path d="M8.23683 8.23636C8.07662 8.40829 7.88342 8.5462 7.66875 8.64184C7.45409 8.73749 7.22236 8.78892 6.98738 8.79307C6.75241 8.79722 6.51901 8.75399 6.3011 8.66598C6.0832 8.57796 5.88525 8.44696 5.71907 8.28078C5.5529 8.1146 5.42189 7.91666 5.33388 7.69875C5.24586 7.48084 5.20264 7.24744 5.20678 7.01247C5.21093 6.7775 5.26236 6.54577 5.35801 6.3311C5.45366 6.11643 5.59156 5.92323 5.7635 5.76302M10.4652 10.4647C9.46801 11.2248 8.25381 11.6459 7.00016 11.6664C2.91683 11.6664 0.583496 6.99969 0.583496 6.99969C1.3091 5.64746 2.31549 4.46604 3.53516 3.53469L10.4652 10.4647ZM5.77516 2.47302C6.17669 2.37904 6.58778 2.33205 7.00016 2.33302C11.0835 2.33302 13.4168 6.99969 13.4168 6.99969C13.0627 7.66213 12.6404 8.28578 12.1568 8.86052L5.77516 2.47302Z" stroke="#BBBBBB" stroke-linecap="round" stroke-linejoin="round"/>
<path d="M0.583496 0.583008L13.4168 13.4163" stroke="#BBBBBB" stroke-linecap="round" stroke-linejoin="round"/>
</g>
<defs>
<clipPath id="clip0_29_1423">
<rect width="14" height="14" fill="white"/>
</clipPath>
</defs>
</svg>
