<svg width="96" height="96" viewBox="0 0 96 96" fill="none" xmlns="http://www.w3.org/2000/svg">
<rect width="96" height="96" rx="48" fill="#F4F5F7"/>
<g clip-path="url(#clip0_3539_5862)">
<path d="M54 46H60L57 42L54 46ZM54 50H60L57 54L54 50Z" fill="#FAB8C3"/>
<path d="M37 36H43V60H37C36.7348 60 36.4804 59.8946 36.2929 59.7071C36.1054 59.5196 36 59.2652 36 59V37C36 36.7348 36.1054 36.4804 36.2929 36.2929C36.4804 36.1054 36.7348 36 37 36Z" fill="#6B4EFF"/>
<path d="M45 36H51C51.2652 36 51.5196 36.1054 51.7071 36.2929C51.8946 36.4804 52 36.7348 52 37V59C52 59.2652 51.8946 59.5196 51.7071 59.7071C51.5196 59.8946 51.2652 60 51 60H45V36Z" fill="#72B8F9"/>
</g>
<defs>
<clipPath id="clip0_3539_5862">
<rect width="24" height="24" fill="white" transform="translate(36 36)"/>
</clipPath>
</defs>
</svg>
