<svg width="32" height="32" viewBox="0 0 32 32" fill="none" xmlns="http://www.w3.org/2000/svg">
<path d="M11.9999 13.3333H2.66659C2.31296 13.3333 1.97382 13.1928 1.72378 12.9427C1.47373 12.6927 1.33325 12.3535 1.33325 11.9999V2.66659C1.33325 2.31296 1.47373 1.97382 1.72378 1.72378C1.97382 1.47373 2.31296 1.33325 2.66659 1.33325H11.9999C12.3535 1.33325 12.6927 1.47373 12.9427 1.72378C13.1928 1.97382 13.3333 2.31296 13.3333 2.66659V11.9999C13.3333 12.3535 13.1928 12.6927 12.9427 12.9427C12.6927 13.1928 12.3535 13.3333 11.9999 13.3333Z" fill="#8C30F5"/>
<path d="M11.9999 30.6665H2.66659C2.31296 30.6665 1.97382 30.526 1.72378 30.276C1.47373 30.0259 1.33325 29.6868 1.33325 29.3332V19.9998C1.33325 19.6462 1.47373 19.3071 1.72378 19.057C1.97382 18.807 2.31296 18.6665 2.66659 18.6665H11.9999C12.3535 18.6665 12.6927 18.807 12.9427 19.057C13.1928 19.3071 13.3333 19.6462 13.3333 19.9998V29.3332C13.3333 29.6868 13.1928 30.0259 12.9427 30.276C12.6927 30.526 12.3535 30.6665 11.9999 30.6665Z" fill="#8C30F5"/>
<path d="M17.3333 2.6665H30.6666V5.33317H17.3333V2.6665Z" fill="#2EC5CE"/>
<path d="M30.6666 20H17.3333V22.6667H30.6666V20Z" fill="#2EC5CE"/>
<path d="M30.6666 26.6665H17.3333V29.3332H30.6666V26.6665Z" fill="#D6B1FF"/>
<path d="M30.6666 9.33325H17.3333V11.9999H30.6666V9.33325Z" fill="#D6B1FF"/>
</svg>
