<svg width="54" height="54" viewBox="0 0 54 54" fill="none" xmlns="http://www.w3.org/2000/svg">
<path d="M21.6 18.9C21.6 17.4678 22.1689 16.0943 23.1816 15.0816C24.1943 14.0689 25.5678 13.5 27 13.5C28.4321 13.5 29.8057 14.0689 30.8184 15.0816C31.831 16.0943 32.4 17.4678 32.4 18.9C32.4 20.3322 31.831 21.7057 30.8184 22.7184C29.8057 23.7311 28.4321 24.3 27 24.3C25.5678 24.3 24.1943 23.7311 23.1816 22.7184C22.1689 21.7057 21.6 20.3322 21.6 18.9Z" fill="#CAC2F7"/>
<path d="M20.2501 27H33.7501C34.8242 27 35.8543 27.4267 36.6138 28.1862C37.3734 28.9457 37.8001 29.9759 37.8001 31.05C37.8001 34.0632 36.5608 36.477 34.5277 38.1105C32.527 39.717 29.8432 40.5 27.0001 40.5C24.157 40.5 21.4732 39.717 19.4725 38.1105C17.4421 36.477 16.2001 34.0632 16.2001 31.05C16.2001 29.9759 16.6268 28.9457 17.3863 28.1862C18.1458 27.4267 19.1759 27 20.2501 27V27Z" fill="#CAC2F7"/>
<path d="M27 5.40039C21.2713 5.40039 15.7773 7.6761 11.7265 11.7269C7.67573 15.7777 5.40002 21.2717 5.40002 27.0004C5.40002 32.7291 7.67573 38.2231 11.7265 42.2739C15.7773 46.3247 21.2713 48.6004 27 48.6004C32.7287 48.6004 38.2227 46.3247 42.2735 42.2739C46.3243 38.2231 48.6 32.7291 48.6 27.0004C48.6 21.2717 46.3243 15.7777 42.2735 11.7269C38.2227 7.6761 32.7287 5.40039 27 5.40039V5.40039ZM8.10002 27.0004C8.10002 24.5184 8.58889 22.0607 9.5387 19.7677C10.4885 17.4746 11.8807 15.3911 13.6357 13.6361C15.3907 11.881 17.4743 10.4889 19.7673 9.53907C22.0604 8.58925 24.518 8.10039 27 8.10039C29.482 8.10039 31.9397 8.58925 34.2327 9.53907C36.5258 10.4889 38.6093 11.881 40.3643 13.6361C42.1194 15.3911 43.5115 17.4746 44.4613 19.7677C45.4112 22.0607 45.9 24.5184 45.9 27.0004C45.9 32.013 43.9088 36.8203 40.3643 40.3647C36.8199 43.9091 32.0126 45.9004 27 45.9004C21.9874 45.9004 17.1801 43.9091 13.6357 40.3647C10.0913 36.8203 8.10002 32.013 8.10002 27.0004Z" fill="#CAC2F7"/>
</svg>
