<svg width="66" height="66" viewBox="0 0 66 66" fill="none" xmlns="http://www.w3.org/2000/svg">
<path d="M48.3166 2.35742C45.5034 2.35742 42.8054 3.47496 40.8162 5.46418C38.827 7.45341 37.7094 10.1514 37.7094 12.9646V18.8574L33.8909 23.2794C33.3817 23.8687 33.1248 24.1657 33.0541 24.4014C32.9683 24.6781 32.9875 24.9768 33.1079 25.2402C33.2284 25.5037 33.4416 25.7136 33.707 25.8299C33.9333 25.9289 34.3246 25.9289 35.1048 25.9289H61.5284C62.3086 25.9289 62.6999 25.9289 62.9261 25.8299C63.1915 25.7136 63.4048 25.5037 63.5252 25.2402C63.6457 24.9768 63.6648 24.6781 63.5791 24.4014C63.5084 24.1657 63.2514 23.8711 62.7399 23.2794L58.9237 18.8574V12.9646C58.9237 10.1514 57.8062 7.45341 55.817 5.46418C53.8277 3.47496 51.1298 2.35742 48.3166 2.35742V2.35742ZM48.3166 33.0003C49.5669 33.0003 50.766 32.5036 51.6501 31.6195C52.5342 30.7354 53.0309 29.5363 53.0309 28.286H43.6023C43.6023 29.5363 44.099 30.7354 44.9831 31.6195C45.8672 32.5036 47.0663 33.0003 48.3166 33.0003ZM32.9999 33.3656L41.297 29.0521C41.429 30.2825 41.8769 31.4186 42.5581 32.378L33.8154 36.9273C33.6063 37.0355 33.3776 37.1008 33.1428 37.1195C32.908 37.1381 32.6719 37.1096 32.4483 37.0357L32.1843 36.9249L10.607 25.7049V46.5539C10.607 47.5891 10.9963 48.5865 11.6976 49.348C12.3989 50.1095 13.3609 50.5795 14.3926 50.6647L14.732 50.6789H51.2677C52.3033 50.6788 53.301 50.2891 54.0626 49.5874C54.8242 48.8856 55.2939 47.9231 55.3786 46.8909L55.3927 46.5539V28.5618C55.3974 28.4699 55.3974 28.3779 55.3974 28.286H58.9284V46.5539C58.9286 48.5106 58.1799 50.3932 56.8361 51.8155C55.4922 53.2378 53.655 54.092 51.7014 54.2028L51.2677 54.2146H14.732C12.7752 54.2147 10.8926 53.466 9.47032 52.1222C8.04801 50.7783 7.19386 48.9412 7.08308 46.9876L7.07129 46.5539V19.4467C7.07116 17.49 7.81981 15.6073 9.16366 14.185C10.5075 12.7627 12.3447 11.9086 14.2983 11.7978L14.732 11.786H35.4159C35.3801 12.1778 35.362 12.5711 35.3617 12.9646V15.3217H14.732C13.6968 15.3217 12.6994 15.711 11.9379 16.4123C11.1763 17.1136 10.7063 18.0756 10.6211 19.1073L10.607 19.4467V21.719L32.9999 33.3633V33.3656Z" fill="#CAC2F7"/>
</svg>
