<svg width="314" height="309" viewBox="0 0 314 309" fill="none" xmlns="http://www.w3.org/2000/svg">
<g clip-path="url(#clip0_3536_7372)">
<rect width="314" height="309" rx="154.5" fill="#6B4EFF"/>
<line x1="135.119" y1="52.9235" x2="258.079" y2="-18.0674" stroke="#343434" stroke-width="10" stroke-linecap="round"/>
<line x1="-16.0893" y1="219.885" x2="192.214" y2="102.883" stroke="#343434" stroke-width="10" stroke-linecap="round"/>
<circle cx="80.9316" cy="83.9316" r="23.9316" fill="#C4C4C4"/>
<g clip-path="url(#clip1_3536_7372)">
<path d="M87.1282 73.4081C87.5107 73.4081 87.8775 73.5601 88.148 73.8306C88.4185 74.1011 88.5705 74.4679 88.5705 74.8504V92.1581C88.5705 92.5407 88.4185 92.9075 88.148 93.178C87.8775 93.4485 87.5107 93.6004 87.1282 93.6004H75.5897C75.2072 93.6004 74.8403 93.4485 74.5698 93.178C74.2993 92.9075 74.1474 92.5407 74.1474 92.1581V74.8504C74.1474 74.4679 74.2993 74.1011 74.5698 73.8306C74.8403 73.5601 75.2072 73.4081 75.5897 73.4081H87.1282ZM75.5897 71.9658C74.8246 71.9658 74.0909 72.2697 73.55 72.8107C73.009 73.3517 72.7051 74.0854 72.7051 74.8504V92.1581C72.7051 92.9232 73.009 93.6569 73.55 94.1979C74.0909 94.7388 74.8246 95.0427 75.5897 95.0427H87.1282C87.8932 95.0427 88.6269 94.7388 89.1679 94.1979C89.7089 93.6569 90.0128 92.9232 90.0128 92.1581V74.8504C90.0128 74.0854 89.7089 73.3517 89.1679 72.8107C88.6269 72.2697 87.8932 71.9658 87.1282 71.9658H75.5897Z" fill="#060809"/>
<path d="M81.3593 92.1581C81.7418 92.1581 82.1087 92.0061 82.3792 91.7356C82.6497 91.4651 82.8016 91.0983 82.8016 90.7157C82.8016 90.3332 82.6497 89.9664 82.3792 89.6959C82.1087 89.4254 81.7418 89.2734 81.3593 89.2734C80.9768 89.2734 80.6099 89.4254 80.3394 89.6959C80.0689 89.9664 79.917 90.3332 79.917 90.7157C79.917 91.0983 80.0689 91.4651 80.3394 91.7356C80.6099 92.0061 80.9768 92.1581 81.3593 92.1581Z" fill="#060809"/>
</g>
<circle cx="157" cy="83.9316" r="23.9316" fill="#C4C4C4"/>
<path d="M145.162 78.2479C145.162 77.3185 145.531 76.4272 146.188 75.77C146.846 75.1129 147.737 74.7437 148.666 74.7437H166.188C167.117 74.7437 168.008 75.1129 168.666 75.77C169.323 76.4272 169.692 77.3185 169.692 78.2479V87.0086C169.692 87.938 169.323 88.8293 168.666 89.4865C168.008 90.1437 167.117 90.5129 166.188 90.5129H148.666C147.737 90.5129 146.846 90.1437 146.188 89.4865C145.531 88.8293 145.162 87.938 145.162 87.0086V78.2479ZM148.666 76.4958C148.202 76.4958 147.756 76.6804 147.427 77.009C147.099 77.3376 146.914 77.7832 146.914 78.2479V87.0086C146.914 87.4733 147.099 87.919 147.427 88.2476C147.756 88.5761 148.202 88.7607 148.666 88.7607H166.188C166.652 88.7607 167.098 88.5761 167.427 88.2476C167.755 87.919 167.94 87.4733 167.94 87.0086V78.2479C167.94 77.7832 167.755 77.3376 167.427 77.009C167.098 76.6804 166.652 76.4958 166.188 76.4958H148.666Z" fill="#060809"/>
<path d="M143.41 93.1412C143.41 92.9089 143.502 92.686 143.667 92.5217C143.831 92.3574 144.054 92.2651 144.286 92.2651H170.568C170.801 92.2651 171.023 92.3574 171.188 92.5217C171.352 92.686 171.444 92.9089 171.444 93.1412C171.444 93.3736 171.352 93.5964 171.188 93.7607C171.023 93.925 170.801 94.0173 170.568 94.0173H144.286C144.054 94.0173 143.831 93.925 143.667 93.7607C143.502 93.5964 143.41 93.3736 143.41 93.1412Z" fill="#060809"/>
<circle cx="233.068" cy="83.9316" r="23.9316" fill="#C4C4C4"/>
<g clip-path="url(#clip2_3536_7372)">
<path d="M237.876 72.7136C238.301 72.7136 238.709 72.8825 239.009 73.183C239.31 73.4836 239.479 73.8912 239.479 74.3162V93.547C239.479 93.972 239.31 94.3796 239.009 94.6802C238.709 94.9807 238.301 95.1495 237.876 95.1495H228.261C227.836 95.1495 227.428 94.9807 227.128 94.6802C226.827 94.3796 226.658 93.972 226.658 93.547V74.3162C226.658 73.8912 226.827 73.4836 227.128 73.183C227.428 72.8825 227.836 72.7136 228.261 72.7136H237.876ZM228.261 71.1111C227.411 71.1111 226.596 71.4488 225.994 72.0498C225.393 72.6509 225.056 73.4662 225.056 74.3162V93.547C225.056 94.397 225.393 95.2123 225.994 95.8133C226.596 96.4144 227.411 96.7521 228.261 96.7521H237.876C238.726 96.7521 239.541 96.4144 240.143 95.8133C240.744 95.2123 241.081 94.397 241.081 93.547V74.3162C241.081 73.4662 240.744 72.6509 240.143 72.0498C239.541 71.4488 238.726 71.1111 237.876 71.1111H228.261Z" fill="#060809"/>
<path d="M233.068 93.5469C233.493 93.5469 233.901 93.3781 234.202 93.0775C234.502 92.777 234.671 92.3694 234.671 91.9444C234.671 91.5193 234.502 91.1117 234.202 90.8112C233.901 90.5106 233.493 90.3418 233.068 90.3418C232.643 90.3418 232.236 90.5106 231.935 90.8112C231.635 91.1117 231.466 91.5193 231.466 91.9444C231.466 92.3694 231.635 92.777 231.935 93.0775C232.236 93.3781 232.643 93.5469 233.068 93.5469Z" fill="#060809"/>
</g>
<circle cx="80.9316" cy="158.291" r="23.9316" fill="#C4C4C4"/>
<path d="M77.299 161.923L73.7053 165.517C73.3053 165.917 72.7958 166.189 72.241 166.299C71.6863 166.41 71.1113 166.353 70.5888 166.136C70.0663 165.92 69.6196 165.554 69.3054 165.083C68.9911 164.613 68.8233 164.06 68.8232 163.495V161.923L70.4663 153.709C70.6858 152.611 71.2789 151.623 72.1447 150.913C73.0105 150.203 74.0955 149.815 75.2152 149.815H86.6478C87.7675 149.815 88.8525 150.203 89.7183 150.913C90.5841 151.623 91.1772 152.611 91.3967 153.709L93.0398 161.923V163.493C93.0397 164.059 92.8719 164.612 92.5576 165.082C92.2434 165.552 91.7967 165.919 91.2742 166.135C90.7517 166.352 90.1767 166.408 89.622 166.298C89.0673 166.188 88.5577 165.915 88.1577 165.515L84.564 161.923H77.299Z" stroke="#060809" stroke-width="2" stroke-linecap="round" stroke-linejoin="round"/>
<path d="M77.2988 149.815L78.5097 152.236H83.353L84.5638 149.815" stroke="#060809" stroke-width="2" stroke-linecap="round" stroke-linejoin="round"/>
<circle cx="157" cy="158.291" r="23.9316" fill="#C4C4C4"/>
<g clip-path="url(#clip3_3536_7372)">
<path d="M146.063 150.569C145.792 150.57 145.528 150.65 145.302 150.799C145.077 150.949 144.9 151.161 144.794 151.41C141.459 151.601 139.041 151.921 139.052 152.172C139.061 152.421 141.461 152.53 144.77 152.432C144.884 152.741 145.106 152.999 145.393 153.159H144.856V154.144H144.199C144.158 154.144 144.117 154.152 144.079 154.168C144.041 154.183 144.007 154.206 143.977 154.236C143.948 154.265 143.925 154.299 143.909 154.337C143.894 154.375 143.885 154.416 143.885 154.458V155.159C143.885 155.332 144.026 155.473 144.199 155.473H148.62C149.734 155.735 149.859 156.134 150.693 156.866C150.557 157.624 150.356 158.452 150.198 159.168V165.261C150.198 165.46 150.277 165.651 150.418 165.792C150.559 165.933 150.75 166.012 150.949 166.012C151.149 166.012 151.34 165.933 151.481 165.792C151.621 165.651 151.701 165.46 151.701 165.261V162.315C151.683 159.838 152.083 158.836 153.461 156.919L153.808 156.758C153.808 158.246 154.837 158.336 156.288 158.668H155.198C154.866 158.668 154.597 158.937 154.597 159.269V162.859C154.597 163.191 154.866 163.46 155.198 163.46H158.803C159.135 163.46 159.404 163.191 159.404 162.859V159.269C159.404 158.937 159.135 158.668 158.803 158.668H157.715C159.165 158.335 160.193 158.246 160.193 156.758L160.54 156.919C162.283 158.723 162.3 159.951 162.3 162.314V165.26C162.3 165.46 162.38 165.651 162.52 165.792C162.661 165.932 162.852 166.012 163.052 166.012C163.251 166.012 163.442 165.932 163.583 165.792C163.724 165.651 163.803 165.46 163.803 165.26V159.168C163.619 158.381 163.421 157.557 163.236 156.741C164.025 155.967 164.349 155.793 165.374 155.473H169.802C169.885 155.473 169.965 155.44 170.024 155.381C170.083 155.322 170.116 155.242 170.116 155.159V154.458C170.116 154.374 170.083 154.294 170.024 154.236C169.965 154.177 169.885 154.144 169.802 154.144H169.145V153.159H168.608C168.896 152.999 169.117 152.741 169.231 152.432C172.54 152.53 174.94 152.421 174.949 152.172C174.96 151.921 172.542 151.601 169.207 151.41C169.104 151.17 168.936 150.964 168.722 150.815C168.507 150.667 168.255 150.582 167.995 150.571C167.734 150.559 167.476 150.622 167.249 150.751C167.022 150.881 166.837 151.072 166.714 151.302C163.373 151.2 160.934 151.308 160.92 151.559C160.909 151.808 163.294 152.126 166.601 152.317C166.65 152.494 166.733 152.66 166.847 152.805C166.96 152.949 167.101 153.07 167.261 153.159H166.724V154.144C163.338 154.136 160.717 152.434 157.001 152.364C153.41 152.44 150.403 154.144 147.277 154.144V153.159H146.74C146.9 153.07 147.041 152.949 147.154 152.805C147.268 152.66 147.351 152.494 147.4 152.317C150.707 152.126 153.092 151.807 153.081 151.559C153.067 151.308 150.628 151.2 147.287 151.302C147.168 151.08 146.992 150.895 146.776 150.766C146.561 150.637 146.314 150.569 146.063 150.569V150.569ZM157.001 159.548C157.843 159.548 158.535 160.241 158.535 161.083C158.535 161.926 157.843 162.618 157.001 162.618C156.158 162.618 155.465 161.926 155.465 161.083C155.465 160.241 156.158 159.548 157.001 159.548ZM157.001 160.449C156.645 160.449 156.366 160.728 156.366 161.083C156.366 161.438 156.645 161.717 157.001 161.717C157.356 161.717 157.634 161.438 157.634 161.083C157.634 160.728 157.356 160.449 157.001 160.449Z" fill="#060809"/>
</g>
<circle cx="233.068" cy="158.291" r="23.9316" fill="#C4C4C4"/>
<path d="M242.311 148.046H224.682C223.982 148.049 223.311 148.329 222.816 148.824C222.321 149.319 222.041 149.99 222.038 150.691V163.03C222.038 163.732 222.317 164.404 222.813 164.9C223.308 165.396 223.981 165.675 224.682 165.675H242.311C243.012 165.675 243.684 165.396 244.18 164.9C244.676 164.404 244.955 163.732 244.955 163.03V150.691C244.952 149.99 244.672 149.319 244.177 148.824C243.682 148.329 243.011 148.049 242.311 148.046ZM243.192 163.03C243.192 163.264 243.099 163.488 242.934 163.654C242.768 163.819 242.544 163.912 242.311 163.912H224.682C224.449 163.912 224.224 163.819 224.059 163.654C223.894 163.488 223.801 163.264 223.801 163.03V150.691C223.801 150.457 223.894 150.233 224.059 150.067C224.224 149.902 224.449 149.809 224.682 149.809H242.311C242.544 149.809 242.768 149.902 242.934 150.067C243.099 150.233 243.192 150.457 243.192 150.691V163.03ZM237.903 168.319C237.903 168.553 237.811 168.777 237.645 168.942C237.48 169.107 237.256 169.2 237.022 169.2H229.971C229.737 169.2 229.513 169.107 229.348 168.942C229.182 168.777 229.089 168.553 229.089 168.319C229.089 168.085 229.182 167.861 229.348 167.696C229.513 167.53 229.737 167.437 229.971 167.437H237.022C237.256 167.437 237.48 167.53 237.645 167.696C237.811 167.861 237.903 168.085 237.903 168.319Z" fill="#060809"/>
<circle cx="80.9316" cy="232.65" r="23.9316" fill="#C4C4C4"/>
<g clip-path="url(#clip4_3536_7372)">
<path d="M91.9361 231.341C91.9361 231.688 91.8677 232.032 91.7348 232.353C91.6019 232.673 91.4071 232.965 91.1616 233.211C90.9161 233.456 90.6246 233.651 90.3037 233.784C89.9829 233.917 89.6391 233.985 89.2918 233.985C88.9446 233.985 88.6007 233.917 88.2799 233.784C87.9591 233.651 87.6676 233.456 87.4221 233.211C87.1765 232.965 86.9818 232.673 86.8489 232.353C86.716 232.032 86.6476 231.688 86.6476 231.341C86.6476 230.639 86.9262 229.967 87.4221 229.471C87.918 228.975 88.5905 228.697 89.2918 228.697C89.9931 228.697 90.6657 228.975 91.1616 229.471C91.6575 229.967 91.9361 230.639 91.9361 231.341ZM71.6636 228.697C71.4299 228.697 71.2057 228.789 71.0404 228.955C70.8751 229.12 70.7822 229.344 70.7822 229.578C70.7822 229.812 70.8751 230.036 71.0404 230.201C71.2057 230.366 71.4299 230.459 71.6636 230.459H78.7149C78.9487 230.459 79.1729 230.366 79.3382 230.201C79.5035 230.036 79.5963 229.812 79.5963 229.578C79.5963 229.344 79.5035 229.12 79.3382 228.955C79.1729 228.789 78.9487 228.697 78.7149 228.697H71.6636ZM71.6636 232.222C71.4299 232.222 71.2057 232.315 71.0404 232.48C70.8751 232.646 70.7822 232.87 70.7822 233.104C70.7822 233.337 70.8751 233.562 71.0404 233.727C71.2057 233.892 71.4299 233.985 71.6636 233.985H78.7149C78.9487 233.985 79.1729 233.892 79.3382 233.727C79.5035 233.562 79.5963 233.337 79.5963 233.104C79.5963 232.87 79.5035 232.646 79.3382 232.48C79.1729 232.315 78.9487 232.222 78.7149 232.222H71.6636Z" fill="#060809"/>
<path d="M67.2568 228.697C67.2568 227.761 67.6283 226.865 68.2895 226.204C68.9507 225.542 69.8474 225.171 70.7825 225.171H91.9363C92.8714 225.171 93.7681 225.542 94.4293 226.204C95.0905 226.865 95.462 227.761 95.462 228.697V233.985C95.462 234.92 95.0905 235.817 94.4293 236.478C93.7681 237.139 92.8714 237.511 91.9363 237.511C91.9363 237.978 91.7506 238.427 91.42 238.757C91.0894 239.088 90.641 239.273 90.1735 239.273H88.4107C87.9432 239.273 87.4948 239.088 87.1642 238.757C86.8336 238.427 86.6479 237.978 86.6479 237.511H76.0709C76.0709 237.978 75.8852 238.427 75.5546 238.757C75.224 239.088 74.7756 239.273 74.3081 239.273H72.5453C72.0778 239.273 71.6294 239.088 71.2988 238.757C70.9682 238.427 70.7825 237.978 70.7825 237.511C69.8474 237.511 68.9507 237.139 68.2895 236.478C67.6283 235.817 67.2568 234.92 67.2568 233.985V228.697ZM70.7825 226.934C70.3149 226.934 69.8666 227.119 69.536 227.45C69.2054 227.781 69.0197 228.229 69.0197 228.697V233.985C69.0197 234.453 69.2054 234.901 69.536 235.232C69.8666 235.562 70.3149 235.748 70.7825 235.748H91.9363C92.4039 235.748 92.8522 235.562 93.1828 235.232C93.5134 234.901 93.6991 234.453 93.6991 233.985V228.697C93.6991 228.229 93.5134 227.781 93.1828 227.45C92.8522 227.119 92.4039 226.934 91.9363 226.934H70.7825Z" fill="#060809"/>
</g>
<circle cx="157" cy="232.65" r="23.9316" fill="#C4C4C4"/>
<g clip-path="url(#clip5_3536_7372)">
<path d="M168.218 239.06C168.218 239.485 168.049 239.892 167.749 240.193C167.448 240.494 167.041 240.662 166.616 240.662H147.385C146.96 240.662 146.552 240.494 146.252 240.193C145.951 239.892 145.782 239.485 145.782 239.06V229.444C145.782 229.019 145.951 228.612 146.252 228.311C146.552 228.011 146.96 227.842 147.385 227.842H149.263C150.537 227.841 151.759 227.335 152.66 226.433L153.991 225.106C154.29 224.807 154.697 224.638 155.12 224.637H158.877C159.302 224.637 159.709 224.806 160.01 225.106L161.337 226.433C161.783 226.88 162.313 227.234 162.897 227.476C163.48 227.718 164.106 227.842 164.737 227.842H166.616C167.041 227.842 167.448 228.011 167.749 228.311C168.049 228.612 168.218 229.019 168.218 229.444V239.06ZM147.385 226.239C146.535 226.239 145.72 226.577 145.118 227.178C144.517 227.779 144.18 228.594 144.18 229.444V239.06C144.18 239.91 144.517 240.725 145.118 241.326C145.72 241.927 146.535 242.265 147.385 242.265H166.616C167.466 242.265 168.281 241.927 168.882 241.326C169.483 240.725 169.821 239.91 169.821 239.06V229.444C169.821 228.594 169.483 227.779 168.882 227.178C168.281 226.577 167.466 226.239 166.616 226.239H164.737C163.887 226.239 163.072 225.901 162.471 225.3L161.144 223.973C160.543 223.372 159.728 223.034 158.878 223.034H155.122C154.272 223.034 153.457 223.372 152.856 223.973L151.529 225.3C150.928 225.901 150.113 226.239 149.263 226.239H147.385Z" fill="#060809"/>
<path d="M157 237.457C155.938 237.457 154.919 237.035 154.167 236.284C153.416 235.532 152.994 234.513 152.994 233.451C152.994 232.388 153.416 231.369 154.167 230.618C154.919 229.866 155.938 229.444 157 229.444C158.063 229.444 159.082 229.866 159.833 230.618C160.584 231.369 161.007 232.388 161.007 233.451C161.007 234.513 160.584 235.532 159.833 236.284C159.082 237.035 158.063 237.457 157 237.457ZM157 239.06C158.488 239.06 159.914 238.469 160.966 237.417C162.018 236.365 162.609 234.938 162.609 233.451C162.609 231.963 162.018 230.537 160.966 229.485C159.914 228.433 158.488 227.842 157 227.842C155.513 227.842 154.086 228.433 153.034 229.485C151.982 230.537 151.391 231.963 151.391 233.451C151.391 234.938 151.982 236.365 153.034 237.417C154.086 238.469 155.513 239.06 157 239.06ZM148.987 230.246C148.987 230.458 148.903 230.662 148.753 230.812C148.602 230.963 148.399 231.047 148.186 231.047C147.974 231.047 147.77 230.963 147.619 230.812C147.469 230.662 147.385 230.458 147.385 230.246C147.385 230.033 147.469 229.829 147.619 229.679C147.77 229.529 147.974 229.444 148.186 229.444C148.399 229.444 148.602 229.529 148.753 229.679C148.903 229.829 148.987 230.033 148.987 230.246Z" fill="#060809"/>
</g>
<circle cx="233.068" cy="232.65" r="23.9316" fill="#C4C4C4"/>
<g clip-path="url(#clip6_3536_7372)">
<path d="M227.046 246.325C226.603 246.325 226.178 246.152 225.865 245.844C225.552 245.537 225.376 245.119 225.376 244.684V225.42C225.376 224.514 226.124 223.779 227.046 223.779H229.025C229.088 223.779 229.148 223.794 229.2 223.82L229.198 223.819V219.166C229.198 219.06 229.285 218.975 229.393 218.975H236.376C236.484 218.975 236.571 219.06 236.571 219.166V223.792C236.601 223.784 236.632 223.78 236.663 223.78H238.421C239.343 223.78 240.091 224.515 240.091 225.421V230.015C240.143 229.99 240.201 229.977 240.259 229.977H241.137C241.353 229.977 241.528 230.15 241.528 230.362V240.358C241.528 240.46 241.487 240.558 241.414 240.63C241.34 240.702 241.241 240.742 241.137 240.742H240.259C240.2 240.742 240.142 240.729 240.089 240.703L240.091 240.705V244.684C240.091 245.119 239.915 245.537 239.602 245.844C239.289 246.152 238.864 246.325 238.421 246.325H227.046ZM235.542 242.643V243.935C235.542 243.986 235.563 244.035 235.6 244.071C235.636 244.107 235.686 244.128 235.738 244.128H237.285C237.337 244.128 237.387 244.107 237.423 244.071C237.46 244.035 237.481 243.986 237.481 243.935V242.643C237.481 242.592 237.46 242.543 237.423 242.508C237.387 242.472 237.337 242.452 237.285 242.452H235.735C235.684 242.452 235.634 242.472 235.598 242.508C235.561 242.544 235.54 242.592 235.539 242.643H235.542ZM231.881 242.643V243.935C231.881 243.986 231.902 244.035 231.939 244.071C231.975 244.107 232.025 244.128 232.077 244.128H233.623C233.675 244.128 233.725 244.107 233.762 244.071C233.798 244.035 233.819 243.986 233.819 243.935V242.643C233.819 242.592 233.798 242.543 233.761 242.508C233.725 242.472 233.675 242.452 233.623 242.452H232.076C232.024 242.452 231.975 242.472 231.938 242.508C231.901 242.544 231.88 242.592 231.88 242.643H231.881ZM228.22 242.643V243.936C228.22 244.042 228.307 244.128 228.415 244.128H229.962C230.014 244.128 230.064 244.107 230.101 244.071C230.137 244.035 230.158 243.986 230.158 243.935V242.643C230.158 242.592 230.137 242.543 230.101 242.508C230.064 242.472 230.014 242.452 229.962 242.452H228.415C228.363 242.452 228.314 242.472 228.277 242.508C228.241 242.544 228.22 242.592 228.22 242.643ZM235.541 239.713V241.005C235.541 241.056 235.562 241.105 235.598 241.141C235.635 241.177 235.685 241.198 235.737 241.198H237.284C237.336 241.198 237.386 241.177 237.422 241.141C237.459 241.105 237.48 241.056 237.48 241.005V239.712C237.48 239.661 237.46 239.612 237.423 239.577C237.386 239.541 237.337 239.52 237.285 239.52H235.734C235.683 239.52 235.633 239.541 235.597 239.577C235.56 239.612 235.539 239.661 235.539 239.712V239.713H235.541ZM231.88 239.713V241.005C231.88 241.056 231.901 241.105 231.938 241.141C231.974 241.177 232.024 241.198 232.076 241.198H233.623C233.675 241.198 233.725 241.177 233.762 241.141C233.798 241.105 233.819 241.056 233.819 241.005V239.712C233.819 239.661 233.799 239.612 233.762 239.577C233.726 239.541 233.676 239.52 233.624 239.52H232.075C232.023 239.52 231.973 239.541 231.937 239.577C231.9 239.612 231.88 239.661 231.88 239.712V239.713ZM228.219 239.713V241.007C228.219 241.113 228.306 241.198 228.414 241.198H229.961C230.013 241.198 230.063 241.177 230.1 241.141C230.136 241.105 230.157 241.056 230.157 241.005V239.712C230.157 239.661 230.137 239.612 230.1 239.577C230.064 239.541 230.014 239.52 229.962 239.52H228.414C228.362 239.52 228.313 239.541 228.276 239.577C228.24 239.612 228.219 239.661 228.219 239.712V239.713ZM235.539 236.782V238.075C235.539 238.181 235.626 238.267 235.734 238.267H237.284C237.336 238.267 237.385 238.247 237.422 238.211C237.458 238.175 237.479 238.126 237.479 238.075V236.782C237.479 236.731 237.458 236.682 237.421 236.647C237.384 236.611 237.335 236.591 237.283 236.591H235.735C235.684 236.591 235.634 236.611 235.598 236.647C235.561 236.683 235.54 236.731 235.539 236.782ZM231.879 236.782V238.075C231.879 238.181 231.966 238.267 232.074 238.267H233.623C233.675 238.267 233.724 238.247 233.761 238.211C233.798 238.175 233.818 238.126 233.818 238.075V236.782C233.818 236.731 233.797 236.682 233.76 236.647C233.724 236.611 233.674 236.591 233.622 236.591H232.075C232.023 236.591 231.973 236.611 231.937 236.647C231.9 236.683 231.879 236.731 231.879 236.782ZM228.218 236.782V238.075C228.218 238.181 228.305 238.267 228.413 238.267H229.962C230.014 238.267 230.064 238.247 230.1 238.211C230.137 238.175 230.157 238.126 230.157 238.075V236.782C230.157 236.731 230.136 236.682 230.099 236.647C230.063 236.611 230.013 236.591 229.961 236.591H228.414C228.362 236.591 228.313 236.611 228.276 236.647C228.24 236.683 228.219 236.731 228.219 236.782H228.218ZM227.974 229.132V234.73C227.974 234.836 228.061 234.921 228.169 234.921H237.173C237.224 234.921 237.274 234.901 237.31 234.865C237.347 234.829 237.368 234.78 237.368 234.73V229.132C237.367 229.081 237.346 229.032 237.31 228.996C237.273 228.96 237.223 228.94 237.172 228.939H228.17C228.118 228.94 228.069 228.96 228.032 228.996C227.995 229.032 227.975 229.081 227.974 229.132ZM227.39 226.075V227.432C227.39 227.75 227.652 228.007 227.975 228.007H237.718C237.873 228.007 238.022 227.946 238.132 227.839C238.242 227.731 238.304 227.584 238.304 227.432V226.075C238.304 225.923 238.242 225.776 238.132 225.669C238.022 225.561 237.873 225.5 237.718 225.5H236.57V226.651H237.136V226.854H228.561V226.651H228.934C229.028 226.651 229.12 226.629 229.204 226.586L229.2 226.587V225.564C229.118 225.522 229.026 225.5 228.932 225.5H227.973C227.818 225.5 227.669 225.561 227.56 225.669C227.45 225.777 227.388 225.923 227.388 226.075H227.39Z" fill="#060809"/>
</g>
</g>
<defs>
<clipPath id="clip0_3536_7372">
<rect width="314" height="309" rx="154.5" fill="white"/>
</clipPath>
<clipPath id="clip1_3536_7372">
<rect width="23.0769" height="23.0769" fill="white" transform="translate(69.8203 71.9658)"/>
</clipPath>
<clipPath id="clip2_3536_7372">
<rect width="25.641" height="25.641" fill="white" transform="translate(220.248 71.1111)"/>
</clipPath>
<clipPath id="clip3_3536_7372">
<rect width="35.8974" height="35.8974" fill="white" transform="translate(139.052 140.342)"/>
</clipPath>
<clipPath id="clip4_3536_7372">
<rect width="28.2051" height="28.2051" fill="white" transform="translate(67.2568 218.12)"/>
</clipPath>
<clipPath id="clip5_3536_7372">
<rect width="25.641" height="25.641" fill="white" transform="translate(144.18 219.829)"/>
</clipPath>
<clipPath id="clip6_3536_7372">
<rect width="16.2393" height="27.3504" fill="white" transform="translate(225.376 218.975)"/>
</clipPath>
</defs>
</svg>
