<svg width="357" height="400" viewBox="0 0 357 400" fill="none" xmlns="http://www.w3.org/2000/svg">
<g clip-path="url(#clip0_3536_7433)">
<rect x="21" width="335.862" height="280.355" rx="12" fill="#6B4EFF"/>
<path d="M201.542 146.371C200.126 144.943 198.206 144.141 196.203 144.141C194.201 144.141 192.28 144.943 190.864 146.371L185.524 151.746C184.131 153.2 182.465 154.361 180.622 155.159C178.779 155.957 176.797 156.377 174.791 156.394C172.786 156.412 170.797 156.027 168.941 155.261C167.085 154.495 165.398 153.365 163.98 151.935C162.562 150.505 161.44 148.805 160.681 146.933C159.921 145.062 159.539 143.057 159.557 141.035C159.574 139.013 159.991 137.015 160.782 135.157C161.574 133.299 162.725 131.619 164.167 130.214L206.685 87.3326C216.752 85.0243 227.284 85.9743 236.784 90.0475C246.284 94.1208 254.268 101.11 259.602 110.021C264.936 118.932 267.347 129.312 266.493 139.684C265.639 150.057 261.563 159.893 254.845 167.796L238.925 184.052L201.542 146.363V146.371ZM118.772 100.596C126.586 92.7185 136.808 87.7284 147.783 86.4324C158.759 85.1364 169.848 87.6103 179.256 93.4542L153.481 119.448C147.898 125.065 144.716 132.66 144.614 140.611C144.512 148.562 147.499 156.238 152.936 161.998C158.372 167.759 165.828 171.147 173.71 171.44C181.591 171.732 189.274 168.905 195.116 163.563L196.203 162.52L228.247 194.818L196.203 227.124C193.371 229.978 189.53 231.582 185.524 231.582C181.519 231.582 177.678 229.978 174.846 227.124L118.764 170.583C109.559 161.302 104.388 148.714 104.388 135.589C104.388 122.465 109.559 109.877 118.764 100.596H118.772Z" fill="#F5F5F5"/>
<path d="M321.789 257.351V255.226H319.425C319.28 254.561 319.001 253.928 318.602 253.363L320.278 251.78L318.687 250.278L317.011 251.861C316.413 251.484 315.743 251.22 315.039 251.083V248.851H312.789V251.083C312.085 251.22 311.415 251.484 310.817 251.861L309.141 250.278L307.55 251.78L309.226 253.363C308.827 253.928 308.548 254.561 308.403 255.226H306.039V257.351H308.403C308.548 258.016 308.827 258.648 309.226 259.213L307.55 260.797L309.141 262.299L310.817 260.716C311.415 261.092 312.085 261.356 312.789 261.494V263.726H315.039V261.494C315.743 261.356 316.413 261.092 317.011 260.716L318.687 262.299L320.278 260.797L318.602 259.213C319.001 258.648 319.28 258.016 319.425 257.351H321.789ZM313.914 259.476C313.247 259.476 312.594 259.289 312.039 258.939C311.484 258.588 311.051 258.091 310.796 257.508C310.541 256.926 310.474 256.285 310.604 255.666C310.734 255.048 311.056 254.48 311.528 254.034C312 253.589 312.601 253.285 313.256 253.162C313.91 253.039 314.589 253.102 315.206 253.343C315.822 253.585 316.349 253.993 316.72 254.517C317.091 255.042 317.289 255.658 317.289 256.288C317.288 257.133 316.932 257.944 316.3 258.541C315.667 259.139 314.809 259.475 313.914 259.476Z" fill="#4A35B1" fill-opacity="0.54"/>
<path d="M303.789 260.185L300.151 258.352C298.53 257.537 297.175 256.322 296.23 254.835C295.285 253.349 294.787 251.647 294.789 249.913V236.101H317.289V246.726H319.539V236.101C319.538 235.537 319.301 234.997 318.879 234.599C318.458 234.2 317.886 233.976 317.289 233.976H294.789C294.193 233.976 293.621 234.2 293.199 234.599C292.777 234.997 292.54 235.537 292.539 236.101V249.913C292.537 252.032 293.145 254.112 294.299 255.929C295.454 257.746 297.11 259.232 299.091 260.227L303.789 262.593V260.185Z" fill="#4A35B1" fill-opacity="0.54"/>
<g clip-path="url(#clip1_3536_7433)">
<path d="M346.359 185.886C345.658 186.294 345.113 186.922 344.814 187.666L341.861 187.707L340.926 186.086C341.482 185.447 341.797 184.641 341.814 183.81C341.831 182.979 341.549 182.177 341.019 181.545C340.488 180.913 339.742 180.493 338.913 180.357C338.085 180.222 337.226 180.381 336.49 180.806C335.754 181.232 335.187 181.895 334.889 182.681C334.592 183.466 334.584 184.322 334.866 185.098C335.147 185.873 335.701 186.518 336.429 186.919C337.158 187.32 338.013 187.451 338.845 187.288L339.78 188.908L338.27 191.447C337.476 191.333 336.659 191.491 335.954 191.893C335.3 192.265 334.774 192.826 334.449 193.497C334.124 194.169 334.017 194.917 334.142 195.639C334.267 196.361 334.619 197.021 335.147 197.527C335.676 198.034 336.356 198.361 337.093 198.464C337.831 198.567 338.588 198.441 339.261 198.102C339.934 197.764 340.489 197.231 340.849 196.577C341.208 195.922 341.356 195.179 341.27 194.451C341.184 193.722 340.869 193.044 340.368 192.51L341.829 190.054L344.686 190.016C344.9 190.708 345.329 191.312 345.913 191.744C346.497 192.176 347.208 192.416 347.948 192.429C348.687 192.442 349.419 192.229 350.041 191.819C350.664 191.408 351.147 190.821 351.424 190.138C351.701 189.455 351.758 188.71 351.587 188.005C351.416 187.3 351.025 186.671 350.469 186.205C349.913 185.738 349.219 185.457 348.483 185.4C347.747 185.343 347.005 185.512 346.359 185.886ZM338.284 195.929C338.079 196.048 337.843 196.105 337.608 196.093C337.373 196.081 337.149 196 336.964 195.861C336.778 195.722 336.641 195.531 336.568 195.312C336.495 195.094 336.49 194.857 336.554 194.631C336.618 194.406 336.748 194.203 336.928 194.048C337.107 193.892 337.328 193.791 337.562 193.758C337.796 193.725 338.033 193.76 338.243 193.86C338.454 193.96 338.627 194.12 338.742 194.319C338.897 194.587 338.935 194.907 338.85 195.209C338.764 195.511 338.56 195.77 338.284 195.929ZM337.662 182.836C337.867 182.717 338.103 182.66 338.338 182.672C338.573 182.684 338.797 182.765 338.983 182.904C339.168 183.043 339.306 183.234 339.378 183.452C339.451 183.671 339.456 183.908 339.392 184.133C339.328 184.359 339.198 184.562 339.019 184.717C338.839 184.873 338.618 184.973 338.384 185.007C338.15 185.04 337.913 185.005 337.703 184.905C337.493 184.805 337.319 184.645 337.204 184.446C337.049 184.178 337.011 183.858 337.097 183.556C337.182 183.254 337.386 182.995 337.662 182.836ZM348.689 189.922C348.484 190.041 348.248 190.098 348.013 190.085C347.778 190.073 347.554 189.993 347.368 189.854C347.183 189.715 347.046 189.524 346.973 189.305C346.9 189.086 346.895 188.849 346.959 188.624C347.023 188.399 347.153 188.196 347.333 188.04C347.512 187.885 347.733 187.784 347.967 187.751C348.201 187.717 348.438 187.753 348.648 187.853C348.858 187.953 349.032 188.113 349.147 188.312C349.302 188.58 349.34 188.9 349.254 189.201C349.169 189.503 348.965 189.762 348.689 189.922Z" fill="#4A35B1" fill-opacity="0.54"/>
<path d="M321.138 195.066C322.287 194.403 322.697 192.961 322.054 191.847C321.41 190.732 319.957 190.367 318.808 191.03C317.658 191.694 317.248 193.135 317.892 194.25C318.535 195.364 319.988 195.73 321.138 195.066Z" fill="#4A35B1" fill-opacity="0.54"/>
<path d="M327.257 188.843C326.434 189.318 325.492 189.546 324.552 189.498C323.611 189.45 322.714 189.127 321.973 188.572C321.232 188.016 320.681 187.252 320.39 186.377C320.099 185.501 320.08 184.553 320.336 183.653C320.592 182.752 321.112 181.94 321.829 181.318C322.547 180.696 323.43 180.293 324.367 180.159C325.303 180.025 326.252 180.167 327.093 180.567C327.933 180.967 328.628 181.606 329.089 182.404C329.703 183.476 329.855 184.754 329.512 185.96C329.168 187.167 328.358 188.203 327.257 188.843ZM323.762 182.789C323.35 183.027 323.016 183.378 322.802 183.797C322.588 184.216 322.503 184.685 322.558 185.145C322.614 185.605 322.807 186.034 323.113 186.379C323.419 186.724 323.825 186.969 324.279 187.084C324.733 187.198 325.215 187.176 325.663 187.021C326.112 186.866 326.507 186.584 326.799 186.212C327.091 185.84 327.267 185.393 327.304 184.929C327.341 184.466 327.238 184.005 327.008 183.606C326.697 183.072 326.182 182.687 325.573 182.534C324.965 182.381 324.314 182.473 323.762 182.789Z" fill="#4A35B1" fill-opacity="0.54"/>
<path d="M331.045 178.584C332.194 177.921 332.604 176.479 331.961 175.365C331.317 174.25 329.864 173.885 328.715 174.548C327.565 175.212 327.155 176.653 327.799 177.768C328.442 178.882 329.896 179.248 331.045 178.584Z" fill="#4A35B1" fill-opacity="0.54"/>
<path d="M331.055 197.777L317.225 197.9L309.738 184.932L317.446 171.85L333.314 171.71L333.356 169.361L316.792 169.507C316.581 169.509 316.373 169.566 316.188 169.672C316.004 169.779 315.851 169.931 315.743 170.113L307.335 184.384C307.229 184.564 307.173 184.766 307.17 184.972C307.168 185.177 307.221 185.378 307.322 185.554L315.478 199.679C315.58 199.856 315.727 200.002 315.906 200.102C316.085 200.203 316.289 200.255 316.497 200.253L331.014 200.126L331.055 197.777Z" fill="#4A35B1" fill-opacity="0.54"/>
</g>
<path d="M47.75 215.5V213.375H45.3864C45.2413 212.71 44.9617 212.077 44.5629 211.512L46.2391 209.929L44.6484 208.427L42.9721 210.01C42.3738 209.633 41.7042 209.369 41 209.232V207H38.75V209.232C38.0458 209.369 37.3762 209.633 36.7779 210.01L35.1016 208.427L33.5109 209.929L35.1871 211.512C34.7883 212.077 34.5087 212.71 34.3636 213.375H32V215.5H34.3636C34.5087 216.165 34.7883 216.798 35.1871 217.363L33.5109 218.946L35.1016 220.448L36.7779 218.865C37.3762 219.242 38.0458 219.506 38.75 219.643V221.875H41V219.643C41.7042 219.506 42.3738 219.242 42.9721 218.865L44.6484 220.448L46.2391 218.946L44.5629 217.363C44.9617 216.798 45.2413 216.165 45.3864 215.5H47.75ZM39.875 217.625C39.2075 217.625 38.555 217.438 38 217.088C37.4449 216.738 37.0124 216.24 36.7569 215.657C36.5015 215.075 36.4346 214.434 36.5648 213.816C36.6951 213.197 37.0165 212.629 37.4885 212.184C37.9605 211.738 38.5619 211.434 39.2166 211.311C39.8713 211.188 40.5499 211.251 41.1666 211.493C41.7833 211.734 42.3104 212.142 42.6812 212.667C43.0521 213.191 43.25 213.807 43.25 214.438C43.2491 215.283 42.8932 216.093 42.2605 216.69C41.6278 217.288 40.7698 217.624 39.875 217.625Z" fill="#4A35B1" fill-opacity="0.54"/>
<path d="M29.75 218.334L26.1118 216.501C24.491 215.687 23.1356 214.471 22.191 212.984C21.2464 211.498 20.7483 209.796 20.75 208.062V194.25H43.25V204.875H45.5V194.25C45.4994 193.687 45.2622 193.146 44.8403 192.748C44.4185 192.35 43.8466 192.126 43.25 192.125H20.75C20.1535 192.126 19.5815 192.35 19.1597 192.748C18.7378 193.146 18.5006 193.687 18.5 194.25V208.062C18.4975 210.181 19.1061 212.261 20.2604 214.078C21.4147 215.895 23.0712 217.381 25.052 218.376L29.75 220.742V218.334Z" fill="#4A35B1" fill-opacity="0.54"/>
<path d="M364.75 45.167L361.112 43.2803C359.491 42.4422 358.136 41.1908 357.191 39.6604C356.246 38.13 355.748 36.3785 355.75 34.5938V20.375H378.25V31.3125H380.5V20.375C380.499 19.795 380.262 19.239 379.84 18.8288C379.419 18.4187 378.847 18.1881 378.25 18.1875H355.75C355.153 18.1881 354.582 18.4187 354.16 18.8288C353.738 19.239 353.501 19.795 353.5 20.375V34.5938C353.498 36.7751 354.106 38.9159 355.26 40.7864C356.415 42.6568 358.071 44.1864 360.052 45.2108L364.75 47.6466V45.167Z" fill="#4A35B1" fill-opacity="0.54"/>
<g clip-path="url(#clip2_3536_7433)">
<path d="M128.719 44.4375C127.98 44.4405 127.265 44.6951 126.69 45.1594L124.344 43.8065V42.0499C125.074 41.7919 125.689 41.2842 126.081 40.6166C126.472 39.9489 126.615 39.1643 126.484 38.4014C126.353 37.6385 125.957 36.9465 125.365 36.4476C124.773 35.9487 124.024 35.675 123.25 35.675C122.476 35.675 121.727 35.9487 121.135 36.4476C120.544 36.9465 120.147 37.6385 120.016 38.4014C119.885 39.1643 120.028 39.9489 120.42 40.6166C120.812 41.2842 121.427 41.7919 122.157 42.0499V43.8065L119.81 45.1616C119.236 44.6965 118.521 44.4411 117.782 44.4375C117.096 44.4329 116.426 44.6417 115.864 45.035C115.303 45.4283 114.877 45.9866 114.647 46.6325C114.417 47.2784 114.394 47.9798 114.581 48.6395C114.767 49.2993 115.155 49.8846 115.689 50.3143C116.223 50.7441 116.878 50.9969 117.562 51.0378C118.246 51.0788 118.927 50.9057 119.508 50.5427C120.09 50.1796 120.544 49.6446 120.808 49.0118C121.072 48.379 121.132 47.6798 120.981 47.0111L123.25 45.6997L125.52 47.01C125.374 47.6731 125.437 48.3652 125.701 48.9909C125.964 49.6165 126.416 50.1448 126.993 50.5028C127.57 50.8609 128.244 51.0309 128.922 50.9896C129.599 50.9482 130.247 50.6975 130.777 50.272C131.306 49.8465 131.69 49.2672 131.876 48.6141C132.062 47.9611 132.04 47.2664 131.814 46.626C131.588 45.9857 131.169 45.4312 130.615 45.0392C130.06 44.6472 129.398 44.437 128.719 44.4375ZM117.782 48.8125C117.565 48.8125 117.354 48.7484 117.174 48.6282C116.994 48.508 116.854 48.3372 116.771 48.1374C116.688 47.9375 116.667 47.7176 116.709 47.5054C116.751 47.2933 116.855 47.0984 117.008 46.9454C117.161 46.7924 117.356 46.6883 117.568 46.6461C117.78 46.6039 118 46.6255 118.2 46.7083C118.4 46.7911 118.571 46.9313 118.691 47.1111C118.811 47.291 118.875 47.5025 118.875 47.7188C118.875 48.0089 118.76 48.2871 118.555 48.4922C118.35 48.6973 118.072 48.8125 117.782 48.8125ZM123.25 37.875C123.467 37.875 123.678 37.9392 123.858 38.0594C124.038 38.1796 124.178 38.3504 124.261 38.5502C124.344 38.7501 124.365 38.97 124.323 39.1822C124.281 39.3943 124.177 39.5892 124.024 39.7422C123.871 39.8952 123.676 39.9993 123.464 40.0415C123.251 40.0837 123.032 40.0621 122.832 39.9793C122.632 39.8965 122.461 39.7563 122.341 39.5765C122.221 39.3966 122.157 39.1851 122.157 38.9688C122.157 38.6787 122.272 38.4005 122.477 38.1954C122.682 37.9903 122.96 37.875 123.25 37.875ZM128.719 48.8125C128.503 48.8125 128.291 48.7484 128.111 48.6282C127.932 48.508 127.791 48.3372 127.709 48.1374C127.626 47.9375 127.604 47.7176 127.646 47.5054C127.688 47.2933 127.793 47.0984 127.946 46.9454C128.099 46.7924 128.293 46.6883 128.506 46.6461C128.718 46.6039 128.938 46.6255 129.138 46.7083C129.337 46.7911 129.508 46.9313 129.628 47.1111C129.749 47.291 129.813 47.5025 129.813 47.7188C129.813 48.0089 129.698 48.2871 129.492 48.4922C129.287 48.6973 129.009 48.8125 128.719 48.8125Z" fill="#4A35B1" fill-opacity="0.54"/>
<path d="M104.656 40.0625C105.864 40.0625 106.844 39.0831 106.844 37.875C106.844 36.6669 105.864 35.6875 104.656 35.6875C103.448 35.6875 102.469 36.6669 102.469 37.875C102.469 39.0831 103.448 40.0625 104.656 40.0625Z" fill="#4A35B1" fill-opacity="0.54"/>
<path d="M112.313 37.875C111.447 37.875 110.601 37.6184 109.882 37.1377C109.162 36.657 108.602 35.9737 108.271 35.1742C107.939 34.3748 107.853 33.4951 108.022 32.6465C108.19 31.7978 108.607 31.0183 109.219 30.4064C109.831 29.7946 110.61 29.3779 111.459 29.2091C112.308 29.0403 113.187 29.1269 113.987 29.458C114.786 29.7892 115.469 30.3499 115.95 31.0694C116.431 31.7888 116.688 32.6347 116.688 33.5C116.684 34.6593 116.222 35.77 115.402 36.5898C114.583 37.4095 113.472 37.8715 112.313 37.875ZM112.313 31.3125C111.88 31.3125 111.457 31.4408 111.097 31.6812C110.737 31.9215 110.457 32.2632 110.292 32.6629C110.126 33.0626 110.083 33.5024 110.167 33.9268C110.251 34.3511 110.46 34.7409 110.766 35.0468C111.072 35.3527 111.461 35.5611 111.886 35.6455C112.31 35.7299 112.75 35.6866 113.15 35.521C113.549 35.3554 113.891 35.075 114.131 34.7153C114.372 34.3556 114.5 33.9326 114.5 33.5C114.498 32.9204 114.267 32.365 113.857 31.9551C113.448 31.5453 112.892 31.3142 112.313 31.3125Z" fill="#4A35B1" fill-opacity="0.54"/>
<path d="M119.969 31.3125C121.177 31.3125 122.156 30.3331 122.156 29.125C122.156 27.9169 121.177 26.9375 119.969 26.9375C118.761 26.9375 117.781 27.9169 117.781 29.125C117.781 30.3331 118.761 31.3125 119.969 31.3125Z" fill="#4A35B1" fill-opacity="0.54"/>
<path d="M111.241 46.9215L100.281 40.5296V26.4716L112.312 19.4541L124.886 26.7888L125.989 24.8988L112.864 17.2426C112.696 17.145 112.506 17.0935 112.312 17.0935C112.119 17.0935 111.929 17.145 111.761 17.2426L98.6363 24.8988C98.4711 24.9952 98.3341 25.1332 98.2389 25.299C98.1438 25.4648 98.0937 25.6526 98.0938 25.8438V41.1563C98.0937 41.3475 98.1438 41.5354 98.2389 41.7012C98.3341 41.867 98.4711 42.005 98.6363 42.1013L110.139 48.8126L111.241 46.9215Z" fill="#4A35B1" fill-opacity="0.54"/>
</g>
<g clip-path="url(#clip3_3536_7433)">
<path d="M232.462 66.2418C232.013 65.985 231.493 65.8842 230.987 65.956L230.024 64.3395L230.62 63.3069C231.15 63.4106 231.695 63.3274 232.159 63.072C232.623 62.8166 232.976 62.4055 233.156 61.9112C233.335 61.4169 233.33 60.8713 233.14 60.3709C232.951 59.8705 232.59 59.4474 232.12 59.1765C231.651 58.9056 231.104 58.8042 230.576 58.8904C230.048 58.9765 229.573 59.2446 229.235 59.6473C228.896 60.05 228.717 60.5612 228.727 61.0908C228.738 61.6204 228.939 62.1341 229.294 62.5412L228.698 63.5738L226.815 63.5493C226.625 63.0749 226.278 62.6743 225.831 62.4135C225.417 62.1708 224.94 62.0591 224.466 62.0937C223.992 62.1284 223.545 62.3077 223.186 62.6069C222.827 62.9061 222.575 63.3103 222.464 63.7634C222.354 64.2166 222.39 64.6962 222.568 65.1358C222.746 65.5754 223.057 65.9532 223.458 66.2168C223.859 66.4804 224.33 66.6167 224.806 66.6069C225.282 66.597 225.738 66.4415 226.113 66.1619C226.488 65.8822 226.762 65.4923 226.897 65.0462L228.718 65.0697L229.649 66.6343C229.335 66.9729 229.139 67.4019 229.086 67.862C229.034 68.3222 229.129 68.7908 229.357 69.2032C229.585 69.6156 229.936 69.9515 230.361 70.1644C230.786 70.3773 231.264 70.4568 231.729 70.3919C232.194 70.3269 232.624 70.1208 232.958 69.8019C233.292 69.4831 233.515 69.0672 233.595 68.6117C233.676 68.1562 233.61 67.6836 233.407 67.2591C233.204 66.8346 232.874 66.4791 232.462 66.2418ZM224.346 64.9855C224.215 64.9097 224.109 64.798 224.04 64.6644C223.972 64.5308 223.945 64.3813 223.963 64.2348C223.98 64.0884 224.042 63.9515 224.139 63.8416C224.237 63.7316 224.366 63.6535 224.511 63.6171C224.656 63.5807 224.809 63.5877 224.952 63.6372C225.095 63.6866 225.221 63.7763 225.314 63.8949C225.407 64.0136 225.463 64.1558 225.475 64.3036C225.487 64.4514 225.454 64.5981 225.38 64.7253C225.282 64.8958 225.118 65.019 224.924 65.0678C224.73 65.1166 224.522 65.087 224.346 64.9855ZM231.374 60.4698C231.505 60.5455 231.611 60.6572 231.68 60.7908C231.748 60.9244 231.775 61.0739 231.757 61.2204C231.74 61.3669 231.678 61.5037 231.58 61.6137C231.483 61.7236 231.354 61.8017 231.209 61.8381C231.064 61.8745 230.911 61.8675 230.768 61.8181C230.625 61.7686 230.499 61.6789 230.406 61.5603C230.313 61.4417 230.257 61.2995 230.245 61.1517C230.233 61.0039 230.266 60.8571 230.339 60.7299C230.438 60.5594 230.602 60.4362 230.796 60.3874C230.99 60.3386 231.198 60.3682 231.374 60.4698ZM230.977 68.8137C230.846 68.738 230.739 68.6263 230.671 68.4927C230.603 68.3591 230.576 68.2096 230.593 68.0631C230.611 67.9166 230.673 67.7798 230.77 67.6698C230.868 67.5599 230.997 67.4818 231.142 67.4454C231.286 67.409 231.44 67.416 231.583 67.4654C231.726 67.5149 231.852 67.6046 231.945 67.7232C232.038 67.8418 232.094 67.984 232.106 68.1318C232.117 68.2796 232.085 68.4264 232.011 68.5536C231.913 68.7241 231.748 68.8473 231.554 68.8961C231.361 68.9449 231.153 68.9152 230.977 68.8137Z" fill="#4A35B1" fill-opacity="0.54"/>
<path d="M219.36 55.2477C220.092 55.6706 221.018 55.4376 221.428 54.7274C221.838 54.0172 221.577 53.0987 220.845 52.6758C220.112 52.2529 219.186 52.4859 218.776 53.1961C218.366 53.9063 218.627 54.8249 219.36 55.2477Z" fill="#4A35B1" fill-opacity="0.54"/>
<path d="M224.743 56.6415C224.218 56.3386 223.793 55.8917 223.52 55.3573C223.247 54.8228 223.139 54.2249 223.209 53.639C223.28 53.0532 223.526 52.5057 223.916 52.0659C224.307 51.6261 224.824 51.3136 225.402 51.1681C225.981 51.0226 226.595 51.0505 227.167 51.2483C227.739 51.4461 228.243 51.8049 228.615 52.2794C228.987 52.7539 229.211 53.3227 229.258 53.9139C229.305 54.5051 229.174 55.0922 228.88 55.6008C228.485 56.2811 227.828 56.7724 227.052 56.9674C226.277 57.1623 225.447 57.0452 224.743 56.6415ZM226.97 52.7836C226.708 52.6321 226.408 52.5595 226.108 52.5749C225.809 52.5903 225.523 52.693 225.287 52.87C225.051 53.0471 224.875 53.2905 224.782 53.5695C224.69 53.8485 224.684 54.1505 224.765 54.4374C224.847 54.7244 225.012 54.9833 225.241 55.1814C225.47 55.3796 225.751 55.508 226.05 55.5506C226.348 55.5932 226.65 55.5479 226.918 55.4206C227.186 55.2932 227.407 55.0895 227.554 54.8352C227.75 54.4938 227.798 54.0865 227.689 53.7021C227.579 53.3177 227.321 52.9875 226.97 52.7836Z" fill="#4A35B1" fill-opacity="0.54"/>
<path d="M231.612 55.4633C232.344 55.8862 233.27 55.6532 233.68 54.943C234.09 54.2328 233.829 53.3142 233.097 52.8914C232.364 52.4685 231.438 52.7015 231.028 53.4117C230.618 54.1219 230.879 55.0404 231.612 55.4633Z" fill="#4A35B1" fill-opacity="0.54"/>
<path d="M221.023 61.5845L216.549 53.991L221.32 45.7268L230.995 45.8125L236.129 54.5253L237.439 53.8001L232.08 44.7053C232.012 44.5894 231.914 44.4925 231.797 44.4247C231.679 44.3569 231.546 44.3206 231.412 44.3194L220.856 44.2264C220.724 44.2252 220.594 44.2584 220.48 44.3225C220.366 44.3867 220.272 44.4796 220.207 44.592L215.01 53.5938C214.945 53.7061 214.911 53.8341 214.913 53.9649C214.914 54.0957 214.95 54.2247 215.018 54.3392L219.714 62.3107L221.023 61.5845Z" fill="#4A35B1" fill-opacity="0.54"/>
</g>
<g clip-path="url(#clip4_3536_7433)">
<path d="M51.996 100.336C51.2948 100.745 50.7496 101.373 50.4504 102.116L47.4979 102.157L46.5624 100.536C47.1192 99.8977 47.4339 99.0915 47.4509 98.2605C47.4679 97.4296 47.1861 96.6272 46.6553 95.9954C46.1245 95.3635 45.3788 94.9428 44.5501 94.8076C43.7214 94.6724 42.8631 94.8314 42.1267 95.2566C41.3904 95.6817 40.8235 96.3456 40.5262 97.1308C40.229 97.9161 40.2205 98.7722 40.5023 99.5478C40.784 100.323 41.338 100.969 42.0661 101.369C42.7943 101.77 43.6498 101.901 44.4814 101.738L45.417 103.358L43.9069 105.897C43.1128 105.783 42.296 105.941 41.5911 106.343C40.9364 106.716 40.4102 107.276 40.0855 107.948C39.7607 108.619 39.6535 109.367 39.7787 110.09C39.9039 110.812 40.2553 111.472 40.7841 111.978C41.313 112.484 41.9931 112.811 42.7302 112.914C43.4672 113.017 44.2247 112.891 44.8976 112.553C45.5704 112.214 46.1253 111.681 46.4852 111.027C46.8452 110.373 46.9923 109.63 46.9063 108.901C46.8203 108.172 46.5054 107.494 46.0052 106.96L47.4658 104.504L50.3227 104.466C50.5366 105.158 50.9653 105.762 51.5495 106.194C52.1338 106.627 52.8447 106.866 53.5843 106.879C54.3238 106.893 55.0555 106.679 55.6782 106.269C56.3009 105.859 56.784 105.271 57.0608 104.588C57.3376 103.905 57.3944 103.16 57.2233 102.455C57.0523 101.751 56.6619 101.122 56.106 100.655C55.5502 100.188 54.8562 99.907 54.12 99.8499C53.3838 99.7928 52.6416 99.9627 51.996 100.336ZM43.9212 110.379C43.7154 110.498 43.4801 110.555 43.245 110.543C43.0099 110.531 42.7855 110.45 42.6003 110.311C42.4151 110.172 42.2774 109.982 42.2045 109.763C42.1317 109.544 42.127 109.307 42.191 109.082C42.2551 108.856 42.385 108.653 42.5644 108.498C42.7437 108.342 42.9645 108.242 43.1987 108.208C43.4329 108.175 43.6701 108.21 43.8802 108.31C44.0903 108.41 44.264 108.57 44.3792 108.77C44.5337 109.037 44.5722 109.357 44.4863 109.659C44.4004 109.961 44.1972 110.22 43.9212 110.379ZM43.2984 97.286C43.5042 97.1672 43.7395 97.1102 43.9747 97.1223C44.2098 97.1344 44.4341 97.215 44.6193 97.3539C44.8045 97.4928 44.9422 97.6837 45.0151 97.9026C45.0879 98.1215 45.0926 98.3585 45.0286 98.5836C44.9645 98.8088 44.8346 99.0119 44.6553 99.1674C44.4759 99.3228 44.2552 99.4236 44.0209 99.457C43.7867 99.4904 43.5496 99.4549 43.3394 99.355C43.1293 99.2551 42.9557 99.0953 42.8405 98.8957C42.686 98.6281 42.6474 98.3082 42.7333 98.0063C42.8192 97.7044 43.0225 97.4453 43.2984 97.286ZM54.3261 104.372C54.1203 104.491 53.885 104.548 53.6498 104.536C53.4147 104.524 53.1904 104.443 53.0052 104.304C52.82 104.165 52.6823 103.974 52.6094 103.755C52.5366 103.536 52.5319 103.299 52.5959 103.074C52.66 102.849 52.7899 102.646 52.9692 102.491C53.1486 102.335 53.3693 102.234 53.6036 102.201C53.8378 102.168 54.0749 102.203 54.2851 102.303C54.4952 102.403 54.6688 102.563 54.784 102.762C54.9385 103.03 54.9771 103.35 54.8912 103.652C54.8053 103.954 54.602 104.213 54.3261 104.372Z" fill="#4A35B1" fill-opacity="0.54"/>
<path d="M26.7743 109.516C27.9236 108.853 28.3337 107.411 27.6903 106.297C27.0468 105.182 25.5935 104.817 24.4443 105.48C23.295 106.144 22.8849 107.585 23.5283 108.7C24.1718 109.814 25.6251 110.18 26.7743 109.516Z" fill="#4A35B1" fill-opacity="0.54"/>
<path d="M32.8934 103.293C32.0703 103.769 31.1289 103.996 30.1885 103.948C29.248 103.9 28.3507 103.577 27.6099 103.022C26.8691 102.466 26.3182 101.702 26.0268 100.827C25.7354 99.9512 25.7166 99.0033 25.9728 98.1028C26.229 97.2023 26.7486 96.3898 27.4661 95.7679C28.1835 95.1461 29.0665 94.7429 30.0033 94.6093C30.9402 94.4757 31.8888 94.6177 32.7293 95.0173C33.5698 95.417 34.2644 96.0563 34.7253 96.8545C35.3394 97.9258 35.4915 99.2043 35.1482 100.411C34.805 101.617 33.9944 102.653 32.8934 103.293ZM29.3983 97.2395C28.9867 97.4771 28.6527 97.8278 28.4385 98.2471C28.2243 98.6664 28.1395 99.1356 28.1949 99.5952C28.2503 100.055 28.4433 100.484 28.7496 100.829C29.0559 101.175 29.4617 101.42 29.9157 101.534C30.3696 101.648 30.8514 101.626 31.3 101.471C31.7486 101.316 32.144 101.034 32.4361 100.662C32.7281 100.29 32.9038 99.8434 32.9409 99.3796C32.9779 98.9157 32.8747 98.4551 32.6443 98.056C32.334 97.5222 31.8184 97.1368 31.2102 96.9838C30.602 96.8308 29.9506 96.9228 29.3983 97.2395Z" fill="#4A35B1" fill-opacity="0.54"/>
<path d="M36.6816 93.0343C37.8309 92.3708 38.2409 90.9294 37.5975 89.815C36.9541 88.7005 35.5008 88.335 34.3515 88.9985C33.2022 89.662 32.7921 91.1034 33.4356 92.2179C34.079 93.3323 35.5323 93.6979 36.6816 93.0343Z" fill="#4A35B1" fill-opacity="0.54"/>
<path d="M36.6916 112.227L22.8617 112.35L15.3745 99.3818L23.0824 86.3003L38.9503 86.1605L38.9925 83.8114L22.429 83.9574C22.2178 83.9593 22.0094 84.0163 21.8252 84.1227C21.6409 84.2291 21.4873 84.381 21.3802 84.563L12.972 98.8344C12.8662 99.014 12.8094 99.2165 12.8071 99.4217C12.8049 99.627 12.8573 99.8278 12.9592 100.004L21.1145 114.13C21.2163 114.306 21.3639 114.452 21.5428 114.552C21.7217 114.653 21.9255 114.705 22.1339 114.703L36.651 114.576L36.6916 112.227Z" fill="#4A35B1" fill-opacity="0.54"/>
</g>
<g clip-path="url(#clip5_3536_7433)">
<path d="M107.358 282.926C106.909 282.669 106.389 282.568 105.883 282.64L104.92 281.024L105.516 279.991C106.046 280.095 106.592 280.012 107.056 279.756C107.52 279.501 107.873 279.09 108.052 278.595C108.232 278.101 108.226 277.555 108.037 277.055C107.847 276.555 107.486 276.131 107.017 275.861C106.548 275.59 106.001 275.488 105.473 275.574C104.944 275.661 104.469 275.929 104.131 276.331C103.793 276.734 103.613 277.245 103.624 277.775C103.635 278.304 103.835 278.818 104.19 279.225L103.594 280.258L101.712 280.233C101.522 279.759 101.174 279.358 100.728 279.098C100.313 278.855 99.8364 278.743 99.3625 278.778C98.8885 278.812 98.4412 278.992 98.0826 279.291C97.7239 279.59 97.4717 279.994 97.3609 280.448C97.2501 280.901 97.2862 281.38 97.4642 281.82C97.6422 282.259 97.9533 282.637 98.3543 282.901C98.7553 283.164 99.2264 283.301 99.7022 283.291C100.178 283.281 100.635 283.126 101.01 282.846C101.384 282.566 101.658 282.176 101.794 281.73L103.615 281.754L104.546 283.318C104.232 283.657 104.035 284.086 103.983 284.546C103.931 285.006 104.025 285.475 104.253 285.887C104.482 286.3 104.832 286.636 105.257 286.848C105.682 287.061 106.16 287.141 106.625 287.076C107.091 287.011 107.52 286.805 107.854 286.486C108.189 286.167 108.411 285.751 108.492 285.296C108.572 284.84 108.506 284.368 108.303 283.943C108.1 283.519 107.77 283.163 107.358 282.926ZM99.2426 281.67C99.1115 281.594 99.0051 281.482 98.9368 281.348C98.8686 281.215 98.8416 281.065 98.8592 280.919C98.8768 280.772 98.9384 280.636 99.036 280.526C99.1336 280.416 99.2628 280.338 99.4075 280.301C99.5521 280.265 99.7056 280.272 99.8486 280.321C99.9915 280.371 100.118 280.46 100.211 280.579C100.304 280.698 100.36 280.84 100.371 280.988C100.383 281.135 100.35 281.282 100.277 281.409C100.178 281.58 100.014 281.703 99.8202 281.752C99.6263 281.801 99.4185 281.771 99.2426 281.67ZM106.27 277.154C106.401 277.23 106.508 277.341 106.576 277.475C106.644 277.609 106.671 277.758 106.654 277.904C106.636 278.051 106.575 278.188 106.477 278.298C106.379 278.408 106.25 278.486 106.105 278.522C105.961 278.559 105.807 278.552 105.664 278.502C105.521 278.453 105.395 278.363 105.302 278.244C105.209 278.126 105.153 277.984 105.141 277.836C105.13 277.688 105.163 277.541 105.236 277.414C105.334 277.243 105.499 277.12 105.693 277.071C105.887 277.023 106.094 277.052 106.27 277.154ZM105.873 285.498C105.742 285.422 105.636 285.31 105.568 285.177C105.499 285.043 105.472 284.894 105.49 284.747C105.508 284.601 105.569 284.464 105.667 284.354C105.764 284.244 105.894 284.166 106.038 284.129C106.183 284.093 106.336 284.1 106.479 284.149C106.622 284.199 106.748 284.289 106.841 284.407C106.934 284.526 106.99 284.668 107.002 284.816C107.014 284.964 106.981 285.11 106.908 285.238C106.809 285.408 106.645 285.531 106.451 285.58C106.257 285.629 106.049 285.599 105.873 285.498Z" fill="#4A35B1" fill-opacity="0.54"/>
<path d="M94.2563 271.932C94.9887 272.355 95.9148 272.122 96.3249 271.412C96.7349 270.701 96.4736 269.783 95.7412 269.36C95.0088 268.937 94.0826 269.17 93.6726 269.88C93.2625 270.59 93.5239 271.509 94.2563 271.932Z" fill="#4A35B1" fill-opacity="0.54"/>
<path d="M99.6395 273.326C99.115 273.023 98.6892 272.576 98.4162 272.041C98.1432 271.507 98.0352 270.909 98.1058 270.323C98.1764 269.737 98.4224 269.19 98.8128 268.75C99.2032 268.31 99.7204 267.998 100.299 267.852C100.878 267.707 101.492 267.735 102.063 267.932C102.635 268.13 103.139 268.489 103.511 268.963C103.884 269.438 104.107 270.007 104.155 270.598C104.202 271.189 104.07 271.776 103.777 272.285C103.381 272.965 102.724 273.456 101.949 273.651C101.174 273.846 100.343 273.729 99.6395 273.326ZM101.867 269.468C101.605 269.316 101.305 269.244 101.005 269.259C100.705 269.274 100.419 269.377 100.183 269.554C99.9473 269.731 99.7718 269.975 99.6789 270.254C99.5861 270.533 99.5801 270.835 99.6617 271.122C99.7433 271.408 99.9089 271.667 100.138 271.865C100.366 272.064 100.647 272.192 100.946 272.235C101.245 272.277 101.547 272.232 101.815 272.105C102.082 271.977 102.304 271.774 102.451 271.519C102.646 271.178 102.695 270.771 102.585 270.386C102.476 270.002 102.218 269.672 101.867 269.468Z" fill="#4A35B1" fill-opacity="0.54"/>
<path d="M106.508 272.147C107.241 272.57 108.167 272.337 108.577 271.627C108.987 270.917 108.726 269.998 107.993 269.575C107.261 269.153 106.335 269.386 105.925 270.096C105.514 270.806 105.776 271.725 106.508 272.147Z" fill="#4A35B1" fill-opacity="0.54"/>
<path d="M95.9196 278.269L91.445 270.675L96.2164 262.411L105.892 262.497L111.025 271.209L112.335 270.484L106.977 261.389C106.908 261.273 106.811 261.177 106.693 261.109C106.576 261.041 106.443 261.005 106.308 261.004L95.753 260.91C95.6201 260.909 95.4903 260.942 95.3763 261.007C95.2623 261.071 95.1682 261.164 95.1033 261.276L89.9062 270.278C89.8413 270.39 89.8078 270.518 89.8093 270.649C89.8107 270.78 89.8469 270.909 89.9143 271.023L94.61 278.995L95.9196 278.269Z" fill="#4A35B1" fill-opacity="0.54"/>
</g>
<g clip-path="url(#clip6_3536_7433)">
<path d="M362.744 278.63C362.295 278.373 361.775 278.272 361.269 278.344L360.306 276.727L360.902 275.695C361.432 275.799 361.977 275.715 362.441 275.46C362.905 275.205 363.258 274.793 363.438 274.299C363.617 273.805 363.612 273.259 363.423 272.759C363.233 272.258 362.872 271.835 362.403 271.564C361.933 271.293 361.386 271.192 360.858 271.278C360.33 271.364 359.855 271.633 359.517 272.035C359.178 272.438 358.999 272.949 359.01 273.479C359.021 274.008 359.221 274.522 359.576 274.929L358.98 275.962L357.098 275.937C356.907 275.463 356.56 275.062 356.113 274.801C355.699 274.559 355.222 274.447 354.748 274.482C354.274 274.516 353.827 274.696 353.468 274.995C353.11 275.294 352.857 275.698 352.747 276.151C352.636 276.605 352.672 277.084 352.85 277.524C353.028 277.963 353.339 278.341 353.74 278.605C354.141 278.868 354.612 279.005 355.088 278.995C355.564 278.985 356.021 278.829 356.395 278.55C356.77 278.27 357.044 277.88 357.179 277.434L359 277.458L359.931 279.022C359.618 279.361 359.421 279.79 359.369 280.25C359.316 280.71 359.411 281.179 359.639 281.591C359.867 282.004 360.218 282.339 360.643 282.552C361.068 282.765 361.546 282.845 362.011 282.78C362.476 282.715 362.906 282.509 363.24 282.19C363.574 281.871 363.797 281.455 363.878 281C363.958 280.544 363.892 280.072 363.689 279.647C363.486 279.222 363.156 278.867 362.744 278.63ZM354.628 277.373C354.497 277.298 354.391 277.186 354.323 277.052C354.254 276.919 354.227 276.769 354.245 276.623C354.263 276.476 354.324 276.339 354.422 276.23C354.519 276.12 354.649 276.041 354.793 276.005C354.938 275.969 355.091 275.976 355.234 276.025C355.377 276.075 355.503 276.164 355.596 276.283C355.689 276.401 355.745 276.544 355.757 276.692C355.769 276.839 355.736 276.986 355.663 277.113C355.564 277.284 355.4 277.407 355.206 277.456C355.012 277.505 354.804 277.475 354.628 277.373ZM361.656 272.858C361.787 272.933 361.894 273.045 361.962 273.179C362.03 273.312 362.057 273.462 362.039 273.608C362.022 273.755 361.96 273.892 361.863 274.002C361.765 274.112 361.636 274.19 361.491 274.226C361.346 274.262 361.193 274.255 361.05 274.206C360.907 274.157 360.781 274.067 360.688 273.948C360.595 273.83 360.539 273.687 360.527 273.54C360.515 273.392 360.548 273.245 360.622 273.118C360.72 272.947 360.884 272.824 361.078 272.775C361.272 272.727 361.48 272.756 361.656 272.858ZM361.259 281.202C361.128 281.126 361.022 281.014 360.953 280.881C360.885 280.747 360.858 280.598 360.876 280.451C360.893 280.305 360.955 280.168 361.052 280.058C361.15 279.948 361.279 279.87 361.424 279.833C361.569 279.797 361.722 279.804 361.865 279.853C362.008 279.903 362.134 279.993 362.227 280.111C362.32 280.23 362.376 280.372 362.388 280.52C362.4 280.668 362.367 280.814 362.293 280.941C362.195 281.112 362.031 281.235 361.837 281.284C361.643 281.333 361.435 281.303 361.259 281.202Z" fill="#4A35B1" fill-opacity="0.54"/>
<path d="M349.642 267.636C350.374 268.059 351.301 267.826 351.711 267.115C352.121 266.405 351.859 265.487 351.127 265.064C350.395 264.641 349.468 264.874 349.058 265.584C348.648 266.294 348.91 267.213 349.642 267.636Z" fill="#4A35B1" fill-opacity="0.54"/>
<path d="M355.025 269.029C354.501 268.727 354.075 268.28 353.802 267.745C353.529 267.211 353.421 266.613 353.492 266.027C353.562 265.441 353.808 264.894 354.199 264.454C354.589 264.014 355.106 263.702 355.685 263.556C356.263 263.411 356.877 263.438 357.449 263.636C358.021 263.834 358.525 264.193 358.897 264.667C359.269 265.142 359.493 265.711 359.54 266.302C359.588 266.893 359.456 267.48 359.162 267.989C358.767 268.669 358.11 269.16 357.335 269.355C356.559 269.55 355.729 269.433 355.025 269.029ZM357.253 265.172C356.99 265.02 356.69 264.947 356.391 264.963C356.091 264.978 355.805 265.081 355.569 265.258C355.333 265.435 355.158 265.678 355.065 265.957C354.972 266.236 354.966 266.538 355.047 266.825C355.129 267.112 355.295 267.371 355.523 267.569C355.752 267.767 356.033 267.896 356.332 267.939C356.63 267.981 356.933 267.936 357.2 267.809C357.468 267.681 357.689 267.477 357.836 267.223C358.032 266.882 358.08 266.474 357.971 266.09C357.862 265.706 357.603 265.375 357.253 265.172Z" fill="#4A35B1" fill-opacity="0.54"/>
<path d="M351.305 273.972L346.831 266.379L351.602 258.115L361.278 258.2L366.411 266.913L367.721 266.188L362.363 257.093C362.294 256.977 362.196 256.88 362.079 256.813C361.962 256.745 361.829 256.709 361.694 256.707L351.139 256.614C351.006 256.613 350.876 256.646 350.762 256.71C350.648 256.775 350.554 256.868 350.489 256.98L345.292 265.982C345.227 266.094 345.194 266.222 345.195 266.353C345.196 266.484 345.233 266.613 345.3 266.727L349.996 274.699L351.305 273.972Z" fill="#4A35B1" fill-opacity="0.54"/>
</g>
<g clip-path="url(#clip7_3536_7433)">
<path d="M333.802 79.4353C333.394 79.095 332.876 78.9125 332.332 78.9176L331.708 77.0417L332.572 76.0161C333.1 76.2033 333.687 76.1916 334.231 75.9831C334.774 75.7745 335.239 75.3827 335.542 74.8767C335.845 74.3707 335.968 73.7831 335.888 73.2179C335.808 72.6527 335.531 72.1462 335.106 71.7879C334.681 71.4296 334.134 71.2427 333.564 71.26C332.993 71.2774 332.435 71.498 331.988 71.8828C331.541 72.2676 331.234 72.7919 331.12 73.363C331.007 73.9341 331.096 74.5152 331.37 75.0036L330.506 76.0292L328.55 75.7344C328.463 75.1971 328.196 74.7167 327.791 74.3726C327.417 74.0525 326.946 73.8643 326.444 73.834C325.942 73.8037 325.434 73.9328 324.99 74.2034C324.546 74.474 324.188 74.8728 323.966 75.3443C323.744 75.8159 323.669 76.3369 323.751 76.835C323.833 77.3332 324.069 77.7839 324.425 78.1246C324.781 78.4652 325.24 78.679 325.738 78.7363C326.236 78.7935 326.749 78.6914 327.205 78.4441C327.661 78.1968 328.038 77.8165 328.284 77.356L330.176 77.6408L330.778 79.4564C330.372 79.7758 330.066 80.2091 329.904 80.6965C329.741 81.184 329.729 81.7014 329.87 82.1775C330.011 82.6536 330.298 83.0648 330.691 83.3544C331.083 83.644 331.563 83.7976 332.063 83.7941C332.563 83.7907 333.059 83.6302 333.482 83.3349C333.905 83.0396 334.235 82.6241 334.426 82.1457C334.617 81.6673 334.659 81.1496 334.548 80.6641C334.436 80.1786 334.175 79.7492 333.802 79.4353ZM325.64 76.9269C325.521 76.8268 325.436 76.6915 325.396 76.538C325.357 76.3846 325.364 76.22 325.417 76.065C325.469 75.91 325.566 75.7715 325.693 75.6672C325.821 75.5629 325.974 75.4973 326.133 75.4788C326.292 75.4603 326.451 75.4897 326.588 75.5632C326.725 75.6368 326.835 75.7513 326.905 75.8921C326.974 76.0329 326.999 76.1939 326.976 76.3545C326.954 76.5151 326.885 76.6683 326.779 76.7946C326.636 76.964 326.436 77.0731 326.222 77.0979C326.009 77.1227 325.799 77.0612 325.64 76.9269ZM334.024 73.0724C334.143 73.1725 334.227 73.3079 334.267 73.4613C334.307 73.6147 334.3 73.7793 334.247 73.9343C334.194 74.0893 334.098 74.2278 333.971 74.3321C333.843 74.4364 333.69 74.502 333.531 74.5205C333.371 74.539 333.213 74.5096 333.076 74.4361C332.938 74.3625 332.828 74.2481 332.759 74.1072C332.69 73.9664 332.665 73.8055 332.687 73.6448C332.71 73.4842 332.779 73.331 332.885 73.2047C333.028 73.0353 333.228 72.9263 333.441 72.9014C333.655 72.8766 333.865 72.9381 334.024 73.0724ZM331.65 81.9896C331.531 81.8895 331.446 81.7542 331.407 81.6007C331.367 81.4473 331.374 81.2827 331.427 81.1277C331.48 80.9727 331.576 80.8342 331.703 80.7299C331.831 80.6256 331.984 80.56 332.143 80.5415C332.303 80.523 332.461 80.5524 332.598 80.6259C332.736 80.6995 332.846 80.814 332.915 80.9548C332.984 81.0956 333.009 81.2566 332.986 81.4172C332.964 81.5778 332.895 81.731 332.789 81.8573C332.646 82.0267 332.446 82.1358 332.232 82.1606C332.019 82.1854 331.809 82.1239 331.65 81.9896Z" fill="#4A35B1" fill-opacity="0.54"/>
<path d="M321.874 81.3969C320.123 79.9184 319.067 77.7621 318.936 75.4012C318.806 73.0403 319.613 70.6675 321.18 68.8035L328.505 60.1072L338.067 62.1574L341.537 70.7972L340.037 71.4859L336.865 63.5852L329.043 61.909L322.382 69.816C321.483 70.8833 320.881 72.1652 320.644 73.5181C320.408 74.871 320.545 76.2413 321.041 77.4756C321.538 78.7098 322.373 79.7593 323.455 80.5063C324.536 81.2532 325.82 81.6683 327.163 81.7048L327.024 83.3334C325.111 83.2868 323.302 82.6067 321.874 81.3969Z" fill="#4A35B1" fill-opacity="0.54"/>
</g>
<g clip-path="url(#clip8_3536_7433)">
<path d="M69.7016 61.1834C69.2943 60.8431 68.7832 60.6517 68.2526 60.6409L67.5896 58.8115L68.4027 57.8463C68.9231 58.0423 69.4961 58.048 70.0203 57.8624C70.5446 57.6768 70.9864 57.3119 71.2675 56.8321C71.5487 56.3523 71.6513 55.7885 71.557 55.2405C71.4627 54.6924 71.1778 54.1953 70.7524 53.837C70.3271 53.4787 69.7888 53.2823 69.2327 53.2826C68.6765 53.2828 68.1384 53.4796 67.7133 53.8382C67.2883 54.1968 67.0037 54.6942 66.9099 55.2423C66.8161 55.7905 66.9191 56.3542 67.2006 56.8337L66.3876 57.799L64.4711 57.4577C64.3708 56.9363 64.0958 56.4647 63.6914 56.1207C63.3168 55.8008 62.8519 55.6054 62.3613 55.5616C61.8706 55.5178 61.3785 55.6277 60.9532 55.8762C60.5278 56.1246 60.1903 56.4993 59.9875 56.9481C59.7846 57.397 59.7265 57.8979 59.8211 58.3813C59.9158 58.8648 60.1585 59.3067 60.5156 59.646C60.8728 59.9853 61.3266 60.205 61.8143 60.2747C62.3019 60.3445 62.7991 60.2607 63.237 60.0351C63.6749 59.8095 64.0318 59.4533 64.2581 59.0157L66.1122 59.3456L66.7529 61.1162C66.3655 61.4128 66.0799 61.8224 65.9353 62.2883C65.7907 62.7542 65.7943 63.2536 65.9456 63.7174C66.0969 64.1812 66.3885 64.5865 66.7801 64.8775C67.1717 65.1685 67.6439 65.3308 68.1316 65.3419C68.6194 65.353 69.0985 65.2125 69.503 64.9396C69.9074 64.6668 70.2171 64.2751 70.3894 63.8187C70.5617 63.3623 70.5881 62.8636 70.4649 62.3916C70.3417 61.9195 70.075 61.4974 69.7016 61.1834ZM61.6663 58.5248C61.5474 58.4247 61.4609 58.2915 61.4177 58.1422C61.3745 57.9929 61.3765 57.8342 61.4235 57.686C61.4705 57.5379 61.5604 57.407 61.6818 57.31C61.8032 57.2129 61.9507 57.154 62.1055 57.1408C62.2604 57.1275 62.4157 57.1605 62.5518 57.2355C62.688 57.3105 62.7988 57.4242 62.8703 57.5622C62.9418 57.7002 62.9708 57.8563 62.9535 58.0108C62.9363 58.1653 62.8737 58.3112 62.7736 58.43C62.6393 58.5894 62.4472 58.689 62.2395 58.7067C62.0319 58.7245 61.8257 58.6591 61.6663 58.5248ZM69.7341 55.0459C69.853 55.146 69.9395 55.2792 69.9827 55.4285C70.0259 55.5778 70.0239 55.7365 69.9768 55.8847C69.9298 56.0328 69.8399 56.1637 69.7185 56.2607C69.5971 56.3578 69.4497 56.4167 69.2948 56.4299C69.14 56.4432 68.9847 56.4102 68.8485 56.3352C68.7124 56.2602 68.6016 56.1465 68.5301 56.0085C68.4586 55.8705 68.4296 55.7144 68.4468 55.5599C68.464 55.4054 68.5267 55.2595 68.6268 55.1407C68.7611 54.9813 68.9532 54.8817 69.1608 54.864C69.3685 54.8462 69.5747 54.9116 69.7341 55.0459ZM67.6765 63.5875C67.5576 63.4874 67.4711 63.3542 67.4279 63.2049C67.3847 63.0556 67.3867 62.8969 67.4338 62.7487C67.4808 62.6006 67.5707 62.4697 67.6921 62.3727C67.8135 62.2756 67.9609 62.2167 68.1158 62.2035C68.2706 62.1902 68.4259 62.2232 68.5621 62.2982C68.6982 62.3732 68.809 62.4869 68.8805 62.6249C68.952 62.7629 68.981 62.919 68.9638 63.0735C68.9466 63.228 68.8839 63.3739 68.7838 63.4927C68.6495 63.6521 68.4574 63.7517 68.2498 63.7694C68.0421 63.7872 67.8359 63.7218 67.6765 63.5875Z" fill="#4A35B1" fill-opacity="0.54"/>
<path d="M58.1222 62.7321C56.371 61.2537 55.2777 59.141 55.0823 56.8575C54.8869 54.5741 55.6053 52.3063 57.0799 50.5519L63.9743 42.3672L73.3622 44.6239L76.9976 53.0671L75.5545 53.6886L72.2302 45.9678L64.5506 44.1226L58.282 51.5644C57.4356 52.569 56.8857 53.7893 56.6939 55.0887C56.5022 56.3882 56.676 57.7154 57.196 58.9216C57.7161 60.1278 58.5617 61.1653 59.6383 61.9179C60.7148 62.6705 61.9796 63.1085 63.2911 63.1827L63.2028 64.7513C61.3343 64.6508 59.5499 63.9417 58.1222 62.7321Z" fill="#4A35B1" fill-opacity="0.54"/>
</g>
</g>
<defs>
<clipPath id="clip0_3536_7433">
<rect x="21" width="335.862" height="280.355" rx="12" fill="white"/>
</clipPath>
<clipPath id="clip1_3536_7433">
<rect width="38.4465" height="37.2814" fill="white" transform="translate(301.039 177.074) rotate(-30)"/>
</clipPath>
<clipPath id="clip2_3536_7433">
<rect width="35" height="35" fill="white" transform="translate(97 16)"/>
</clipPath>
<clipPath id="clip3_3536_7433">
<rect width="24.5008" height="23.7584" fill="white" transform="translate(222.885 38.4224) rotate(30)"/>
</clipPath>
<clipPath id="clip4_3536_7433">
<rect width="38.4465" height="37.2814" fill="white" transform="translate(6.67578 91.5242) rotate(-30)"/>
</clipPath>
<clipPath id="clip5_3536_7433">
<rect width="24.5008" height="23.7584" fill="white" transform="translate(97.7812 255.106) rotate(30)"/>
</clipPath>
<clipPath id="clip6_3536_7433">
<rect width="24.5008" height="23.7584" fill="white" transform="translate(353.167 250.81) rotate(30)"/>
</clipPath>
<clipPath id="clip7_3536_7433">
<rect width="25.1468" height="26.7184" fill="white" transform="translate(328.934 53.5005) rotate(40.109)"/>
</clipPath>
<clipPath id="clip8_3536_7433">
<rect width="25.1468" height="25.1468" fill="white" transform="translate(64.2002 36) rotate(40.109)"/>
</clipPath>
</defs>
</svg>
