<svg width="357" height="400" viewBox="0 0 357 400" fill="none" xmlns="http://www.w3.org/2000/svg">
<g clip-path="url(#clip0_417_3486)">
<rect x="21" width="335.862" height="280.355" rx="12" fill="#060809"/>
<path d="M201.543 146.371C200.127 144.943 198.206 144.141 196.204 144.141C194.201 144.141 192.281 144.943 190.865 146.371L185.525 151.746C184.132 153.2 182.465 154.361 180.623 155.159C178.78 155.957 176.798 156.377 174.792 156.394C172.787 156.412 170.798 156.027 168.942 155.261C167.085 154.495 165.399 153.365 163.981 151.935C162.563 150.505 161.441 148.805 160.682 146.933C159.922 145.062 159.54 143.057 159.557 141.035C159.575 139.013 159.991 137.015 160.783 135.157C161.575 133.299 162.725 131.619 164.168 130.214L206.686 87.3326C216.753 85.0243 227.285 85.9743 236.785 90.0475C246.285 94.1208 254.269 101.11 259.603 110.021C264.937 118.932 267.348 129.312 266.494 139.684C265.64 150.057 261.564 159.893 254.846 167.796L238.926 184.052L201.543 146.363V146.371ZM118.772 100.596C126.587 92.7185 136.808 87.7284 147.784 86.4324C158.76 85.1364 169.848 87.6103 179.257 93.4542L153.482 119.448C147.899 125.065 144.717 132.66 144.615 140.611C144.513 148.562 147.5 156.238 152.936 161.998C158.373 167.759 165.829 171.147 173.71 171.44C181.592 171.732 189.275 168.905 195.116 163.563L196.204 162.52L228.247 194.818L196.204 227.124C193.371 229.978 189.53 231.582 185.525 231.582C181.52 231.582 177.679 229.978 174.847 227.124L118.765 170.583C109.56 161.302 104.388 148.714 104.388 135.589C104.388 122.465 109.56 109.877 118.765 100.596H118.772Z" fill="#F5F5F5"/>
<path d="M321.789 257.351V255.226H319.426C319.281 254.561 319.001 253.928 318.602 253.363L320.279 251.78L318.688 250.278L317.012 251.861C316.413 251.484 315.744 251.22 315.039 251.083V248.851H312.789V251.083C312.085 251.22 311.416 251.484 310.817 251.861L309.141 250.278L307.55 251.78L309.227 253.363C308.828 253.928 308.548 254.561 308.403 255.226H306.039V257.351H308.403C308.548 258.016 308.828 258.648 309.227 259.213L307.55 260.797L309.141 262.299L310.817 260.716C311.416 261.092 312.085 261.356 312.789 261.494V263.726H315.039V261.494C315.744 261.356 316.413 261.092 317.012 260.716L318.688 262.299L320.279 260.797L318.602 259.213C319.001 258.648 319.281 258.016 319.426 257.351H321.789ZM313.914 259.476C313.247 259.476 312.594 259.289 312.039 258.939C311.484 258.588 311.052 258.091 310.796 257.508C310.541 256.926 310.474 256.285 310.604 255.666C310.735 255.048 311.056 254.48 311.528 254.034C312 253.589 312.601 253.285 313.256 253.162C313.911 253.039 314.589 253.102 315.206 253.343C315.823 253.585 316.35 253.993 316.721 254.517C317.091 255.042 317.289 255.658 317.289 256.288C317.289 257.133 316.933 257.944 316.3 258.541C315.667 259.139 314.809 259.475 313.914 259.476Z" fill="#4A35B1" fill-opacity="0.54"/>
<path d="M303.789 260.185L300.151 258.352C298.53 257.537 297.175 256.322 296.23 254.835C295.286 253.349 294.788 251.647 294.789 249.913V236.101H317.289V246.726H319.539V236.101C319.539 235.537 319.302 234.997 318.88 234.599C318.458 234.2 317.886 233.976 317.289 233.976H294.789C294.193 233.976 293.621 234.2 293.199 234.599C292.777 234.997 292.54 235.537 292.539 236.101V249.913C292.537 252.032 293.145 254.112 294.3 255.929C295.454 257.746 297.111 259.232 299.091 260.227L303.789 262.593V260.185Z" fill="#4A35B1" fill-opacity="0.54"/>
<g clip-path="url(#clip1_417_3486)">
<path d="M346.359 185.886C345.658 186.294 345.113 186.922 344.814 187.666L341.861 187.707L340.926 186.086C341.482 185.447 341.797 184.641 341.814 183.81C341.831 182.979 341.549 182.177 341.018 181.545C340.488 180.913 339.742 180.493 338.913 180.357C338.085 180.222 337.226 180.381 336.49 180.806C335.754 181.232 335.187 181.895 334.889 182.681C334.592 183.466 334.584 184.322 334.865 185.098C335.147 185.873 335.701 186.518 336.429 186.919C337.157 187.32 338.013 187.451 338.845 187.288L339.78 188.908L338.27 191.447C337.476 191.333 336.659 191.491 335.954 191.893C335.3 192.265 334.773 192.826 334.449 193.497C334.124 194.169 334.017 194.917 334.142 195.639C334.267 196.361 334.618 197.021 335.147 197.527C335.676 198.034 336.356 198.361 337.093 198.464C337.83 198.567 338.588 198.441 339.261 198.102C339.934 197.764 340.488 197.231 340.848 196.577C341.208 195.922 341.356 195.179 341.27 194.451C341.183 193.722 340.869 193.044 340.368 192.51L341.829 190.054L344.686 190.016C344.9 190.708 345.328 191.312 345.913 191.744C346.497 192.176 347.208 192.416 347.947 192.429C348.687 192.442 349.419 192.229 350.041 191.819C350.664 191.408 351.147 190.821 351.424 190.138C351.701 189.455 351.758 188.71 351.587 188.005C351.416 187.3 351.025 186.671 350.469 186.205C349.913 185.738 349.219 185.457 348.483 185.4C347.747 185.343 347.005 185.512 346.359 185.886ZM338.284 195.929C338.079 196.048 337.843 196.105 337.608 196.093C337.373 196.081 337.149 196 336.964 195.861C336.778 195.722 336.641 195.531 336.568 195.312C336.495 195.094 336.49 194.857 336.554 194.631C336.618 194.406 336.748 194.203 336.928 194.048C337.107 193.892 337.328 193.791 337.562 193.758C337.796 193.725 338.033 193.76 338.243 193.86C338.454 193.96 338.627 194.12 338.742 194.319C338.897 194.587 338.935 194.907 338.85 195.209C338.764 195.511 338.56 195.77 338.284 195.929ZM337.662 182.836C337.867 182.717 338.103 182.66 338.338 182.672C338.573 182.684 338.797 182.765 338.982 182.904C339.168 183.043 339.305 183.234 339.378 183.452C339.451 183.671 339.456 183.908 339.392 184.133C339.328 184.359 339.198 184.562 339.018 184.717C338.839 184.873 338.618 184.973 338.384 185.007C338.15 185.04 337.913 185.005 337.703 184.905C337.493 184.805 337.319 184.645 337.204 184.446C337.049 184.178 337.011 183.858 337.096 183.556C337.182 183.254 337.386 182.995 337.662 182.836ZM348.689 189.922C348.483 190.041 348.248 190.098 348.013 190.085C347.778 190.073 347.554 189.993 347.368 189.854C347.183 189.715 347.045 189.524 346.973 189.305C346.9 189.086 346.895 188.849 346.959 188.624C347.023 188.399 347.153 188.196 347.332 188.04C347.512 187.885 347.733 187.784 347.967 187.751C348.201 187.717 348.438 187.753 348.648 187.853C348.858 187.953 349.032 188.113 349.147 188.312C349.302 188.58 349.34 188.9 349.254 189.201C349.169 189.503 348.965 189.762 348.689 189.922Z" fill="#4A35B1" fill-opacity="0.54"/>
<path d="M321.138 195.066C322.288 194.403 322.698 192.961 322.054 191.847C321.411 190.732 319.958 190.367 318.808 191.03C317.659 191.694 317.249 193.135 317.892 194.25C318.536 195.364 319.989 195.73 321.138 195.066Z" fill="#4A35B1" fill-opacity="0.54"/>
<path d="M327.257 188.843C326.434 189.318 325.492 189.546 324.552 189.498C323.611 189.45 322.714 189.127 321.973 188.572C321.232 188.016 320.681 187.252 320.39 186.377C320.099 185.501 320.08 184.553 320.336 183.653C320.592 182.752 321.112 181.94 321.829 181.318C322.547 180.696 323.43 180.293 324.367 180.159C325.303 180.025 326.252 180.167 327.093 180.567C327.933 180.967 328.628 181.606 329.089 182.404C329.703 183.476 329.855 184.754 329.512 185.96C329.168 187.167 328.358 188.203 327.257 188.843ZM323.762 182.789C323.35 183.027 323.016 183.378 322.802 183.797C322.588 184.216 322.503 184.685 322.558 185.145C322.614 185.605 322.807 186.034 323.113 186.379C323.419 186.724 323.825 186.969 324.279 187.084C324.733 187.198 325.215 187.176 325.663 187.021C326.112 186.866 326.507 186.584 326.799 186.212C327.091 185.84 327.267 185.393 327.304 184.929C327.341 184.466 327.238 184.005 327.008 183.606C326.697 183.072 326.182 182.687 325.574 182.534C324.965 182.381 324.314 182.473 323.762 182.789Z" fill="#4A35B1" fill-opacity="0.54"/>
<path d="M331.045 178.584C332.194 177.921 332.604 176.479 331.961 175.365C331.317 174.25 329.864 173.885 328.715 174.548C327.566 175.212 327.156 176.653 327.799 177.768C328.442 178.882 329.896 179.248 331.045 178.584Z" fill="#4A35B1" fill-opacity="0.54"/>
<path d="M331.055 197.777L317.225 197.9L309.738 184.932L317.446 171.85L333.314 171.71L333.356 169.361L316.792 169.507C316.581 169.509 316.373 169.566 316.189 169.672C316.004 169.779 315.851 169.931 315.744 170.113L307.335 184.384C307.23 184.564 307.173 184.766 307.171 184.972C307.168 185.177 307.221 185.378 307.323 185.554L315.478 199.679C315.58 199.856 315.727 200.002 315.906 200.102C316.085 200.203 316.289 200.255 316.497 200.253L331.014 200.126L331.055 197.777Z" fill="#4A35B1" fill-opacity="0.54"/>
</g>
<path d="M47.75 215.5V213.375H45.3864C45.2413 212.71 44.9617 212.077 44.5629 211.512L46.2391 209.929L44.6484 208.427L42.9721 210.01C42.3738 209.633 41.7042 209.369 41 209.232V207H38.75V209.232C38.0458 209.369 37.3762 209.633 36.7779 210.01L35.1016 208.427L33.5109 209.929L35.1871 211.512C34.7883 212.077 34.5087 212.71 34.3636 213.375H32V215.5H34.3636C34.5087 216.165 34.7883 216.798 35.1871 217.363L33.5109 218.946L35.1016 220.448L36.7779 218.865C37.3762 219.242 38.0458 219.506 38.75 219.643V221.875H41V219.643C41.7042 219.506 42.3738 219.242 42.9721 218.865L44.6484 220.448L46.2391 218.946L44.5629 217.363C44.9617 216.798 45.2413 216.165 45.3864 215.5H47.75ZM39.875 217.625C39.2075 217.625 38.555 217.438 38 217.088C37.4449 216.738 37.0124 216.24 36.7569 215.657C36.5015 215.075 36.4346 214.434 36.5648 213.816C36.6951 213.197 37.0165 212.629 37.4885 212.184C37.9605 211.738 38.5619 211.434 39.2166 211.311C39.8713 211.188 40.5499 211.251 41.1666 211.493C41.7833 211.734 42.3104 212.142 42.6812 212.667C43.0521 213.191 43.25 213.807 43.25 214.438C43.2491 215.283 42.8932 216.093 42.2605 216.69C41.6278 217.288 40.7698 217.624 39.875 217.625Z" fill="#4A35B1" fill-opacity="0.54"/>
<path d="M29.75 218.334L26.1118 216.501C24.491 215.687 23.1356 214.471 22.191 212.984C21.2464 211.498 20.7483 209.796 20.75 208.062V194.25H43.25V204.875H45.5V194.25C45.4994 193.687 45.2622 193.146 44.8403 192.748C44.4185 192.35 43.8466 192.126 43.25 192.125H20.75C20.1535 192.126 19.5815 192.35 19.1597 192.748C18.7378 193.146 18.5006 193.687 18.5 194.25V208.062C18.4975 210.181 19.1061 212.261 20.2604 214.078C21.4147 215.895 23.0712 217.381 25.052 218.376L29.75 220.742V218.334Z" fill="#4A35B1" fill-opacity="0.54"/>
<path d="M364.75 45.167L361.112 43.2803C359.491 42.4422 358.136 41.1908 357.191 39.6604C356.246 38.13 355.748 36.3785 355.75 34.5938V20.375H378.25V31.3125H380.5V20.375C380.499 19.795 380.262 19.239 379.84 18.8288C379.419 18.4187 378.847 18.1881 378.25 18.1875H355.75C355.153 18.1881 354.582 18.4187 354.16 18.8288C353.738 19.239 353.501 19.795 353.5 20.375V34.5938C353.498 36.7751 354.106 38.9159 355.26 40.7864C356.415 42.6568 358.071 44.1864 360.052 45.2108L364.75 47.6466V45.167Z" fill="#4A35B1" fill-opacity="0.54"/>
<g clip-path="url(#clip2_417_3486)">
<path d="M128.719 44.4375C127.98 44.4405 127.264 44.6951 126.69 45.1594L124.344 43.8065V42.0499C125.073 41.7919 125.689 41.2842 126.08 40.6166C126.472 39.9489 126.615 39.1643 126.484 38.4014C126.353 37.6385 125.957 36.9465 125.365 36.4476C124.773 35.9487 124.024 35.675 123.25 35.675C122.476 35.675 121.727 35.9487 121.135 36.4476C120.543 36.9465 120.147 37.6385 120.016 38.4014C119.885 39.1643 120.028 39.9489 120.42 40.6166C120.811 41.2842 121.426 41.7919 122.156 42.0499V43.8065L119.81 45.1616C119.236 44.6965 118.52 44.4411 117.781 44.4375C117.096 44.4329 116.426 44.6417 115.864 45.035C115.302 45.4283 114.877 45.9866 114.647 46.6325C114.417 47.2784 114.394 47.9798 114.58 48.6395C114.767 49.2993 115.154 49.8846 115.688 50.3143C116.223 50.7441 116.877 50.9969 117.562 51.0378C118.246 51.0788 118.926 50.9057 119.508 50.5427C120.089 50.1796 120.544 49.6446 120.808 49.0118C121.071 48.379 121.132 47.6798 120.98 47.0111L123.25 45.6997L125.52 47.01C125.373 47.6731 125.436 48.3652 125.7 48.9909C125.964 49.6165 126.416 50.1448 126.993 50.5028C127.57 50.8609 128.243 51.0309 128.921 50.9896C129.599 50.9482 130.247 50.6975 130.776 50.272C131.306 49.8465 131.69 49.2672 131.875 48.6141C132.061 47.9611 132.04 47.2664 131.814 46.626C131.588 45.9857 131.169 45.4312 130.615 45.0392C130.06 44.6472 129.398 44.437 128.719 44.4375ZM117.781 48.8125C117.565 48.8125 117.353 48.7484 117.174 48.6282C116.994 48.508 116.854 48.3372 116.771 48.1374C116.688 47.9375 116.666 47.7176 116.708 47.5054C116.751 47.2933 116.855 47.0984 117.008 46.9454C117.161 46.7924 117.356 46.6883 117.568 46.6461C117.78 46.6039 118 46.6255 118.2 46.7083C118.4 46.7911 118.57 46.9313 118.691 47.1111C118.811 47.291 118.875 47.5025 118.875 47.7188C118.875 48.0089 118.76 48.2871 118.555 48.4922C118.35 48.6973 118.071 48.8125 117.781 48.8125ZM123.25 37.875C123.466 37.875 123.678 37.9392 123.858 38.0594C124.037 38.1796 124.178 38.3504 124.26 38.5502C124.343 38.7501 124.365 38.97 124.323 39.1822C124.281 39.3943 124.176 39.5892 124.023 39.7422C123.87 39.8952 123.676 39.9993 123.463 40.0415C123.251 40.0837 123.031 40.0621 122.831 39.9793C122.632 39.8965 122.461 39.7563 122.341 39.5765C122.22 39.3966 122.156 39.1851 122.156 38.9688C122.156 38.6787 122.271 38.4005 122.477 38.1954C122.682 37.9903 122.96 37.875 123.25 37.875ZM128.719 48.8125C128.502 48.8125 128.291 48.7484 128.111 48.6282C127.931 48.508 127.791 48.3372 127.708 48.1374C127.625 47.9375 127.604 47.7176 127.646 47.5054C127.688 47.2933 127.792 47.0984 127.945 46.9454C128.098 46.7924 128.293 46.6883 128.505 46.6461C128.718 46.6039 128.937 46.6255 129.137 46.7083C129.337 46.7911 129.508 46.9313 129.628 47.1111C129.748 47.291 129.812 47.5025 129.812 47.7188C129.812 48.0089 129.697 48.2871 129.492 48.4922C129.287 48.6973 129.009 48.8125 128.719 48.8125Z" fill="#4A35B1" fill-opacity="0.54"/>
<path d="M104.656 40.0625C105.864 40.0625 106.844 39.0831 106.844 37.875C106.844 36.6669 105.864 35.6875 104.656 35.6875C103.448 35.6875 102.469 36.6669 102.469 37.875C102.469 39.0831 103.448 40.0625 104.656 40.0625Z" fill="#4A35B1" fill-opacity="0.54"/>
<path d="M112.313 37.875C111.447 37.875 110.601 37.6184 109.882 37.1377C109.162 36.657 108.602 35.9737 108.271 35.1742C107.939 34.3748 107.853 33.4951 108.022 32.6465C108.19 31.7978 108.607 31.0183 109.219 30.4064C109.831 29.7946 110.61 29.3779 111.459 29.2091C112.308 29.0403 113.187 29.1269 113.987 29.458C114.786 29.7892 115.469 30.3499 115.95 31.0694C116.431 31.7888 116.688 32.6347 116.688 33.5C116.684 34.6593 116.222 35.77 115.402 36.5898C114.583 37.4095 113.472 37.8715 112.313 37.875ZM112.313 31.3125C111.88 31.3125 111.457 31.4408 111.097 31.6812C110.737 31.9215 110.457 32.2632 110.292 32.6629C110.126 33.0626 110.083 33.5024 110.167 33.9268C110.251 34.3511 110.46 34.7409 110.766 35.0468C111.072 35.3527 111.461 35.5611 111.886 35.6455C112.31 35.7299 112.75 35.6866 113.15 35.521C113.549 35.3554 113.891 35.075 114.131 34.7153C114.372 34.3556 114.5 33.9326 114.5 33.5C114.498 32.9204 114.267 32.365 113.857 31.9551C113.448 31.5453 112.892 31.3142 112.313 31.3125Z" fill="#4A35B1" fill-opacity="0.54"/>
<path d="M119.969 31.3125C121.177 31.3125 122.156 30.3331 122.156 29.125C122.156 27.9169 121.177 26.9375 119.969 26.9375C118.761 26.9375 117.781 27.9169 117.781 29.125C117.781 30.3331 118.761 31.3125 119.969 31.3125Z" fill="#4A35B1" fill-opacity="0.54"/>
<path d="M111.241 46.9215L100.281 40.5296V26.4716L112.312 19.4541L124.886 26.7888L125.989 24.8988L112.864 17.2426C112.696 17.145 112.506 17.0935 112.312 17.0935C112.119 17.0935 111.929 17.145 111.761 17.2426L98.6363 24.8988C98.4711 24.9952 98.3341 25.1332 98.2389 25.299C98.1438 25.4648 98.0937 25.6526 98.0938 25.8438V41.1563C98.0937 41.3475 98.1438 41.5354 98.2389 41.7012C98.3341 41.867 98.4711 42.005 98.6363 42.1013L110.139 48.8126L111.241 46.9215Z" fill="#4A35B1" fill-opacity="0.54"/>
</g>
<g clip-path="url(#clip3_417_3486)">
<path d="M232.462 66.2418C232.013 65.985 231.492 65.8842 230.987 65.956L230.023 64.3395L230.62 63.3069C231.15 63.4106 231.695 63.3274 232.159 63.072C232.623 62.8166 232.976 62.4055 233.155 61.9112C233.335 61.4169 233.33 60.8713 233.14 60.3709C232.951 59.8705 232.589 59.4474 232.12 59.1765C231.651 58.9056 231.104 58.8042 230.576 58.8904C230.048 58.9765 229.573 59.2446 229.234 59.6473C228.896 60.05 228.716 60.5612 228.727 61.0908C228.738 61.6204 228.939 62.1341 229.293 62.5412L228.697 63.5738L226.815 63.5493C226.625 63.0749 226.278 62.6743 225.831 62.4135C225.417 62.1708 224.94 62.0591 224.466 62.0937C223.992 62.1284 223.544 62.3077 223.186 62.6069C222.827 62.9061 222.575 63.3103 222.464 63.7634C222.353 64.2166 222.389 64.6962 222.567 65.1358C222.745 65.5754 223.057 65.9532 223.458 66.2168C223.859 66.4804 224.33 66.6167 224.805 66.6069C225.281 66.597 225.738 66.4415 226.113 66.1619C226.488 65.8822 226.762 65.4923 226.897 65.0462L228.718 65.0697L229.649 66.6343C229.335 66.9729 229.139 67.4019 229.086 67.862C229.034 68.3222 229.128 68.7908 229.357 69.2032C229.585 69.6156 229.936 69.9515 230.361 70.1644C230.785 70.3773 231.263 70.4568 231.729 70.3919C232.194 70.3269 232.623 70.1208 232.958 69.8019C233.292 69.4831 233.515 69.0672 233.595 68.6117C233.676 68.1562 233.61 67.6836 233.407 67.2591C233.204 66.8346 232.873 66.4791 232.462 66.2418ZM224.346 64.9855C224.215 64.9097 224.108 64.798 224.04 64.6644C223.972 64.5308 223.945 64.3813 223.962 64.2348C223.98 64.0884 224.042 63.9515 224.139 63.8416C224.237 63.7316 224.366 63.6535 224.511 63.6171C224.655 63.5807 224.809 63.5877 224.952 63.6372C225.095 63.6866 225.221 63.7763 225.314 63.8949C225.407 64.0136 225.463 64.1558 225.475 64.3036C225.487 64.4514 225.454 64.5981 225.38 64.7253C225.282 64.8958 225.117 65.019 224.924 65.0678C224.73 65.1166 224.522 65.087 224.346 64.9855ZM231.374 60.4698C231.505 60.5455 231.611 60.6572 231.679 60.7908C231.748 60.9244 231.775 61.0739 231.757 61.2204C231.739 61.3669 231.678 61.5037 231.58 61.6137C231.483 61.7236 231.353 61.8017 231.209 61.8381C231.064 61.8745 230.911 61.8675 230.768 61.8181C230.625 61.7686 230.499 61.6789 230.406 61.5603C230.313 61.4417 230.257 61.2995 230.245 61.1517C230.233 61.0039 230.266 60.8571 230.339 60.7299C230.438 60.5594 230.602 60.4362 230.796 60.3874C230.99 60.3386 231.198 60.3682 231.374 60.4698ZM230.977 68.8137C230.845 68.738 230.739 68.6263 230.671 68.4927C230.603 68.3591 230.576 68.2096 230.593 68.0631C230.611 67.9166 230.672 67.7798 230.77 67.6698C230.868 67.5599 230.997 67.4818 231.141 67.4454C231.286 67.409 231.44 67.416 231.583 67.4654C231.726 67.5149 231.852 67.6046 231.945 67.7232C232.038 67.8418 232.094 67.984 232.105 68.1318C232.117 68.2796 232.084 68.4264 232.011 68.5536C231.912 68.7241 231.748 68.8473 231.554 68.8961C231.36 68.9449 231.153 68.9152 230.977 68.8137Z" fill="#4A35B1" fill-opacity="0.54"/>
<path d="M219.359 55.2477C220.091 55.6706 221.017 55.4376 221.427 54.7274C221.837 54.0172 221.576 53.0987 220.844 52.6758C220.111 52.2529 219.185 52.4859 218.775 53.1961C218.365 53.9063 218.626 54.8249 219.359 55.2477Z" fill="#4A35B1" fill-opacity="0.54"/>
<path d="M224.743 56.6415C224.218 56.3386 223.793 55.8917 223.52 55.3573C223.247 54.8228 223.138 54.2249 223.209 53.639C223.28 53.0532 223.526 52.5057 223.916 52.0659C224.306 51.6261 224.824 51.3136 225.402 51.1681C225.981 51.0226 226.595 51.0505 227.167 51.2483C227.738 51.4461 228.242 51.8049 228.615 52.2794C228.987 52.7539 229.211 53.3227 229.258 53.9139C229.305 54.5051 229.174 55.0922 228.88 55.6008C228.484 56.2811 227.827 56.7724 227.052 56.9674C226.277 57.1623 225.447 57.0452 224.743 56.6415ZM226.97 52.7836C226.708 52.6321 226.408 52.5595 226.108 52.5749C225.809 52.5903 225.523 52.693 225.287 52.87C225.051 53.0471 224.875 53.2905 224.782 53.5695C224.689 53.8485 224.683 54.1505 224.765 54.4374C224.847 54.7244 225.012 54.9833 225.241 55.1814C225.469 55.3796 225.751 55.508 226.049 55.5506C226.348 55.5932 226.65 55.5479 226.918 55.4206C227.186 55.2932 227.407 55.0895 227.554 54.8352C227.75 54.4938 227.798 54.0865 227.689 53.7021C227.579 53.3177 227.321 52.9875 226.97 52.7836Z" fill="#4A35B1" fill-opacity="0.54"/>
<path d="M231.612 55.4633C232.344 55.8862 233.27 55.6532 233.68 54.943C234.09 54.2328 233.829 53.3142 233.097 52.8914C232.364 52.4685 231.438 52.7015 231.028 53.4117C230.618 54.1219 230.879 55.0404 231.612 55.4633Z" fill="#4A35B1" fill-opacity="0.54"/>
<path d="M221.023 61.5845L216.548 53.991L221.319 45.7268L230.995 45.8125L236.128 54.5253L237.438 53.8001L232.08 44.7053C232.012 44.5894 231.914 44.4925 231.796 44.4247C231.679 44.3569 231.546 44.3206 231.411 44.3194L220.856 44.2264C220.723 44.2252 220.593 44.2584 220.479 44.3225C220.365 44.3867 220.271 44.4796 220.206 44.592L215.009 53.5938C214.944 53.7061 214.911 53.8341 214.912 53.9649C214.914 54.0957 214.95 54.2247 215.017 54.3392L219.713 62.3107L221.023 61.5845Z" fill="#4A35B1" fill-opacity="0.54"/>
</g>
<g clip-path="url(#clip4_417_3486)">
<path d="M51.9953 100.336C51.2941 100.745 50.7489 101.373 50.4496 102.116L47.4972 102.157L46.5617 100.536C47.1185 99.8977 47.4332 99.0915 47.4502 98.2605C47.4672 97.4296 47.1854 96.6272 46.6545 95.9954C46.1237 95.3635 45.3781 94.9428 44.5494 94.8076C43.7207 94.6724 42.8623 94.8314 42.126 95.2566C41.3896 95.6817 40.8227 96.3456 40.5255 97.1308C40.2282 97.9161 40.2197 98.7722 40.5015 99.5478C40.7833 100.323 41.3372 100.969 42.0654 101.369C42.7935 101.77 43.649 101.901 44.4807 101.738L45.4162 103.358L43.9061 105.897C43.1121 105.783 42.2953 105.941 41.5904 106.343C40.9357 106.716 40.4095 107.276 40.0847 107.948C39.76 108.619 39.6528 109.367 39.778 110.09C39.9031 110.812 40.2545 111.472 40.7834 111.978C41.3123 112.484 41.9924 112.811 42.7294 112.914C43.4665 113.017 44.224 112.891 44.8968 112.553C45.5697 112.214 46.1246 111.681 46.4845 111.027C46.8444 110.373 46.9916 109.63 46.9056 108.901C46.8196 108.172 46.5047 107.494 46.0045 106.96L47.4651 104.504L50.3219 104.466C50.5359 105.158 50.9646 105.762 51.5488 106.194C52.133 106.627 52.844 106.866 53.5836 106.879C54.3231 106.893 55.0547 106.679 55.6775 106.269C56.3002 105.859 56.7833 105.271 57.0601 104.588C57.3368 103.905 57.3936 103.16 57.2226 102.455C57.0516 101.751 56.6612 101.122 56.1053 100.655C55.5494 100.188 54.8555 99.907 54.1193 99.8499C53.3831 99.7928 52.6409 99.9627 51.9953 100.336ZM43.9205 110.379C43.7147 110.498 43.4794 110.555 43.2442 110.543C43.0091 110.531 42.7848 110.45 42.5996 110.311C42.4144 110.172 42.2767 109.982 42.2038 109.763C42.131 109.544 42.1263 109.307 42.1903 109.082C42.2544 108.856 42.3843 108.653 42.5636 108.498C42.743 108.342 42.9637 108.242 43.1979 108.208C43.4322 108.175 43.6693 108.21 43.8795 108.31C44.0896 108.41 44.2632 108.57 44.3784 108.77C44.5329 109.037 44.5715 109.357 44.4856 109.659C44.3997 109.961 44.1964 110.22 43.9205 110.379ZM43.2977 97.286C43.5035 97.1672 43.7388 97.1102 43.9739 97.1223C44.209 97.1344 44.4334 97.215 44.6186 97.3539C44.8038 97.4928 44.9415 97.6837 45.0143 97.9026C45.0872 98.1215 45.0919 98.3585 45.0279 98.5836C44.9638 98.8088 44.8339 99.0119 44.6545 99.1674C44.4752 99.3228 44.2544 99.4236 44.0202 99.457C43.786 99.4904 43.5488 99.4549 43.3387 99.355C43.1286 99.2551 42.9549 99.0953 42.8397 98.8957C42.6852 98.6281 42.6467 98.3082 42.7326 98.0063C42.8185 97.7044 43.0217 97.4453 43.2977 97.286ZM54.3253 104.372C54.1196 104.491 53.8842 104.548 53.6491 104.536C53.414 104.524 53.1897 104.443 53.0045 104.304C52.8193 104.165 52.6815 103.974 52.6087 103.755C52.5358 103.536 52.5311 103.299 52.5952 103.074C52.6592 102.849 52.7891 102.646 52.9685 102.491C53.1479 102.335 53.3686 102.234 53.6028 102.201C53.837 102.168 54.0742 102.203 54.2843 102.303C54.4945 102.403 54.6681 102.563 54.7833 102.762C54.9378 103.03 54.9764 103.35 54.8905 103.652C54.8046 103.954 54.6013 104.213 54.3253 104.372Z" fill="#4A35B1" fill-opacity="0.54"/>
<path d="M26.7745 109.516C27.9238 108.853 28.3338 107.411 27.6904 106.297C27.047 105.182 25.5937 104.817 24.4444 105.48C23.2951 106.144 22.885 107.585 23.5284 108.7C24.1719 109.814 25.6252 110.18 26.7745 109.516Z" fill="#4A35B1" fill-opacity="0.54"/>
<path d="M32.8929 103.293C32.0697 103.769 31.1284 103.996 30.1879 103.948C29.2475 103.9 28.3501 103.577 27.6093 103.022C26.8686 102.466 26.3176 101.702 26.0262 100.827C25.7348 99.9512 25.716 99.0033 25.9722 98.1028C26.2284 97.2023 26.7481 96.3898 27.4655 95.7679C28.1829 95.1461 29.0659 94.7429 30.0028 94.6093C30.9396 94.4757 31.8883 94.6177 32.7288 95.0173C33.5693 95.417 34.2639 96.0563 34.7247 96.8545C35.3389 97.9258 35.4909 99.2043 35.1477 100.411C34.8045 101.617 33.9938 102.653 32.8929 103.293ZM29.3977 97.2395C28.9862 97.4771 28.6522 97.8278 28.438 98.2471C28.2238 98.6664 28.139 99.1356 28.1944 99.5952C28.2498 100.055 28.4428 100.484 28.7491 100.829C29.0554 101.175 29.4612 101.42 29.9151 101.534C30.3691 101.648 30.8508 101.626 31.2995 101.471C31.7481 101.316 32.1434 101.034 32.4355 100.662C32.7276 100.29 32.9033 99.8434 32.9403 99.3796C32.9774 98.9157 32.8742 98.4551 32.6438 98.056C32.3334 97.5222 31.8178 97.1368 31.2096 96.9838C30.6015 96.8308 29.9501 96.9228 29.3977 97.2395Z" fill="#4A35B1" fill-opacity="0.54"/>
<path d="M36.6811 93.0343C37.8304 92.3708 38.2405 90.9294 37.597 89.815C36.9536 88.7005 35.5003 88.335 34.351 88.9985C33.2017 89.662 32.7916 91.1034 33.4351 92.2179C34.0785 93.3323 35.5318 93.6979 36.6811 93.0343Z" fill="#4A35B1" fill-opacity="0.54"/>
<path d="M36.6911 112.227L22.8612 112.35L15.374 99.3818L23.0819 86.3003L38.9498 86.1605L38.992 83.8114L22.4285 83.9574C22.2173 83.9593 22.009 84.0163 21.8247 84.1227C21.6404 84.2291 21.4868 84.381 21.3797 84.563L12.9715 98.8344C12.8657 99.014 12.8089 99.2165 12.8066 99.4217C12.8044 99.627 12.8568 99.8278 12.9587 100.004L21.114 114.13C21.2158 114.306 21.3635 114.452 21.5423 114.552C21.7212 114.653 21.925 114.705 22.1334 114.703L36.6506 114.576L36.6911 112.227Z" fill="#4A35B1" fill-opacity="0.54"/>
</g>
<g clip-path="url(#clip5_417_3486)">
<path d="M107.359 282.926C106.91 282.669 106.39 282.568 105.884 282.64L104.921 281.024L105.517 279.991C106.047 280.095 106.592 280.012 107.056 279.756C107.52 279.501 107.873 279.09 108.053 278.595C108.232 278.101 108.227 277.555 108.037 277.055C107.848 276.555 107.487 276.131 107.017 275.861C106.548 275.59 106.001 275.488 105.473 275.574C104.945 275.661 104.47 275.929 104.132 276.331C103.793 276.734 103.614 277.245 103.624 277.775C103.635 278.304 103.836 278.818 104.191 279.225L103.595 280.258L101.712 280.233C101.522 279.759 101.175 279.358 100.728 279.098C100.314 278.855 99.8369 278.743 99.363 278.778C98.889 278.812 98.4417 278.992 98.0831 279.291C97.7244 279.59 97.4722 279.994 97.3614 280.448C97.2506 280.901 97.2867 281.38 97.4647 281.82C97.6427 282.259 97.9538 282.637 98.3548 282.901C98.7558 283.164 99.2269 283.301 99.7027 283.291C100.178 283.281 100.635 283.126 101.01 282.846C101.385 282.566 101.659 282.176 101.794 281.73L103.615 281.754L104.546 283.318C104.232 283.657 104.036 284.086 103.983 284.546C103.931 285.006 104.025 285.475 104.254 285.887C104.482 286.3 104.833 286.636 105.258 286.848C105.683 287.061 106.161 287.141 106.626 287.076C107.091 287.011 107.521 286.805 107.855 286.486C108.189 286.167 108.412 285.751 108.492 285.296C108.573 284.84 108.507 284.368 108.304 283.943C108.101 283.519 107.771 283.163 107.359 282.926ZM99.2431 281.67C99.112 281.594 99.0056 281.482 98.9373 281.348C98.8691 281.215 98.842 281.065 98.8597 280.919C98.8773 280.772 98.9388 280.636 99.0364 280.526C99.134 280.416 99.2633 280.338 99.408 280.301C99.5526 280.265 99.7061 280.272 99.8491 280.321C99.992 280.371 100.118 280.46 100.211 280.579C100.304 280.698 100.36 280.84 100.372 280.988C100.384 281.135 100.351 281.282 100.277 281.409C100.179 281.58 100.015 281.703 99.8207 281.752C99.6268 281.801 99.419 281.771 99.2431 281.67ZM106.271 277.154C106.402 277.23 106.508 277.341 106.577 277.475C106.645 277.609 106.672 277.758 106.654 277.904C106.637 278.051 106.575 278.188 106.477 278.298C106.38 278.408 106.251 278.486 106.106 278.522C105.961 278.559 105.808 278.552 105.665 278.502C105.522 278.453 105.396 278.363 105.303 278.244C105.21 278.126 105.154 277.984 105.142 277.836C105.13 277.688 105.163 277.541 105.236 277.414C105.335 277.243 105.499 277.12 105.693 277.071C105.887 277.023 106.095 277.052 106.271 277.154ZM105.874 285.498C105.743 285.422 105.636 285.31 105.568 285.177C105.5 285.043 105.473 284.894 105.49 284.747C105.508 284.601 105.57 284.464 105.667 284.354C105.765 284.244 105.894 284.166 106.039 284.129C106.183 284.093 106.337 284.1 106.48 284.149C106.623 284.199 106.749 284.289 106.842 284.407C106.935 284.526 106.991 284.668 107.003 284.816C107.014 284.964 106.982 285.11 106.908 285.238C106.81 285.408 106.645 285.531 106.451 285.58C106.257 285.629 106.05 285.599 105.874 285.498Z" fill="#4A35B1" fill-opacity="0.54"/>
<path d="M94.256 271.932C94.9885 272.355 95.9146 272.122 96.3246 271.412C96.7347 270.701 96.4734 269.783 95.7409 269.36C95.0085 268.937 94.0824 269.17 93.6723 269.88C93.2623 270.59 93.5236 271.509 94.256 271.932Z" fill="#4A35B1" fill-opacity="0.54"/>
<path d="M99.64 273.326C99.1154 273.023 98.6897 272.576 98.4167 272.041C98.1437 271.507 98.0357 270.909 98.1063 270.323C98.1769 269.737 98.4229 269.19 98.8133 268.75C99.2037 268.31 99.7208 267.998 100.299 267.852C100.878 267.707 101.492 267.735 102.064 267.932C102.636 268.13 103.14 268.489 103.512 268.963C103.884 269.438 104.108 270.007 104.155 270.598C104.202 271.189 104.071 271.776 103.777 272.285C103.382 272.965 102.725 273.456 101.949 273.651C101.174 273.846 100.344 273.729 99.64 273.326ZM101.867 269.468C101.605 269.316 101.305 269.244 101.005 269.259C100.706 269.274 100.42 269.377 100.184 269.554C99.9478 269.731 99.7723 269.975 99.6794 270.254C99.5866 270.533 99.5806 270.835 99.6622 271.122C99.7438 271.408 99.9094 271.667 100.138 271.865C100.367 272.064 100.648 272.192 100.946 272.235C101.245 272.277 101.547 272.232 101.815 272.105C102.083 271.977 102.304 271.774 102.451 271.519C102.647 271.178 102.695 270.771 102.586 270.386C102.476 270.002 102.218 269.672 101.867 269.468Z" fill="#4A35B1" fill-opacity="0.54"/>
<path d="M106.509 272.147C107.241 272.57 108.167 272.337 108.578 271.627C108.988 270.917 108.726 269.998 107.994 269.575C107.261 269.153 106.335 269.386 105.925 270.096C105.515 270.806 105.777 271.725 106.509 272.147Z" fill="#4A35B1" fill-opacity="0.54"/>
<path d="M95.9198 278.269L91.4453 270.675L96.2166 262.411L105.892 262.497L111.025 271.209L112.335 270.484L106.977 261.389C106.909 261.273 106.811 261.177 106.693 261.109C106.576 261.041 106.443 261.005 106.309 261.004L95.7532 260.91C95.6204 260.909 95.4905 260.942 95.3765 261.007C95.2625 261.071 95.1684 261.164 95.1036 261.276L89.9064 270.278C89.8415 270.39 89.8081 270.518 89.8095 270.649C89.811 270.78 89.8472 270.909 89.9146 271.023L94.6103 278.995L95.9198 278.269Z" fill="#4A35B1" fill-opacity="0.54"/>
</g>
<g clip-path="url(#clip6_417_3486)">
<path d="M362.745 278.63C362.296 278.373 361.776 278.272 361.27 278.344L360.307 276.727L360.903 275.695C361.433 275.799 361.978 275.715 362.442 275.46C362.906 275.205 363.259 274.793 363.439 274.299C363.618 273.805 363.613 273.259 363.423 272.759C363.234 272.258 362.873 271.835 362.403 271.564C361.934 271.293 361.387 271.192 360.859 271.278C360.331 271.364 359.856 271.633 359.517 272.035C359.179 272.438 359 272.949 359.01 273.479C359.021 274.008 359.222 274.522 359.577 274.929L358.98 275.962L357.098 275.937C356.908 275.463 356.561 275.062 356.114 274.801C355.7 274.559 355.223 274.447 354.749 274.482C354.275 274.516 353.828 274.696 353.469 274.995C353.11 275.294 352.858 275.698 352.747 276.151C352.636 276.605 352.673 277.084 352.851 277.524C353.029 277.963 353.34 278.341 353.741 278.605C354.142 278.868 354.613 279.005 355.089 278.995C355.564 278.985 356.021 278.829 356.396 278.55C356.771 278.27 357.045 277.88 357.18 277.434L359.001 277.458L359.932 279.022C359.618 279.361 359.422 279.79 359.369 280.25C359.317 280.71 359.411 281.179 359.64 281.591C359.868 282.004 360.219 282.339 360.644 282.552C361.069 282.765 361.547 282.845 362.012 282.78C362.477 282.715 362.906 282.509 363.241 282.19C363.575 281.871 363.798 281.455 363.878 281C363.959 280.544 363.893 280.072 363.69 279.647C363.487 279.222 363.156 278.867 362.745 278.63ZM354.629 277.373C354.498 277.298 354.391 277.186 354.323 277.052C354.255 276.919 354.228 276.769 354.246 276.623C354.263 276.476 354.325 276.339 354.422 276.23C354.52 276.12 354.649 276.041 354.794 276.005C354.938 275.969 355.092 275.976 355.235 276.025C355.378 276.075 355.504 276.164 355.597 276.283C355.69 276.401 355.746 276.544 355.758 276.692C355.77 276.839 355.737 276.986 355.663 277.113C355.565 277.284 355.401 277.407 355.207 277.456C355.013 277.505 354.805 277.475 354.629 277.373ZM361.657 272.858C361.788 272.933 361.894 273.045 361.962 273.179C362.031 273.312 362.058 273.462 362.04 273.608C362.022 273.755 361.961 273.892 361.863 274.002C361.766 274.112 361.636 274.19 361.492 274.226C361.347 274.262 361.194 274.255 361.051 274.206C360.908 274.157 360.782 274.067 360.689 273.948C360.596 273.83 360.54 273.687 360.528 273.54C360.516 273.392 360.549 273.245 360.622 273.118C360.721 272.947 360.885 272.824 361.079 272.775C361.273 272.727 361.481 272.756 361.657 272.858ZM361.26 281.202C361.129 281.126 361.022 281.014 360.954 280.881C360.886 280.747 360.859 280.598 360.876 280.451C360.894 280.305 360.955 280.168 361.053 280.058C361.151 279.948 361.28 279.87 361.425 279.833C361.569 279.797 361.723 279.804 361.866 279.853C362.009 279.903 362.135 279.993 362.228 280.111C362.321 280.23 362.377 280.372 362.389 280.52C362.4 280.668 362.367 280.814 362.294 280.941C362.196 281.112 362.031 281.235 361.837 281.284C361.643 281.333 361.436 281.303 361.26 281.202Z" fill="#4A35B1" fill-opacity="0.54"/>
<path d="M349.642 267.636C350.374 268.059 351.3 267.826 351.711 267.115C352.121 266.405 351.859 265.487 351.127 265.064C350.394 264.641 349.468 264.874 349.058 265.584C348.648 266.294 348.91 267.213 349.642 267.636Z" fill="#4A35B1" fill-opacity="0.54"/>
<path d="M355.026 269.029C354.501 268.727 354.076 268.28 353.803 267.745C353.53 267.211 353.422 266.613 353.492 266.027C353.563 265.441 353.809 264.894 354.199 264.454C354.59 264.014 355.107 263.702 355.685 263.556C356.264 263.411 356.878 263.438 357.45 263.636C358.021 263.834 358.525 264.193 358.898 264.667C359.27 265.142 359.494 265.711 359.541 266.302C359.588 266.893 359.457 267.48 359.163 267.989C358.768 268.669 358.11 269.16 357.335 269.355C356.56 269.55 355.73 269.433 355.026 269.029ZM357.253 265.172C356.991 265.02 356.691 264.947 356.391 264.963C356.092 264.978 355.806 265.081 355.57 265.258C355.334 265.435 355.158 265.678 355.065 265.957C354.972 266.236 354.966 266.538 355.048 266.825C355.13 267.112 355.295 267.371 355.524 267.569C355.752 267.767 356.034 267.896 356.332 267.939C356.631 267.981 356.933 267.936 357.201 267.809C357.469 267.681 357.69 267.477 357.837 267.223C358.033 266.882 358.081 266.474 357.972 266.09C357.862 265.706 357.604 265.375 357.253 265.172Z" fill="#4A35B1" fill-opacity="0.54"/>
<path d="M351.306 273.972L346.831 266.379L351.602 258.115L361.278 258.2L366.411 266.913L367.721 266.188L362.363 257.093C362.295 256.977 362.197 256.88 362.079 256.813C361.962 256.745 361.829 256.709 361.694 256.707L351.139 256.614C351.006 256.613 350.876 256.646 350.762 256.71C350.648 256.775 350.554 256.868 350.489 256.98L345.292 265.982C345.227 266.094 345.194 266.222 345.195 266.353C345.197 266.484 345.233 266.613 345.3 266.727L349.996 274.699L351.306 273.972Z" fill="#4A35B1" fill-opacity="0.54"/>
</g>
<g clip-path="url(#clip7_417_3486)">
<path d="M333.802 79.4353C333.394 79.095 332.876 78.9125 332.332 78.9176L331.708 77.0417L332.572 76.0161C333.1 76.2033 333.687 76.1916 334.231 75.9831C334.774 75.7745 335.239 75.3827 335.542 74.8767C335.845 74.3707 335.968 73.7831 335.888 73.2179C335.808 72.6527 335.531 72.1462 335.106 71.7879C334.681 71.4296 334.134 71.2427 333.564 71.26C332.993 71.2774 332.435 71.498 331.988 71.8828C331.541 72.2676 331.234 72.7919 331.12 73.363C331.007 73.9341 331.096 74.5152 331.37 75.0036L330.506 76.0292L328.55 75.7344C328.463 75.1971 328.196 74.7167 327.791 74.3726C327.417 74.0525 326.946 73.8643 326.444 73.834C325.942 73.8037 325.434 73.9328 324.99 74.2034C324.546 74.474 324.188 74.8728 323.966 75.3443C323.744 75.8159 323.669 76.3369 323.751 76.835C323.833 77.3332 324.069 77.7839 324.425 78.1246C324.781 78.4652 325.239 78.679 325.738 78.7363C326.236 78.7935 326.748 78.6914 327.205 78.4441C327.661 78.1968 328.038 77.8165 328.284 77.356L330.176 77.6408L330.778 79.4564C330.372 79.7758 330.066 80.2091 329.903 80.6965C329.741 81.184 329.729 81.7014 329.87 82.1775C330.011 82.6536 330.298 83.0648 330.69 83.3544C331.083 83.644 331.563 83.7976 332.063 83.7941C332.563 83.7907 333.059 83.6302 333.482 83.3349C333.905 83.0396 334.235 82.6241 334.426 82.1457C334.617 81.6673 334.659 81.1496 334.547 80.6641C334.436 80.1786 334.175 79.7492 333.802 79.4353ZM325.64 76.9269C325.521 76.8268 325.436 76.6915 325.396 76.538C325.357 76.3846 325.364 76.22 325.416 76.065C325.469 75.91 325.566 75.7715 325.693 75.6672C325.821 75.5629 325.974 75.4973 326.133 75.4788C326.292 75.4603 326.451 75.4897 326.588 75.5632C326.725 75.6368 326.835 75.7513 326.905 75.8921C326.974 76.0329 326.999 76.1939 326.976 76.3545C326.954 76.5151 326.885 76.6683 326.779 76.7946C326.636 76.964 326.436 77.0731 326.222 77.0979C326.009 77.1227 325.799 77.0612 325.64 76.9269ZM334.024 73.0724C334.143 73.1725 334.227 73.3079 334.267 73.4613C334.307 73.6147 334.3 73.7793 334.247 73.9343C334.194 74.0893 334.098 74.2278 333.971 74.3321C333.843 74.4364 333.69 74.502 333.531 74.5205C333.371 74.539 333.213 74.5096 333.076 74.4361C332.938 74.3625 332.828 74.2481 332.759 74.1072C332.69 73.9664 332.665 73.8055 332.687 73.6448C332.71 73.4842 332.779 73.331 332.885 73.2047C333.028 73.0353 333.228 72.9263 333.441 72.9014C333.655 72.8766 333.864 72.9381 334.024 73.0724ZM331.65 81.9896C331.531 81.8895 331.446 81.7542 331.407 81.6007C331.367 81.4473 331.374 81.2827 331.427 81.1277C331.479 80.9727 331.576 80.8342 331.703 80.7299C331.831 80.6256 331.984 80.56 332.143 80.5415C332.302 80.523 332.461 80.5524 332.598 80.6259C332.735 80.6995 332.846 80.814 332.915 80.9548C332.984 81.0956 333.009 81.2566 332.986 81.4172C332.964 81.5778 332.895 81.731 332.789 81.8573C332.646 82.0267 332.446 82.1358 332.232 82.1606C332.019 82.1854 331.809 82.1239 331.65 81.9896Z" fill="#4A35B1" fill-opacity="0.54"/>
<path d="M321.874 81.3969C320.123 79.9184 319.067 77.7621 318.936 75.4012C318.806 73.0403 319.613 70.6675 321.18 68.8035L328.505 60.1072L338.067 62.1574L341.537 70.7972L340.037 71.4859L336.865 63.5852L329.043 61.909L322.382 69.816C321.483 70.8833 320.881 72.1652 320.644 73.5181C320.408 74.871 320.545 76.2413 321.041 77.4756C321.538 78.7098 322.373 79.7593 323.455 80.5063C324.536 81.2532 325.82 81.6683 327.163 81.7048L327.024 83.3334C325.111 83.2868 323.302 82.6067 321.874 81.3969Z" fill="#4A35B1" fill-opacity="0.54"/>
</g>
<g clip-path="url(#clip8_417_3486)">
<path d="M69.7018 61.1834C69.2946 60.8431 68.7834 60.6517 68.2528 60.6409L67.5899 58.8115L68.4029 57.8463C68.9234 58.0423 69.4963 58.048 70.0206 57.8624C70.5448 57.6768 70.9866 57.3119 71.2678 56.8321C71.549 56.3523 71.6515 55.7885 71.5572 55.2405C71.463 54.6924 71.178 54.1953 70.7527 53.837C70.3273 53.4787 69.789 53.2823 69.2329 53.2826C68.6768 53.2828 68.1386 53.4796 67.7136 53.8382C67.2885 54.1968 67.004 54.6942 66.9101 55.2423C66.8163 55.7905 66.9193 56.3542 67.2009 56.8337L66.3878 57.799L64.4713 57.4577C64.3711 56.9363 64.096 56.4647 63.6916 56.1207C63.317 55.8008 62.8522 55.6054 62.3615 55.5616C61.8709 55.5178 61.3788 55.6277 60.9534 55.8762C60.5281 56.1246 60.1906 56.4993 59.9877 56.9481C59.7849 57.397 59.7268 57.8979 59.8214 58.3813C59.916 58.8648 60.1587 59.3067 60.5159 59.646C60.873 59.9853 61.3269 60.205 61.8145 60.2747C62.3021 60.3445 62.7994 60.2607 63.2373 60.0351C63.6752 59.8095 64.032 59.4533 64.2583 59.0157L66.1125 59.3456L66.7531 61.1162C66.3658 61.4128 66.0801 61.8224 65.9355 62.2883C65.7909 62.7542 65.7945 63.2536 65.9459 63.7174C66.0972 64.1812 66.3888 64.5865 66.7803 64.8775C67.1719 65.1685 67.6442 65.3308 68.1319 65.3419C68.6196 65.353 69.0988 65.2125 69.5032 64.9396C69.9076 64.6668 70.2174 64.2751 70.3897 63.8187C70.562 63.3623 70.5884 62.8636 70.4652 62.3916C70.3419 61.9195 70.0752 61.4974 69.7018 61.1834ZM61.6665 58.5248C61.5476 58.4247 61.4611 58.2915 61.4179 58.1422C61.3747 57.9929 61.3768 57.8342 61.4238 57.686C61.4708 57.5379 61.5607 57.407 61.6821 57.31C61.8035 57.2129 61.9509 57.154 62.1058 57.1408C62.2606 57.1275 62.416 57.1605 62.5521 57.2355C62.6882 57.3105 62.799 57.4242 62.8705 57.5622C62.942 57.7002 62.971 57.8563 62.9538 58.0108C62.9366 58.1653 62.8739 58.3112 62.7738 58.43C62.6395 58.5894 62.4474 58.689 62.2398 58.7067C62.0321 58.7245 61.8259 58.6591 61.6665 58.5248ZM69.7343 55.0459C69.8532 55.146 69.9397 55.2792 69.9829 55.4285C70.0261 55.5778 70.0241 55.7365 69.9771 55.8847C69.9301 56.0328 69.8402 56.1637 69.7188 56.2607C69.5974 56.3578 69.4499 56.4167 69.2951 56.4299C69.1402 56.4432 68.9849 56.4102 68.8488 56.3352C68.7127 56.2602 68.6018 56.1465 68.5303 56.0085C68.4588 55.8705 68.4299 55.7144 68.4471 55.5599C68.4643 55.4054 68.5269 55.2595 68.627 55.1407C68.7613 54.9813 68.9534 54.8817 69.1611 54.864C69.3687 54.8462 69.5749 54.9116 69.7343 55.0459ZM67.6768 63.5875C67.5579 63.4874 67.4714 63.3542 67.4282 63.2049C67.385 63.0556 67.387 62.8969 67.434 62.7487C67.481 62.6006 67.5709 62.4697 67.6923 62.3727C67.8137 62.2756 67.9612 62.2167 68.116 62.2035C68.2709 62.1902 68.4262 62.2232 68.5623 62.2982C68.6984 62.3732 68.8093 62.4869 68.8808 62.6249C68.9523 62.7629 68.9812 62.919 68.964 63.0735C68.9468 63.228 68.8842 63.3739 68.7841 63.4927C68.6498 63.6521 68.4577 63.7517 68.25 63.7694C68.0424 63.7872 67.8362 63.7218 67.6768 63.5875Z" fill="#4A35B1" fill-opacity="0.54"/>
<path d="M58.1226 62.7321C56.3714 61.2537 55.2782 59.141 55.0828 56.8575C54.8874 54.5741 55.6058 52.3063 57.0803 50.5519L63.9747 42.3672L73.3627 44.6239L76.998 53.0671L75.5549 53.6886L72.2306 45.9678L64.551 44.1226L58.2824 51.5644C57.4361 52.569 56.8862 53.7893 56.6944 55.0887C56.5026 56.3882 56.6764 57.7154 57.1965 58.9216C57.7165 60.1278 58.5622 61.1653 59.6387 61.9179C60.7152 62.6705 61.9801 63.1085 63.2915 63.1827L63.2032 64.7513C61.3347 64.6508 59.5504 63.9417 58.1226 62.7321Z" fill="#4A35B1" fill-opacity="0.54"/>
</g>
</g>
<defs>
<clipPath id="clip0_417_3486">
<rect x="21" width="335.862" height="280.355" rx="12" fill="white"/>
</clipPath>
<clipPath id="clip1_417_3486">
<rect width="38.4465" height="37.2814" fill="white" transform="translate(301.039 177.074) rotate(-30)"/>
</clipPath>
<clipPath id="clip2_417_3486">
<rect width="35" height="35" fill="white" transform="translate(97 16)"/>
</clipPath>
<clipPath id="clip3_417_3486">
<rect width="24.5008" height="23.7584" fill="white" transform="translate(222.884 38.4224) rotate(30)"/>
</clipPath>
<clipPath id="clip4_417_3486">
<rect width="38.4465" height="37.2814" fill="white" transform="translate(6.67554 91.5242) rotate(-30)"/>
</clipPath>
<clipPath id="clip5_417_3486">
<rect width="24.5008" height="23.7584" fill="white" transform="translate(97.7815 255.106) rotate(30)"/>
</clipPath>
<clipPath id="clip6_417_3486">
<rect width="24.5008" height="23.7584" fill="white" transform="translate(353.167 250.81) rotate(30)"/>
</clipPath>
<clipPath id="clip7_417_3486">
<rect width="25.1468" height="26.7184" fill="white" transform="translate(328.933 53.5005) rotate(40.109)"/>
</clipPath>
<clipPath id="clip8_417_3486">
<rect width="25.1468" height="25.1468" fill="white" transform="translate(64.2006 36) rotate(40.109)"/>
</clipPath>
</defs>
</svg>
