<svg width="17" height="17" viewBox="0 0 17 17" fill="none" xmlns="http://www.w3.org/2000/svg">
<path fill-rule="evenodd" clip-rule="evenodd" d="M14.5531 8.12305C14.5536 9.51869 14.0749 10.8722 13.197 11.9571C12.3191 13.0421 11.0953 13.7927 9.73029 14.0835C8.36527 14.3742 6.94181 14.1875 5.69799 13.5545C4.45417 12.9215 3.46541 11.8806 2.89709 10.6059L1.01398 11.3708C1.76048 13.0812 3.07312 14.4825 4.73121 15.339C6.3893 16.1955 8.29172 16.4551 10.1186 16.074C11.9456 15.6929 13.5856 14.6944 14.763 13.2465C15.9404 11.7985 16.5833 9.9893 16.5838 8.12305C16.5839 6.42776 16.0535 4.77492 15.067 3.39619C14.0806 2.01746 12.6874 0.981939 11.0829 0.434748C9.47832 -0.112443 7.74276 -0.143874 6.11945 0.344858C4.49613 0.833591 3.06641 1.81799 2.03067 3.1601V0.677269H0V6.09238L1.01533 7.10772H5.75356V5.07705H3.18409C3.85435 3.91506 4.8894 3.00679 6.12862 2.49319C7.36785 1.97958 8.74194 1.88935 10.0377 2.23651C11.3334 2.58366 12.4784 3.34879 13.2948 4.41316C14.1113 5.47752 14.5536 6.78161 14.5531 8.12305V8.12305Z" fill="#343434"/>
</svg>
