<svg width="1440" height="553" viewBox="0 0 1440 553" fill="none" xmlns="http://www.w3.org/2000/svg">
<g opacity="0.3">
<circle cx="1250.13" cy="4.12565" r="4.12556" fill="#F3F3F3"/>
<circle cx="1310.63" cy="4.12556" r="4.12556" fill="#F3F3F3"/>
<circle cx="1371.14" cy="4.12556" r="4.12556" fill="#F3F3F3"/>
<circle cx="1431.65" cy="4.12556" r="4.12556" fill="#F3F3F3"/>
<circle cx="1250.13" cy="64.6338" r="4.12556" fill="#F3F3F3"/>
<circle cx="1310.63" cy="64.6338" r="4.12556" fill="#F3F3F3"/>
<circle cx="1371.14" cy="64.6338" r="4.12556" fill="#F3F3F3"/>
<circle cx="1431.65" cy="64.6338" r="4.12556" fill="#F3F3F3"/>
<circle cx="1250.13" cy="125.142" r="4.12556" fill="#F3F3F3"/>
<circle cx="1310.63" cy="125.142" r="4.12556" fill="#F3F3F3"/>
<circle cx="1371.14" cy="125.142" r="4.12556" fill="#F3F3F3"/>
<circle cx="1431.65" cy="125.142" r="4.12556" fill="#F3F3F3"/>
<circle cx="1250.13" cy="185.65" r="4.12556" fill="#F3F3F3"/>
<circle cx="1310.63" cy="185.65" r="4.12556" fill="#F3F3F3"/>
<circle cx="1371.14" cy="185.65" r="4.12556" fill="#F3F3F3"/>
<circle cx="1431.65" cy="185.65" r="4.12556" fill="#F3F3F3"/>
<circle cx="1250.13" cy="246.158" r="4.12556" fill="#F3F3F3"/>
<circle cx="1310.63" cy="246.158" r="4.12556" fill="#F3F3F3"/>
<circle cx="1371.14" cy="246.158" r="4.12556" fill="#F3F3F3"/>
<circle cx="1431.65" cy="246.158" r="4.12556" fill="#F3F3F3"/>
<circle cx="1250.13" cy="306.667" r="4.12556" fill="#F3F3F3"/>
<circle cx="1310.63" cy="306.667" r="4.12556" fill="#F3F3F3"/>
<circle cx="1371.14" cy="306.667" r="4.12556" fill="#F3F3F3"/>
<circle cx="1431.65" cy="306.667" r="4.12556" fill="#F3F3F3"/>
<circle cx="1250.13" cy="367.175" r="4.12556" fill="#F3F3F3"/>
<circle cx="1310.63" cy="367.175" r="4.12556" fill="#F3F3F3"/>
<circle cx="1371.14" cy="367.175" r="4.12556" fill="#F3F3F3"/>
<circle cx="1431.65" cy="367.175" r="4.12556" fill="#F3F3F3"/>
<circle cx="1250.13" cy="427.683" r="4.12556" fill="#F3F3F3"/>
<circle cx="1310.63" cy="427.683" r="4.12556" fill="#F3F3F3"/>
<circle cx="1371.14" cy="427.683" r="4.12556" fill="#F3F3F3"/>
<circle cx="1431.65" cy="427.683" r="4.12556" fill="#F3F3F3"/>
<circle cx="1250.13" cy="488.191" r="4.12556" fill="#F3F3F3"/>
<circle cx="1310.63" cy="488.191" r="4.12556" fill="#F3F3F3"/>
<circle cx="1371.14" cy="488.191" r="4.12556" fill="#F3F3F3"/>
<circle cx="1431.65" cy="488.191" r="4.12556" fill="#F3F3F3"/>
<circle cx="1250.13" cy="548.699" r="4.12556" fill="#F3F3F3"/>
<circle cx="1310.63" cy="548.699" r="4.12556" fill="#F3F3F3"/>
<circle cx="1371.14" cy="548.699" r="4.12556" fill="#F3F3F3"/>
<circle cx="1431.65" cy="548.699" r="4.12556" fill="#F3F3F3"/>
</g>
<g opacity="0.3">
<path d="M-38.9157 227.199C-37.9562 226.79 -36.9915 226.39 -36.0219 226H76.0219C76.9916 226.39 77.9562 226.79 78.9157 227.199H-38.9157Z" fill="#F3F3F3"/>
<path d="M-61.4618 239.191C-60.8368 238.787 -60.2085 238.387 -59.5771 237.992H99.5771C100.209 238.387 100.837 238.787 101.462 239.191H-61.4618Z" fill="#F3F3F3"/>
<path d="M-77.5417 251.183C-77.0709 250.78 -76.5974 250.38 -76.1215 249.983H116.122C116.597 250.38 117.071 250.78 117.542 251.183H-77.5417Z" fill="#F3F3F3"/>
<path d="M-90.038 263.174C-89.6648 262.772 -89.2893 262.373 -88.9118 261.975H128.912C129.289 262.373 129.665 262.772 130.038 263.174H-90.038Z" fill="#F3F3F3"/>
<path d="M-100.071 275.166C-99.7695 274.765 -99.4658 274.365 -99.1601 273.967H139.16C139.466 274.365 139.77 274.765 140.071 275.166H-100.071Z" fill="#F3F3F3"/>
<path d="M-108.215 287.158C-107.97 286.757 -107.723 286.357 -107.475 285.959H147.475C147.723 286.357 147.97 286.757 148.215 287.158H-108.215Z" fill="#F3F3F3"/>
<path d="M-114.805 299.149C-114.608 298.749 -114.409 298.349 -114.209 297.95H154.209C154.409 298.349 154.608 298.749 154.805 299.149H-114.805Z" fill="#F3F3F3"/>
<path d="M-120.056 311.141C-119.902 310.741 -119.745 310.341 -119.587 309.942H159.587C159.745 310.341 159.902 310.741 160.057 311.141H-120.056Z" fill="#F3F3F3"/>
<path d="M-124.113 323.133C-123.996 322.732 -123.878 322.333 -123.758 321.934H163.758C163.878 322.333 163.996 322.732 164.113 323.133H-124.113Z" fill="#F3F3F3"/>
<path d="M-127.073 335.124C-126.992 334.724 -126.909 334.324 -126.824 333.925H166.824C166.909 334.324 166.992 334.724 167.073 335.124H-127.073Z" fill="#F3F3F3"/>
<path d="M-129.006 347.116C-128.958 346.716 -128.909 346.316 -128.857 345.917H168.857C168.909 346.316 168.958 346.716 169.006 347.116H-129.006Z" fill="#F3F3F3"/>
<path d="M-129.958 359.108C-129.942 358.708 -129.924 358.308 -129.906 357.909H169.906C169.924 358.308 169.942 358.708 169.958 359.108H-129.958Z" fill="#F3F3F3"/>
<path d="M-129.958 371.1C-129.973 370.7 -129.987 370.301 -130 369.9H170C169.987 370.301 169.973 370.7 169.958 371.1H-129.958Z" fill="#F3F3F3"/>
<path d="M-129.006 383.091C-129.054 382.692 -129.1 382.292 -129.145 381.892H169.145C169.1 382.292 169.054 382.692 169.006 383.091H-129.006Z" fill="#F3F3F3"/>
<path d="M-127.073 395.083C-127.154 394.684 -127.234 394.284 -127.312 393.884H167.312C167.234 394.284 167.154 394.684 167.073 395.083H-127.073Z" fill="#F3F3F3"/>
<path d="M-124.113 407.075C-124.229 406.676 -124.344 406.276 -124.457 405.876H164.457C164.344 406.276 164.229 406.676 164.113 407.075H-124.113Z" fill="#F3F3F3"/>
<path d="M-120.056 419.066C-120.211 418.667 -120.363 418.268 -120.514 417.867H160.514C160.363 418.268 160.211 418.667 160.057 419.066H-120.056Z" fill="#F3F3F3"/>
<path d="M-114.805 431.058C-115.001 430.659 -115.195 430.26 -115.388 429.859H155.388C155.195 430.26 155.001 430.659 154.805 431.058H-114.805Z" fill="#F3F3F3"/>
<path d="M-108.215 443.05C-108.458 442.651 -108.7 442.252 -108.939 441.851H148.939C148.7 442.252 148.458 442.651 148.215 443.05H-108.215Z" fill="#F3F3F3"/>
<path d="M-100.071 455.041C-100.371 454.643 -100.668 454.244 -100.964 453.842H140.964C140.668 454.244 140.371 454.643 140.071 455.041H-100.071Z" fill="#F3F3F3"/>
<path d="M-90.038 467.033C-90.4075 466.635 -90.7748 466.236 -91.14 465.834H131.14C130.775 466.236 130.407 466.635 130.038 467.033H-90.038Z" fill="#F3F3F3"/>
<path d="M-77.5417 479.025C-78.006 478.628 -78.4678 478.228 -78.9272 477.826H118.927C118.468 478.228 118.006 478.628 117.542 479.025H-77.5417Z" fill="#F3F3F3"/>
<path d="M-61.4618 491.017C-62.0732 490.621 -62.6815 490.221 -63.2867 489.817H103.287C102.682 490.221 102.073 490.621 101.462 491.017H-61.4618Z" fill="#F3F3F3"/>
<path d="M-38.9157 503.008C-39.8317 502.617 -40.743 502.218 -41.6496 501.809H81.6496C80.7431 502.218 79.8317 502.617 78.9157 503.008H-38.9157Z" fill="#F3F3F3"/>
<path d="M39.0736 513.801C32.8274 514.592 26.4614 515 20 515C13.5386 515 7.17264 514.592 0.926422 513.801H39.0736Z" fill="#F3F3F3"/>
</g>
</svg>
