<svg width="76" height="76" viewBox="0 0 76 76" fill="none" xmlns="http://www.w3.org/2000/svg">
<circle cx="38" cy="38" r="38" fill="white"/>
<circle cx="38" cy="38" r="37.1" stroke="#6B4EFF" stroke-opacity="0.3" stroke-width="1.8"/>
<g clip-path="url(#clip0_29_3243)">
<path fill-rule="evenodd" clip-rule="evenodd" d="M22.9716 17.5712C22.5034 17.3339 21.8793 17.6091 22.1396 18.2364C22.4185 18.9081 23.4496 18.9164 24.032 18.9031C23.9737 18.8999 23.786 18.284 23.7217 18.1909C23.5322 17.9163 23.2594 17.7173 22.9716 17.5712ZM28.3657 29.6144C28.3753 29.6241 28.4838 29.7176 28.3657 29.6144ZM22.5206 20.6094C22.2466 20.8234 22.2335 21.2014 22.4573 21.4572C22.7238 21.7617 23.2104 21.7507 23.5737 21.721C23.738 21.7075 24.6153 21.6357 24.4073 21.489C24.4233 21.4952 24.4567 21.5101 24.4925 21.5305C24.5117 21.6024 24.5319 21.674 24.553 21.7453C24.5478 21.7483 24.5434 21.7517 24.5379 21.7547C24.5439 21.752 24.5481 21.7492 24.5533 21.7464C24.7643 22.4589 25.0646 23.1373 25.4579 23.772C25.3107 23.7128 25.1584 23.668 25.0038 23.648C24.5461 23.5888 23.5833 23.9524 24.0952 24.5753C24.5861 25.1724 25.3504 24.5318 25.9075 24.4434C26.4479 25.2143 27.0437 25.9531 27.6681 26.6672C27.6299 26.6795 27.5963 26.705 27.577 26.7447C27.3265 26.6148 27.0655 26.429 26.8337 26.3787C26.4991 26.3062 25.8132 26.2622 25.5603 26.5683C25.2493 26.9446 25.5827 27.2503 25.9501 27.3225C26.4829 27.4272 27.1803 27.1611 27.6929 26.9814C27.7515 26.992 27.8156 26.9744 27.8538 26.9265C27.8651 26.9227 27.8765 26.919 27.8875 26.9153C28.5198 27.6259 29.1763 28.3131 29.8288 28.9852C29.8219 28.9848 29.8149 28.9844 29.8077 28.984C29.6375 28.8699 29.4549 28.7763 29.257 28.7272C28.7992 28.6132 28.2606 28.6126 27.8891 28.9512C27.519 29.2883 27.3879 29.8779 27.7708 30.2565C28.5371 31.0142 29.6661 29.2865 30.0527 29.2144C30.7158 29.8902 31.417 30.5216 32.1291 31.1403C32.0483 31.1152 31.9653 31.0967 31.8796 31.0883C31.1812 31.02 29.542 31.8951 30.3991 32.7561C31.146 33.5064 32.0104 32.0623 32.6123 31.5573C33.2834 32.1339 33.9582 32.7066 34.614 33.3016C34.2563 33.2046 33.9106 33.1903 33.5272 33.3087C33.1304 33.4314 32.4902 33.7376 32.741 34.2852C32.9961 34.842 33.7649 34.5886 34.1653 34.4118C34.3837 34.3154 34.8216 33.99 35.2061 33.8529C36.2526 34.8628 37.159 35.9751 37.8453 37.2854C38.2737 38.1035 38.5988 38.9776 38.8276 39.8759C38.9737 40.4493 39.2615 41.4124 39.2039 42.1587C39.4785 40.6648 38.982 38.8707 38.447 37.5354C37.9552 36.3076 37.2191 35.2297 36.3569 34.2595C36.5733 33.5943 38.3944 32.635 37.3057 32.017C36.7276 31.6903 36.1355 32.2324 36.0091 32.8066C35.9223 33.2012 36.0545 33.697 36.1949 34.08C35.9237 33.7842 35.6417 33.498 35.3512 33.2212C34.9497 32.8387 34.5385 32.4673 34.1234 32.1006C34.8074 31.4438 35.4547 29.5663 34.5377 29.2592C33.1834 28.807 33.8355 31.3681 33.93 31.8481C33.9568 31.8498 33.9777 31.8415 33.9931 31.8237C33.9855 31.8677 33.9766 31.9147 33.9659 31.9621C33.1715 31.2639 32.3653 30.5794 31.5856 29.8645C31.6559 29.8114 31.7675 29.6087 31.8553 29.5007C32.0534 29.2574 32.2429 29.0033 32.3814 28.7186C32.6001 28.2689 32.8111 27.5514 32.2312 27.2869C31.6005 26.9986 31.3008 27.81 31.2964 28.2941C31.2934 28.6289 31.3826 28.9469 31.4291 29.2751C31.4436 29.3774 31.3877 29.8387 31.5241 29.6403C31.5176 29.7135 31.5167 29.7665 31.5199 29.804C31.3799 29.675 31.241 29.5446 31.103 29.4133C31.1094 29.3967 31.1141 29.3787 31.1152 29.3577C31.1226 29.2134 30.9806 29.1578 30.8809 29.2001C30.6988 29.0232 30.5185 28.8441 30.3414 28.6614C29.966 28.2744 29.5851 27.8763 29.2069 27.4698C29.289 27.3977 29.2564 27.2979 29.3331 27.2214C29.4097 27.1451 29.5606 27.1029 29.6507 27.032C29.8773 26.8536 30.0652 26.5937 30.2011 26.3379C30.4254 25.9152 30.7153 25.0286 30.06 24.8271C29.3844 24.6192 29.0415 25.4727 28.9981 26.0063C28.9896 26.1097 29.0654 27.0411 29.1233 27.3794C28.4235 26.6238 27.7352 25.8399 27.1117 25.0424C27.3007 25.0406 27.8368 24.6447 27.9451 24.5366C28.2096 24.2731 28.6299 23.6908 28.1663 23.3827C27.7541 23.1094 27.2461 23.5052 27.0698 23.8899C27.0409 23.9533 26.9387 24.5429 26.9307 24.8075C26.6726 24.4693 26.4264 24.1291 26.1974 23.7878C26.0446 23.5609 25.9019 23.328 25.7683 23.0901C25.8005 23.0715 25.8307 23.039 25.8593 22.9986C26.5467 22.8794 27.4232 21.7831 26.6157 21.4016C26.2313 21.2203 25.8143 21.5947 25.626 21.9012C25.5874 21.9639 25.5249 22.2792 25.4741 22.5279C25.0898 21.7399 24.7962 20.9057 24.5727 20.0504C24.6326 20.0353 24.6832 19.9885 24.6899 19.9082C25.0237 19.7137 25.2872 19.5517 25.5202 19.1778C25.665 18.9455 25.9256 18.4148 25.5003 18.2858C24.9469 18.1181 24.5992 18.9821 24.5539 19.4077C24.5487 19.4571 24.5489 19.6008 24.5507 19.7325C24.5315 19.7298 24.512 19.7301 24.493 19.7335C24.3659 19.2039 24.2644 18.6675 24.1837 18.1302C24.4858 18.0308 24.538 16.4092 24.3369 16.1783C23.8873 15.6613 23.5702 16.4081 23.5942 16.8029C23.6225 17.2683 23.8288 17.6916 24.0745 18.0674C24.1009 18.1072 24.0934 18.1052 24.1002 18.0498C24.104 18.0772 24.1129 18.0974 24.1262 18.1121C24.1136 18.357 24.0889 18.6079 24.1007 18.8246C24.1347 19.4455 24.2055 20.0699 24.3082 20.6827C24.3332 20.8317 24.3618 20.9796 24.3939 21.1261C24.1511 20.9147 23.8237 20.7268 23.6956 20.6681C23.3632 20.5158 22.8508 20.3513 22.5206 20.6094ZM39.2429 42.1608C39.2275 42.3773 39.1892 42.5755 39.1179 42.739C39.1714 42.5529 39.2124 42.3594 39.2429 42.1608Z" fill="#4CAF50"/>
<g opacity="0.7">
<path opacity="0.7" fill-rule="evenodd" clip-rule="evenodd" d="M32.0782 32.2335C33.3785 32.1646 34.9865 32.9403 35.1252 34.3849C35.226 35.4346 35.1948 36.4812 35.3507 37.5292C35.4754 38.3669 35.7391 39.171 36.0988 39.9339C36.4447 40.6676 37.1621 41.2922 37.3487 42.076C37.4677 42.5754 37.4011 43.278 37.2371 43.7665C37.0376 44.3605 37.1436 44.3135 37.5411 44.8119C38.3199 45.7886 39.0212 46.7902 39.5171 47.9567C40.2314 49.6369 40.6997 51.6008 40.4346 53.44C40.4009 53.6735 40.3609 54.5117 40.0462 54.5702C39.6948 54.6357 39.8591 54.1564 39.8779 54.0016C39.9975 53.0136 40.1037 52.15 39.9595 51.1466C39.403 47.2751 36.6857 44.7244 34.9164 41.4386C34.8192 41.2691 34.6139 40.8656 34.4711 40.5994C34.2457 40.1792 34.0191 39.3795 33.714 39.0679C33.1393 38.4808 33.6676 39.661 33.7796 39.8863C33.9212 40.1713 34.0769 40.4742 34.222 40.724C34.8858 41.8816 35.6268 43.1452 36.3123 44.3384C33.3473 45.029 31.2591 41.3855 30.4634 38.9901C29.8078 37.0165 29.0234 32.4024 32.0782 32.2335Z" fill="#4CAF50"/>
<path opacity="0.7" fill-rule="evenodd" clip-rule="evenodd" d="M49.5053 28.5694C47.3317 28.7457 45.9363 30.2117 45.2868 32.2621C44.9367 33.3671 44.8965 34.5023 44.702 35.6379C44.4093 37.3464 43.7796 38.6411 42.549 39.8583C42.1678 40.2352 41.8869 40.6223 41.6873 41.0364C41.2909 41.4498 40.9458 41.9177 40.6923 42.4897C40.3685 43.2202 40.2769 44.0966 40.6508 44.8249C40.7513 45.0207 41.002 45.4137 41.262 45.5923C40.2889 47.7105 39.7539 50.0304 39.8142 52.3474C39.8506 53.746 39.9174 55.1452 39.9953 56.5421C40.0163 56.9172 40.1358 57.5366 40.3153 56.9075C40.4796 56.3322 40.2736 55.4289 40.2545 54.8278C40.1618 51.8996 40.0825 49.2371 41.2618 46.5013C41.3855 46.2146 41.5166 45.9302 41.6531 45.648C41.6611 45.6432 41.6686 45.6375 41.6761 45.6319C41.6813 45.636 41.6861 45.6405 41.6913 45.6445C41.7 45.6286 41.7119 45.6097 41.7259 45.5885C41.765 45.5472 41.7992 45.495 41.8317 45.4367C41.9363 45.2886 42.0547 45.1145 42.0554 45.0192C42.0554 45.0185 42.055 45.0173 42.055 45.0166C42.785 43.7985 43.6212 42.6475 44.4753 41.5191C44.4689 41.5273 45.4018 40.229 45.2575 40.947C45.188 41.293 44.5018 41.9518 44.2247 42.3183C43.6117 43.1336 42.8918 44.1667 42.2936 45.1656C42.2131 45.2129 42.0993 45.4451 42.0171 45.618C41.9717 45.7056 41.9293 45.794 41.8877 45.8709C44.0073 46.5867 45.6562 45.1448 46.7806 43.4677C46.782 43.4658 46.7832 43.4637 46.7844 43.4618C47.1266 42.9983 47.4771 42.5382 47.915 42.1719C48.6455 41.5606 49.4279 41.4528 50.2892 41.1519C52.6381 40.3316 53.6368 37.2201 53.954 34.9113C54.3119 32.3066 52.5614 28.3126 49.5053 28.5694Z" fill="#6B4EFF"/>
<path opacity="0.7" fill-rule="evenodd" clip-rule="evenodd" d="M45.2116 21.2749C42.9808 23.6481 41.903 26.9397 41.0496 30.0341C40.0965 33.4903 39.4669 36.9998 39.4428 40.5932C39.4269 42.9541 39.3641 45.3297 39.4989 47.6878C39.5467 48.5253 39.6284 49.3642 39.7583 50.1927C39.769 50.2608 40.0595 52.1106 40.3375 51.6796C40.4957 51.4345 40.0397 49.7606 40.0052 49.4818C39.8114 47.9116 39.7664 46.3298 39.7759 44.7482C39.7914 42.1442 39.7163 39.5535 39.9745 36.959C40.013 36.5717 40.0435 36.1648 40.1335 35.7859C40.2291 35.383 40.1073 35.5589 40.4187 35.3994C40.7212 35.2443 41.095 35.2664 41.4089 35.0719C42.6539 34.3003 43.2908 32.3182 43.7864 31.0177C44.3534 29.5304 44.698 27.9445 44.9732 26.3795C45.1753 25.2296 45.3198 24.0866 45.4015 22.9219C45.4273 22.5549 45.4288 22.171 45.4994 21.8101C45.5184 21.7127 45.6138 21.5405 45.6103 21.4542C45.603 21.2718 45.4952 21.1644 45.4864 21.0111C45.393 21.097 45.3014 21.185 45.2116 21.2749Z" fill="#6B4EFF"/>
<path opacity="0.7" fill-rule="evenodd" clip-rule="evenodd" d="M33.0476 52.8936C33.0476 56.8182 36.1603 59.9998 40 59.9998C43.8397 59.9998 46.9524 56.8182 46.9524 52.8936" fill="black"/>
<path opacity="0.7" fill-rule="evenodd" clip-rule="evenodd" d="M40.5578 52.9158H40.1904C40.2159 52.4447 40.2496 51.9744 40.3266 51.5086C40.6213 49.7269 41.5428 47.11 43.5638 46.8208C43.6383 46.8101 43.9126 46.8082 44.2448 46.8282C44.4023 46.7382 44.5787 46.6838 44.7645 46.6713C46.4852 46.5417 48.4067 47.9606 49.2367 49.4371C49.9058 50.6276 49.7931 52.1908 49.3798 53.4556C49.1031 54.3024 48.4991 55.5096 47.4918 55.5214C46.2317 55.5361 46.1709 53.9441 46.1465 53.0135C46.1141 51.7762 45.9612 50.6983 45.0073 49.855C44.785 49.6585 44.542 49.4856 44.3175 49.2919C43.9658 48.9886 43.5773 48.6781 43.532 48.1764C43.4694 47.4843 43.8517 47.3597 44.4353 47.4883C44.5348 47.5102 45.537 47.9698 45.3886 47.6065C45.3433 47.4955 45.1778 47.4076 44.969 47.3417C44.4286 47.2816 43.7841 47.212 43.5987 47.2536C41.5992 47.702 40.8206 50.533 40.6139 52.3318C40.5916 52.5259 40.5735 52.7207 40.5578 52.9158V52.9158Z" fill="#4CAF50"/>
</g>
</g>
<defs>
<clipPath id="clip0_29_3243">
<rect width="32" height="44" fill="white" transform="translate(22 16)"/>
</clipPath>
</defs>
</svg>
