<svg width="180" height="161" viewBox="0 0 180 161" fill="none" xmlns="http://www.w3.org/2000/svg">
<g opacity="0.3">
<ellipse cx="2.96593" cy="158.159" rx="2.64418" ry="2.64269" transform="rotate(-90 2.96593 158.159)" fill="#F3F3F3"/>
<ellipse cx="2.96593" cy="119.378" rx="2.64418" ry="2.64269" transform="rotate(-90 2.96593 119.378)" fill="#F3F3F3"/>
<ellipse cx="2.96593" cy="80.5968" rx="2.64418" ry="2.64269" transform="rotate(-90 2.96593 80.5968)" fill="#F3F3F3"/>
<ellipse cx="2.96593" cy="41.8155" rx="2.64418" ry="2.64269" transform="rotate(-90 2.96593 41.8155)" fill="#F3F3F3"/>
<ellipse cx="2.96593" cy="3.03429" rx="2.64418" ry="2.64269" transform="rotate(-90 2.96593 3.03429)" fill="#F3F3F3"/>
<ellipse cx="41.7257" cy="158.159" rx="2.64418" ry="2.64269" transform="rotate(-90 41.7257 158.159)" fill="#F3F3F3"/>
<ellipse cx="41.7257" cy="119.378" rx="2.64418" ry="2.64269" transform="rotate(-90 41.7257 119.378)" fill="#F3F3F3"/>
<ellipse cx="41.7257" cy="80.5968" rx="2.64418" ry="2.64269" transform="rotate(-90 41.7257 80.5968)" fill="#F3F3F3"/>
<ellipse cx="41.7257" cy="41.8155" rx="2.64418" ry="2.64269" transform="rotate(-90 41.7257 41.8155)" fill="#F3F3F3"/>
<ellipse cx="41.7257" cy="3.03429" rx="2.64418" ry="2.64269" transform="rotate(-90 41.7257 3.03429)" fill="#F3F3F3"/>
<ellipse cx="80.4855" cy="158.159" rx="2.64418" ry="2.64269" transform="rotate(-90 80.4855 158.159)" fill="#F3F3F3"/>
<ellipse cx="80.4855" cy="119.378" rx="2.64418" ry="2.64269" transform="rotate(-90 80.4855 119.378)" fill="#F3F3F3"/>
<ellipse cx="80.4855" cy="80.5968" rx="2.64418" ry="2.64269" transform="rotate(-90 80.4855 80.5968)" fill="#F3F3F3"/>
<ellipse cx="80.4855" cy="41.8155" rx="2.64418" ry="2.64269" transform="rotate(-90 80.4855 41.8155)" fill="#F3F3F3"/>
<ellipse cx="80.4855" cy="3.03429" rx="2.64418" ry="2.64269" transform="rotate(-90 80.4855 3.03429)" fill="#F3F3F3"/>
<ellipse cx="119.244" cy="158.159" rx="2.64418" ry="2.64269" transform="rotate(-90 119.244 158.159)" fill="#F3F3F3"/>
<ellipse cx="119.244" cy="119.378" rx="2.64418" ry="2.64269" transform="rotate(-90 119.244 119.378)" fill="#F3F3F3"/>
<ellipse cx="119.244" cy="80.5968" rx="2.64418" ry="2.64269" transform="rotate(-90 119.244 80.5968)" fill="#F3F3F3"/>
<ellipse cx="119.244" cy="41.8155" rx="2.64418" ry="2.64269" transform="rotate(-90 119.244 41.8155)" fill="#F3F3F3"/>
<ellipse cx="119.244" cy="3.03429" rx="2.64418" ry="2.64269" transform="rotate(-90 119.244 3.03429)" fill="#F3F3F3"/>
<ellipse cx="158.005" cy="158.159" rx="2.64418" ry="2.64269" transform="rotate(-90 158.005 158.159)" fill="#F3F3F3"/>
<ellipse cx="158.004" cy="119.378" rx="2.64418" ry="2.64269" transform="rotate(-90 158.004 119.378)" fill="#F3F3F3"/>
<ellipse cx="158.004" cy="80.5968" rx="2.64418" ry="2.64269" transform="rotate(-90 158.004 80.5968)" fill="#F3F3F3"/>
<ellipse cx="158.004" cy="41.8155" rx="2.64418" ry="2.64269" transform="rotate(-90 158.004 41.8155)" fill="#F3F3F3"/>
<ellipse cx="158.004" cy="3.03429" rx="2.64418" ry="2.64269" transform="rotate(-90 158.004 3.03429)" fill="#F3F3F3"/>
</g>
</svg>
