<svg width="473" height="214" viewBox="0 0 473 214" fill="none" xmlns="http://www.w3.org/2000/svg">
<circle cx="468.636" cy="3.72207" r="3.52358" transform="rotate(90 468.636 3.72207)" fill="#808080"/>
<circle cx="468.636" cy="55.4008" r="3.52358" transform="rotate(90 468.636 55.4008)" fill="#808080"/>
<circle cx="468.636" cy="107.08" r="3.52358" transform="rotate(90 468.636 107.08)" fill="#808080"/>
<circle cx="468.636" cy="158.759" r="3.52358" transform="rotate(90 468.636 158.759)" fill="#808080"/>
<circle cx="468.636" cy="210.438" r="3.52358" transform="rotate(90 468.636 210.438)" fill="#808080"/>
<circle cx="416.957" cy="3.72158" r="3.52358" transform="rotate(90 416.957 3.72158)" fill="#808080"/>
<circle cx="416.957" cy="55.4008" r="3.52358" transform="rotate(90 416.957 55.4008)" fill="#808080"/>
<circle cx="416.957" cy="107.08" r="3.52358" transform="rotate(90 416.957 107.08)" fill="#808080"/>
<circle cx="416.957" cy="158.759" r="3.52358" transform="rotate(90 416.957 158.759)" fill="#808080"/>
<circle cx="416.956" cy="210.438" r="3.52358" transform="rotate(90 416.956 210.438)" fill="#808080"/>
<circle cx="365.277" cy="3.72158" r="3.52358" transform="rotate(90 365.277 3.72158)" fill="#808080"/>
<circle cx="365.277" cy="55.4008" r="3.52358" transform="rotate(90 365.277 55.4008)" fill="#808080"/>
<circle cx="365.277" cy="107.08" r="3.52358" transform="rotate(90 365.277 107.08)" fill="#808080"/>
<circle cx="365.277" cy="158.759" r="3.52358" transform="rotate(90 365.277 158.759)" fill="#808080"/>
<circle cx="365.277" cy="210.438" r="3.52358" transform="rotate(90 365.277 210.438)" fill="#808080"/>
<circle cx="313.598" cy="3.72158" r="3.52358" transform="rotate(90 313.598 3.72158)" fill="#808080"/>
<circle cx="313.598" cy="55.4008" r="3.52358" transform="rotate(90 313.598 55.4008)" fill="#808080"/>
<circle cx="313.598" cy="107.08" r="3.52358" transform="rotate(90 313.598 107.08)" fill="#808080"/>
<circle cx="313.598" cy="158.759" r="3.52358" transform="rotate(90 313.598 158.759)" fill="#808080"/>
<circle cx="313.598" cy="210.438" r="3.52358" transform="rotate(90 313.598 210.438)" fill="#808080"/>
<circle cx="261.919" cy="3.72158" r="3.52358" transform="rotate(90 261.919 3.72158)" fill="#808080"/>
<circle cx="261.919" cy="55.4008" r="3.52358" transform="rotate(90 261.919 55.4008)" fill="#808080"/>
<circle cx="261.919" cy="107.08" r="3.52358" transform="rotate(90 261.919 107.08)" fill="#808080"/>
<circle cx="261.919" cy="158.759" r="3.52358" transform="rotate(90 261.919 158.759)" fill="#808080"/>
<circle cx="261.919" cy="210.438" r="3.52358" transform="rotate(90 261.919 210.438)" fill="#808080"/>
<circle cx="210.24" cy="3.72158" r="3.52358" transform="rotate(90 210.24 3.72158)" fill="#808080"/>
<circle cx="210.24" cy="55.4008" r="3.52358" transform="rotate(90 210.24 55.4008)" fill="#808080"/>
<circle cx="210.24" cy="107.08" r="3.52358" transform="rotate(90 210.24 107.08)" fill="#808080"/>
<circle cx="210.24" cy="158.759" r="3.52358" transform="rotate(90 210.24 158.759)" fill="#808080"/>
<circle cx="210.24" cy="210.438" r="3.52358" transform="rotate(90 210.24 210.438)" fill="#808080"/>
<circle cx="158.56" cy="3.72158" r="3.52358" transform="rotate(90 158.56 3.72158)" fill="#808080"/>
<circle cx="158.56" cy="55.4008" r="3.52358" transform="rotate(90 158.56 55.4008)" fill="#808080"/>
<circle cx="158.56" cy="107.08" r="3.52358" transform="rotate(90 158.56 107.08)" fill="#808080"/>
<circle cx="158.56" cy="158.759" r="3.52358" transform="rotate(90 158.56 158.759)" fill="#808080"/>
<circle cx="158.56" cy="210.438" r="3.52358" transform="rotate(90 158.56 210.438)" fill="#808080"/>
<circle cx="106.882" cy="3.72158" r="3.52358" transform="rotate(90 106.882 3.72158)" fill="#808080"/>
<circle cx="106.882" cy="55.4008" r="3.52358" transform="rotate(90 106.882 55.4008)" fill="#808080"/>
<circle cx="106.882" cy="107.08" r="3.52358" transform="rotate(90 106.882 107.08)" fill="#808080"/>
<circle cx="106.882" cy="158.759" r="3.52358" transform="rotate(90 106.882 158.759)" fill="#808080"/>
<circle cx="106.882" cy="210.438" r="3.52358" transform="rotate(90 106.882 210.438)" fill="#808080"/>
<circle cx="55.202" cy="3.72158" r="3.52358" transform="rotate(90 55.202 3.72158)" fill="#808080"/>
<circle cx="55.202" cy="55.4008" r="3.52358" transform="rotate(90 55.202 55.4008)" fill="#808080"/>
<circle cx="55.202" cy="107.08" r="3.52358" transform="rotate(90 55.202 107.08)" fill="#808080"/>
<circle cx="55.202" cy="158.759" r="3.52358" transform="rotate(90 55.202 158.759)" fill="#808080"/>
<circle cx="55.202" cy="210.438" r="3.52358" transform="rotate(90 55.202 210.438)" fill="#808080"/>
<circle cx="3.52329" cy="3.72158" r="3.52358" transform="rotate(90 3.52329 3.72158)" fill="#808080"/>
<circle cx="3.52329" cy="55.4008" r="3.52358" transform="rotate(90 3.52329 55.4008)" fill="#808080"/>
<circle cx="3.52329" cy="107.08" r="3.52358" transform="rotate(90 3.52329 107.08)" fill="#808080"/>
<circle cx="3.52329" cy="158.759" r="3.52358" transform="rotate(90 3.52329 158.759)" fill="#808080"/>
<circle cx="3.52329" cy="210.438" r="3.52358" transform="rotate(90 3.52329 210.438)" fill="#808080"/>
</svg>
