<svg width="76" height="76" viewBox="0 0 76 76" fill="none" xmlns="http://www.w3.org/2000/svg">
<circle cx="38" cy="38" r="38" fill="white"/>
<circle cx="38" cy="38" r="37.1" stroke="#6B4EFF" stroke-opacity="0.3" stroke-width="1.8"/>
<g clip-path="url(#clip0_29_3229)">
<path fill-rule="evenodd" clip-rule="evenodd" d="M22.9715 17.5712C22.5033 17.3339 21.8792 17.6091 22.1396 18.2364C22.4184 18.9081 23.4495 18.9164 24.0319 18.9031C23.9736 18.8999 23.7859 18.284 23.7216 18.1909C23.5321 17.9163 23.2593 17.7173 22.9715 17.5712ZM28.3656 29.6144C28.3752 29.6241 28.4837 29.7176 28.3656 29.6144ZM22.5205 20.6094C22.2465 20.8234 22.2334 21.2014 22.4572 21.4572C22.7237 21.7617 23.2103 21.7507 23.5736 21.721C23.7379 21.7075 24.6152 21.6357 24.4072 21.489C24.4232 21.4952 24.4566 21.5101 24.4924 21.5305C24.5116 21.6024 24.5318 21.674 24.5529 21.7453C24.5477 21.7483 24.5433 21.7517 24.5378 21.7547C24.5438 21.752 24.548 21.7492 24.5532 21.7464C24.7642 22.4589 25.0645 23.1373 25.4578 23.772C25.3106 23.7128 25.1583 23.668 25.0037 23.648C24.546 23.5888 23.5832 23.9524 24.0951 24.5753C24.586 25.1724 25.3503 24.5318 25.9074 24.4434C26.4478 25.2143 27.0436 25.9531 27.668 26.6672C27.6298 26.6795 27.5962 26.705 27.5769 26.7447C27.3264 26.6148 27.0654 26.429 26.8336 26.3787C26.4991 26.3062 25.8131 26.2622 25.5602 26.5683C25.2493 26.9446 25.5826 27.2503 25.95 27.3225C26.4828 27.4272 27.1802 27.1611 27.6928 26.9814C27.7515 26.992 27.8155 26.9744 27.8537 26.9265C27.865 26.9227 27.8764 26.919 27.8874 26.9153C28.5197 27.6259 29.1762 28.3131 29.8287 28.9852C29.8218 28.9848 29.8149 28.9844 29.8076 28.984C29.6374 28.8699 29.4548 28.7763 29.2569 28.7272C28.7991 28.6132 28.2605 28.6126 27.889 28.9512C27.5189 29.2883 27.3878 29.8779 27.7707 30.2565C28.537 31.0142 29.6661 29.2865 30.0526 29.2144C30.7157 29.8902 31.4169 30.5216 32.129 31.1403C32.0482 31.1152 31.9652 31.0967 31.8795 31.0883C31.1811 31.02 29.5419 31.8951 30.399 32.7561C31.1459 33.5064 32.0103 32.0623 32.6122 31.5573C33.2833 32.1339 33.9581 32.7066 34.6139 33.3016C34.2562 33.2046 33.9105 33.1903 33.5271 33.3087C33.1303 33.4314 32.4901 33.7376 32.7409 34.2852C32.996 34.842 33.7648 34.5886 34.1653 34.4118C34.3837 34.3154 34.8215 33.99 35.206 33.8529C36.2525 34.8628 37.1589 35.9751 37.8452 37.2854C38.2736 38.1035 38.5987 38.9776 38.8276 39.8759C38.9736 40.4493 39.2614 41.4124 39.2038 42.1587C39.4784 40.6648 38.9819 38.8707 38.4469 37.5354C37.9551 36.3076 37.219 35.2297 36.3568 34.2595C36.5732 33.5943 38.3943 32.635 37.3056 32.017C36.7275 31.6903 36.1354 32.2324 36.009 32.8066C35.9222 33.2012 36.0544 33.697 36.1948 34.08C35.9236 33.7842 35.6416 33.498 35.3511 33.2212C34.9496 32.8387 34.5384 32.4673 34.1234 32.1006C34.8073 31.4438 35.4546 29.5663 34.5376 29.2592C33.1833 28.807 33.8354 31.3681 33.9299 31.8481C33.9567 31.8498 33.9776 31.8415 33.993 31.8237C33.9854 31.8677 33.9765 31.9147 33.9658 31.9621C33.1714 31.2639 32.3652 30.5794 31.5855 29.8645C31.6558 29.8114 31.7674 29.6087 31.8552 29.5007C32.0533 29.2574 32.2428 29.0033 32.3813 28.7186C32.6001 28.2689 32.8111 27.5514 32.2311 27.2869C31.6004 26.9986 31.3007 27.81 31.2963 28.2941C31.2933 28.6289 31.3825 28.9469 31.429 29.2751C31.4435 29.3774 31.3876 29.8387 31.524 29.6403C31.5175 29.7135 31.5166 29.7665 31.5198 29.804C31.3798 29.675 31.2409 29.5446 31.1029 29.4133C31.1093 29.3967 31.1141 29.3787 31.1151 29.3577C31.1225 29.2134 30.9805 29.1578 30.8808 29.2001C30.6987 29.0232 30.5184 28.8441 30.3413 28.6614C29.9659 28.2744 29.585 27.8763 29.2068 27.4698C29.2889 27.3977 29.2563 27.2979 29.333 27.2214C29.4096 27.1451 29.5605 27.1029 29.6506 27.032C29.8772 26.8536 30.0651 26.5937 30.201 26.3379C30.4253 25.9152 30.7153 25.0286 30.0599 24.8271C29.3843 24.6192 29.0414 25.4727 28.998 26.0063C28.9895 26.1097 29.0653 27.0411 29.1232 27.3794C28.4234 26.6238 27.7351 25.8399 27.1116 25.0424C27.3006 25.0406 27.8367 24.6447 27.9451 24.5366C28.2095 24.2731 28.6298 23.6908 28.1662 23.3827C27.7541 23.1094 27.246 23.5052 27.0697 23.8899C27.0408 23.9533 26.9386 24.5429 26.9306 24.8075C26.6725 24.4693 26.4263 24.1291 26.1973 23.7878C26.0445 23.5609 25.9018 23.328 25.7682 23.0901C25.8004 23.0715 25.8306 23.039 25.8592 22.9986C26.5466 22.8794 27.4231 21.7831 26.6156 21.4016C26.2312 21.2203 25.8142 21.5947 25.6259 21.9012C25.5873 21.9639 25.5248 22.2792 25.474 22.5279C25.0897 21.7399 24.7961 20.9057 24.5726 20.0504C24.6325 20.0353 24.6832 19.9885 24.6898 19.9082C25.0236 19.7137 25.2871 19.5517 25.5201 19.1778C25.6649 18.9455 25.9255 18.4148 25.5002 18.2858C24.9468 18.1181 24.5991 18.9821 24.5538 19.4077C24.5486 19.4571 24.5488 19.6008 24.5506 19.7325C24.5314 19.7298 24.512 19.7301 24.4929 19.7335C24.3658 19.2039 24.2643 18.6675 24.1836 18.1302C24.4857 18.0308 24.538 16.4092 24.3368 16.1783C23.8872 15.6613 23.5701 16.4081 23.5941 16.8029C23.6224 17.2683 23.8287 17.6916 24.0744 18.0674C24.1008 18.1072 24.0933 18.1052 24.1001 18.0498C24.1039 18.0772 24.1129 18.0974 24.1262 18.1121C24.1135 18.357 24.0888 18.6079 24.1006 18.8246C24.1346 19.4455 24.2054 20.0699 24.3081 20.6827C24.3331 20.8317 24.3617 20.9796 24.3938 21.1261C24.151 20.9147 23.8236 20.7268 23.6955 20.6681C23.3631 20.5158 22.8507 20.3513 22.5205 20.6094ZM39.2428 42.1608C39.2274 42.3773 39.1891 42.5755 39.1178 42.739C39.1713 42.5529 39.2124 42.3594 39.2428 42.1608Z" fill="#4CAF50"/>
<g opacity="0.7">
<path opacity="0.7" fill-rule="evenodd" clip-rule="evenodd" d="M32.0783 32.2335C33.3785 32.1646 34.9865 32.9403 35.1253 34.3849C35.226 35.4346 35.1948 36.4812 35.3508 37.5292C35.4755 38.3669 35.7392 39.171 36.0989 39.9339C36.4447 40.6676 37.1622 41.2922 37.3488 42.076C37.4677 42.5754 37.4012 43.278 37.2372 43.7665C37.0377 44.3605 37.1437 44.3135 37.5411 44.8119C38.3199 45.7886 39.0212 46.7902 39.5171 47.9567C40.2315 49.6369 40.6998 51.6008 40.4347 53.44C40.4009 53.6735 40.3609 54.5117 40.0463 54.5702C39.6949 54.6357 39.8592 54.1564 39.878 54.0016C39.9975 53.0136 40.1038 52.15 39.9595 51.1466C39.403 47.2751 36.6858 44.7244 34.9165 41.4386C34.8192 41.2691 34.6139 40.8656 34.4711 40.5994C34.2458 40.1792 34.0192 39.3795 33.714 39.0679C33.1394 38.4808 33.6677 39.661 33.7797 39.8863C33.9212 40.1713 34.077 40.4742 34.2221 40.724C34.8859 41.8816 35.6268 43.1452 36.3124 44.3384C33.3473 45.029 31.2591 41.3855 30.4634 38.9901C29.8079 37.0165 29.0235 32.4024 32.0783 32.2335Z" fill="#4CAF50"/>
<path opacity="0.7" fill-rule="evenodd" clip-rule="evenodd" d="M49.5053 28.5694C47.3317 28.7457 45.9363 30.2117 45.2867 32.2621C44.9366 33.3671 44.8965 34.5023 44.702 35.6379C44.4093 37.3464 43.7796 38.6411 42.549 39.8583C42.1678 40.2352 41.8869 40.6223 41.6872 41.0364C41.2908 41.4498 40.9458 41.9177 40.6923 42.4897C40.3685 43.2202 40.2768 44.0966 40.6507 44.8249C40.7512 45.0207 41.002 45.4137 41.2619 45.5923C40.2889 47.7105 39.7538 50.0304 39.8141 52.3474C39.8506 53.746 39.9174 55.1452 39.9953 56.5421C40.0163 56.9172 40.1358 57.5366 40.3153 56.9075C40.4796 56.3322 40.2736 55.4289 40.2545 54.8278C40.1618 51.8996 40.0825 49.2371 41.2618 46.5013C41.3854 46.2146 41.5165 45.9302 41.6531 45.648C41.6611 45.6432 41.6686 45.6375 41.6761 45.6319C41.6813 45.636 41.686 45.6405 41.6912 45.6445C41.7 45.6286 41.7119 45.6097 41.7258 45.5885C41.765 45.5472 41.7992 45.495 41.8317 45.4367C41.9363 45.2886 42.0547 45.1145 42.0553 45.0192C42.0553 45.0185 42.0549 45.0173 42.0549 45.0166C42.785 43.7985 43.6212 42.6475 44.4753 41.5191C44.4689 41.5273 45.4017 40.229 45.2575 40.947C45.188 41.293 44.5018 41.9518 44.2247 42.3183C43.6116 43.1336 42.8918 44.1667 42.2935 45.1656C42.213 45.2129 42.0993 45.4451 42.0171 45.618C41.9716 45.7056 41.9293 45.794 41.8876 45.8709C44.0073 46.5867 45.6562 45.1448 46.7806 43.4677C46.7819 43.4658 46.7831 43.4637 46.7844 43.4618C47.1266 42.9983 47.4771 42.5382 47.9149 42.1719C48.6455 41.5606 49.4278 41.4528 50.2892 41.1519C52.6381 40.3316 53.6368 37.2201 53.954 34.9113C54.3118 32.3066 52.5614 28.3126 49.5053 28.5694Z" fill="#6B4EFF"/>
<path opacity="0.7" fill-rule="evenodd" clip-rule="evenodd" d="M45.2117 21.2749C42.9809 23.6481 41.9031 26.9397 41.0497 30.0341C40.0966 33.4903 39.467 36.9998 39.4428 40.5932C39.427 42.9541 39.3641 45.3297 39.499 47.6878C39.5468 48.5253 39.6285 49.3642 39.7583 50.1927C39.769 50.2608 40.0596 52.1106 40.3376 51.6796C40.4957 51.4345 40.0398 49.7606 40.0053 49.4818C39.8115 47.9116 39.7665 46.3298 39.7759 44.7482C39.7915 42.1442 39.7163 39.5535 39.9746 36.959C40.0131 36.5717 40.0435 36.1648 40.1335 35.7859C40.2291 35.383 40.1074 35.5589 40.4187 35.3994C40.7212 35.2443 41.0951 35.2664 41.4089 35.0719C42.6539 34.3003 43.2908 32.3182 43.7865 31.0177C44.3535 29.5304 44.698 27.9445 44.9732 26.3795C45.1753 25.2296 45.3198 24.0866 45.4016 22.9219C45.4273 22.5549 45.4289 22.171 45.4994 21.8101C45.5185 21.7127 45.6139 21.5405 45.6104 21.4542C45.6031 21.2718 45.4953 21.1644 45.4865 21.0111C45.3931 21.097 45.3014 21.185 45.2117 21.2749Z" fill="#6B4EFF"/>
<path opacity="0.7" fill-rule="evenodd" clip-rule="evenodd" d="M33.0476 52.8936C33.0476 56.8182 36.1603 59.9998 40 59.9998C43.8397 59.9998 46.9524 56.8182 46.9524 52.8936" fill="black"/>
<path opacity="0.7" fill-rule="evenodd" clip-rule="evenodd" d="M40.5579 52.9158H40.1905C40.216 52.4447 40.2496 51.9744 40.3267 51.5086C40.6214 49.7269 41.5429 47.11 43.5639 46.8208C43.6384 46.8101 43.9127 46.8082 44.2449 46.8282C44.4023 46.7382 44.5787 46.6838 44.7645 46.6713C46.4852 46.5417 48.4068 47.9606 49.2368 49.4371C49.9059 50.6276 49.7932 52.1908 49.3799 53.4556C49.1031 54.3024 48.4991 55.5096 47.4919 55.5214C46.2317 55.5361 46.171 53.9441 46.1466 53.0135C46.1142 51.7762 45.9612 50.6983 45.0074 49.855C44.7851 49.6585 44.5421 49.4856 44.3175 49.2919C43.9659 48.9886 43.5773 48.6781 43.532 48.1764C43.4695 47.4843 43.8517 47.3597 44.4354 47.4883C44.5349 47.5102 45.5371 47.9698 45.3887 47.6065C45.3434 47.4955 45.1779 47.4076 44.9691 47.3417C44.4286 47.2816 43.7842 47.212 43.5988 47.2536C41.5992 47.702 40.8207 50.533 40.6139 52.3318C40.5916 52.5259 40.5736 52.7207 40.5579 52.9158V52.9158Z" fill="#4CAF50"/>
</g>
</g>
<defs>
<clipPath id="clip0_29_3229">
<rect width="32" height="44" fill="white" transform="translate(22 16)"/>
</clipPath>
</defs>
</svg>
