<svg width="473" height="214" viewBox="0 0 473 214" fill="none" xmlns="http://www.w3.org/2000/svg">
<circle cx="468.834" cy="3.52407" r="3.52358" transform="rotate(90 468.834 3.52407)" fill="#808080"/>
<circle cx="468.834" cy="55.2028" r="3.52358" transform="rotate(90 468.834 55.2028)" fill="#808080"/>
<circle cx="468.834" cy="106.882" r="3.52358" transform="rotate(90 468.834 106.882)" fill="#808080"/>
<circle cx="468.834" cy="158.561" r="3.52358" transform="rotate(90 468.834 158.561)" fill="#808080"/>
<circle cx="468.834" cy="210.24" r="3.52358" transform="rotate(90 468.834 210.24)" fill="#808080"/>
<circle cx="417.155" cy="3.52358" r="3.52358" transform="rotate(90 417.155 3.52358)" fill="#808080"/>
<circle cx="417.155" cy="55.2028" r="3.52358" transform="rotate(90 417.155 55.2028)" fill="#808080"/>
<circle cx="417.155" cy="106.882" r="3.52358" transform="rotate(90 417.155 106.882)" fill="#808080"/>
<circle cx="417.155" cy="158.561" r="3.52358" transform="rotate(90 417.155 158.561)" fill="#808080"/>
<circle cx="417.154" cy="210.24" r="3.52358" transform="rotate(90 417.154 210.24)" fill="#808080"/>
<circle cx="365.475" cy="3.52358" r="3.52358" transform="rotate(90 365.475 3.52358)" fill="#808080"/>
<circle cx="365.475" cy="55.2028" r="3.52358" transform="rotate(90 365.475 55.2028)" fill="#808080"/>
<circle cx="365.475" cy="106.882" r="3.52358" transform="rotate(90 365.475 106.882)" fill="#808080"/>
<circle cx="365.475" cy="158.561" r="3.52358" transform="rotate(90 365.475 158.561)" fill="#808080"/>
<circle cx="365.475" cy="210.24" r="3.52358" transform="rotate(90 365.475 210.24)" fill="#808080"/>
<circle cx="313.797" cy="3.52358" r="3.52358" transform="rotate(90 313.797 3.52358)" fill="#808080"/>
<circle cx="313.797" cy="55.2028" r="3.52358" transform="rotate(90 313.797 55.2028)" fill="#808080"/>
<circle cx="313.797" cy="106.882" r="3.52358" transform="rotate(90 313.797 106.882)" fill="#808080"/>
<circle cx="313.797" cy="158.561" r="3.52358" transform="rotate(90 313.797 158.561)" fill="#808080"/>
<circle cx="313.797" cy="210.24" r="3.52358" transform="rotate(90 313.797 210.24)" fill="#808080"/>
<circle cx="262.117" cy="3.52358" r="3.52358" transform="rotate(90 262.117 3.52358)" fill="#808080"/>
<circle cx="262.117" cy="55.2028" r="3.52358" transform="rotate(90 262.117 55.2028)" fill="#808080"/>
<circle cx="262.117" cy="106.882" r="3.52358" transform="rotate(90 262.117 106.882)" fill="#808080"/>
<circle cx="262.117" cy="158.561" r="3.52358" transform="rotate(90 262.117 158.561)" fill="#808080"/>
<circle cx="262.117" cy="210.24" r="3.52358" transform="rotate(90 262.117 210.24)" fill="#808080"/>
<circle cx="210.438" cy="3.52358" r="3.52358" transform="rotate(90 210.438 3.52358)" fill="#808080"/>
<circle cx="210.438" cy="55.2028" r="3.52358" transform="rotate(90 210.438 55.2028)" fill="#808080"/>
<circle cx="210.438" cy="106.882" r="3.52358" transform="rotate(90 210.438 106.882)" fill="#808080"/>
<circle cx="210.438" cy="158.561" r="3.52358" transform="rotate(90 210.438 158.561)" fill="#808080"/>
<circle cx="210.438" cy="210.24" r="3.52358" transform="rotate(90 210.438 210.24)" fill="#808080"/>
<circle cx="158.759" cy="3.52358" r="3.52358" transform="rotate(90 158.759 3.52358)" fill="#808080"/>
<circle cx="158.759" cy="55.2028" r="3.52358" transform="rotate(90 158.759 55.2028)" fill="#808080"/>
<circle cx="158.759" cy="106.882" r="3.52358" transform="rotate(90 158.759 106.882)" fill="#808080"/>
<circle cx="158.759" cy="158.561" r="3.52358" transform="rotate(90 158.759 158.561)" fill="#808080"/>
<circle cx="158.759" cy="210.24" r="3.52358" transform="rotate(90 158.759 210.24)" fill="#808080"/>
<circle cx="107.08" cy="3.52358" r="3.52358" transform="rotate(90 107.08 3.52358)" fill="#808080"/>
<circle cx="107.08" cy="55.2028" r="3.52358" transform="rotate(90 107.08 55.2028)" fill="#808080"/>
<circle cx="107.08" cy="106.882" r="3.52358" transform="rotate(90 107.08 106.882)" fill="#808080"/>
<circle cx="107.08" cy="158.561" r="3.52358" transform="rotate(90 107.08 158.561)" fill="#808080"/>
<circle cx="107.08" cy="210.24" r="3.52358" transform="rotate(90 107.08 210.24)" fill="#808080"/>
<circle cx="55.4002" cy="3.52358" r="3.52358" transform="rotate(90 55.4002 3.52358)" fill="#808080"/>
<circle cx="55.4002" cy="55.2028" r="3.52358" transform="rotate(90 55.4002 55.2028)" fill="#808080"/>
<circle cx="55.4002" cy="106.882" r="3.52358" transform="rotate(90 55.4002 106.882)" fill="#808080"/>
<circle cx="55.4002" cy="158.561" r="3.52358" transform="rotate(90 55.4002 158.561)" fill="#808080"/>
<circle cx="55.4002" cy="210.24" r="3.52358" transform="rotate(90 55.4002 210.24)" fill="#808080"/>
<circle cx="3.72154" cy="3.52358" r="3.52358" transform="rotate(90 3.72154 3.52358)" fill="#808080"/>
<circle cx="3.72154" cy="55.2028" r="3.52358" transform="rotate(90 3.72154 55.2028)" fill="#808080"/>
<circle cx="3.72154" cy="106.882" r="3.52358" transform="rotate(90 3.72154 106.882)" fill="#808080"/>
<circle cx="3.72154" cy="158.561" r="3.52358" transform="rotate(90 3.72154 158.561)" fill="#808080"/>
<circle cx="3.72154" cy="210.24" r="3.52358" transform="rotate(90 3.72154 210.24)" fill="#808080"/>
</svg>
