<svg width="83" height="20" viewBox="0 0 83 20" fill="none" xmlns="http://www.w3.org/2000/svg">
<path d="M2 7.53223C28.398 7.53223 54.5164 10.0317 80.802 12.0537" stroke="#F3F3F3" stroke-width="3" stroke-linecap="round"/>
<path d="M80.2536 11.247C78.6089 8.72851 77.1828 6.09726 75.0931 3.89143C74.5107 3.27669 73.9179 2.2699 73.1082 2" stroke="#F3F3F3" stroke-width="3" stroke-linecap="round"/>
<path d="M81.372 12.9873C80.1356 13.3272 78.7226 13.5589 77.587 14.1935C77.0505 14.4933 76.5162 14.8039 75.951 15.0462C75.7047 15.1518 75.4446 15.2058 75.2023 15.3096C74.9975 15.3974 74.8996 15.6873 74.6893 15.7256C73.9887 15.8529 73.2164 16.3357 72.5126 16.3564C71.6283 16.3824 70.8728 16.8277 70.017 17.1605C69.6237 17.3135 69.3246 17.5407 68.9633 17.7012C68.7055 17.8158 68.4086 17.7221 68.1453 17.8538" stroke="#F3F3F3" stroke-width="3" stroke-linecap="round"/>
</svg>
