<svg width="107" height="355" viewBox="0 0 107 355" fill="none" xmlns="http://www.w3.org/2000/svg">
<g opacity="0.3">
<ellipse cx="103.68" cy="351.906" rx="2.64269" ry="2.64418" transform="rotate(-180 103.68 351.906)" fill="#F3F3F3"/>
<ellipse cx="64.9208" cy="351.906" rx="2.64269" ry="2.64418" transform="rotate(-180 64.9208 351.906)" fill="#F3F3F3"/>
<ellipse cx="26.162" cy="351.906" rx="2.64269" ry="2.64418" transform="rotate(-180 26.162 351.906)" fill="#F3F3F3"/>
<ellipse cx="103.681" cy="313.125" rx="2.64269" ry="2.64418" transform="rotate(-180 103.681 313.125)" fill="#F3F3F3"/>
<ellipse cx="64.9208" cy="313.125" rx="2.64269" ry="2.64418" transform="rotate(-180 64.9208 313.125)" fill="#F3F3F3"/>
<ellipse cx="26.162" cy="313.125" rx="2.64269" ry="2.64418" transform="rotate(-180 26.162 313.125)" fill="#F3F3F3"/>
<ellipse cx="103.681" cy="274.344" rx="2.64269" ry="2.64418" transform="rotate(-180 103.681 274.344)" fill="#F3F3F3"/>
<ellipse cx="64.9208" cy="274.344" rx="2.64269" ry="2.64418" transform="rotate(-180 64.9208 274.344)" fill="#F3F3F3"/>
<ellipse cx="26.162" cy="274.344" rx="2.64269" ry="2.64418" transform="rotate(-180 26.162 274.344)" fill="#F3F3F3"/>
<ellipse cx="103.681" cy="235.563" rx="2.64269" ry="2.64418" transform="rotate(-180 103.681 235.563)" fill="#F3F3F3"/>
<ellipse cx="64.9208" cy="235.563" rx="2.64269" ry="2.64418" transform="rotate(-180 64.9208 235.563)" fill="#F3F3F3"/>
<ellipse cx="26.162" cy="235.563" rx="2.64269" ry="2.64418" transform="rotate(-180 26.162 235.563)" fill="#F3F3F3"/>
<ellipse cx="103.681" cy="196.781" rx="2.64269" ry="2.64418" transform="rotate(-180 103.681 196.781)" fill="#F3F3F3"/>
<ellipse cx="64.9208" cy="196.781" rx="2.64269" ry="2.64418" transform="rotate(-180 64.9208 196.781)" fill="#F3F3F3"/>
<ellipse cx="26.162" cy="196.781" rx="2.64269" ry="2.64418" transform="rotate(-180 26.162 196.781)" fill="#F3F3F3"/>
<ellipse cx="103.681" cy="158" rx="2.64269" ry="2.64418" transform="rotate(-180 103.681 158)" fill="#F3F3F3"/>
<ellipse cx="64.9208" cy="158" rx="2.64269" ry="2.64418" transform="rotate(-180 64.9208 158)" fill="#F3F3F3"/>
<ellipse cx="26.162" cy="158" rx="2.64269" ry="2.64418" transform="rotate(-180 26.162 158)" fill="#F3F3F3"/>
<ellipse cx="103.681" cy="119.219" rx="2.64269" ry="2.64418" transform="rotate(-180 103.681 119.219)" fill="#F3F3F3"/>
<ellipse cx="64.9208" cy="119.219" rx="2.64269" ry="2.64418" transform="rotate(-180 64.9208 119.219)" fill="#F3F3F3"/>
<ellipse cx="26.162" cy="119.219" rx="2.64269" ry="2.64418" transform="rotate(-180 26.162 119.219)" fill="#F3F3F3"/>
<ellipse cx="103.681" cy="80.4376" rx="2.64269" ry="2.64418" transform="rotate(-180 103.681 80.4376)" fill="#F3F3F3"/>
<ellipse cx="64.9208" cy="80.4374" rx="2.64269" ry="2.64418" transform="rotate(-180 64.9208 80.4374)" fill="#F3F3F3"/>
<ellipse cx="26.162" cy="80.4374" rx="2.64269" ry="2.64418" transform="rotate(-180 26.162 80.4374)" fill="#F3F3F3"/>
<ellipse cx="103.681" cy="41.6564" rx="2.64269" ry="2.64418" transform="rotate(-180 103.681 41.6564)" fill="#F3F3F3"/>
<ellipse cx="64.9208" cy="41.6561" rx="2.64269" ry="2.64418" transform="rotate(-180 64.9208 41.6561)" fill="#F3F3F3"/>
<ellipse cx="26.162" cy="41.6561" rx="2.64269" ry="2.64418" transform="rotate(-180 26.162 41.6561)" fill="#F3F3F3"/>
<ellipse cx="103.681" cy="2.87487" rx="2.64269" ry="2.64418" transform="rotate(-180 103.681 2.87487)" fill="#F3F3F3"/>
<ellipse cx="64.9208" cy="2.87487" rx="2.64269" ry="2.64418" transform="rotate(-180 64.9208 2.87487)" fill="#F3F3F3"/>
<ellipse cx="26.162" cy="2.87487" rx="2.64269" ry="2.64418" transform="rotate(-180 26.162 2.87487)" fill="#F3F3F3"/>
</g>
</svg>
