<svg width="168" height="98" viewBox="0 0 168 98" fill="none" xmlns="http://www.w3.org/2000/svg">
<path d="M19.0818 23.9008H1V51.6794H19.0818V23.9008Z" stroke="#1B242B" stroke-width="2" stroke-miterlimit="10"/>
<path d="M52.531 23.9008H34.4492V51.6794H52.531V23.9008Z" stroke="#1B242B" stroke-width="2" stroke-miterlimit="10"/>
<path d="M85.9665 23.9008H67.8848V51.6794H85.9665V23.9008Z" stroke="#1B242B" stroke-width="2" stroke-miterlimit="10"/>
<path d="M119.42 23.9008H101.338V51.6794H119.42V23.9008Z" stroke="#1B242B" stroke-width="2" stroke-miterlimit="10"/>
<path d="M152.855 23.9008H134.773V51.6794H152.855V23.9008Z" stroke="#1B242B" stroke-width="2" stroke-miterlimit="10"/>
<path d="M186.289 23.9008H168.207V51.6794H186.289V23.9008Z" stroke="#1B242B" stroke-width="2" stroke-miterlimit="10"/>
<path d="M19.0818 69.2214H1V97H19.0818V69.2214Z" stroke="#1B242B" stroke-width="2" stroke-miterlimit="10"/>
<path d="M52.531 69.2214H34.4492V97H52.531V69.2214Z" stroke="#1B242B" stroke-width="2" stroke-miterlimit="10"/>
<path d="M85.9665 69.2214H67.8848V97H85.9665V69.2214Z" stroke="#1B242B" stroke-width="2" stroke-miterlimit="10"/>
<path d="M119.42 69.2214H101.338V97H119.42V69.2214Z" stroke="#1B242B" stroke-width="2" stroke-miterlimit="10"/>
<path d="M152.855 69.2214H134.773V97H152.855V69.2214Z" stroke="#1B242B" stroke-width="2" stroke-miterlimit="10"/>
<path d="M186.289 69.2214H168.207V97H186.289V69.2214Z" stroke="#1B242B" stroke-width="2" stroke-miterlimit="10"/>
<path d="M1 1H19.0818" stroke="#1B242B" stroke-width="2" stroke-miterlimit="10" stroke-linecap="square"/>
<path d="M34.4492 1H52.5161" stroke="#1B242B" stroke-width="2" stroke-miterlimit="10" stroke-linecap="square"/>
</svg>
