<svg width="290" height="206" viewBox="0 0 290 206" fill="none" xmlns="http://www.w3.org/2000/svg">
<path d="M28.0706 206V170.763M45.7134 188.382H10.4277H45.7134Z" stroke="#6B4EFF" stroke-miterlimit="10"/>
<path d="M28.0706 119.263V84.0263M45.7134 101.645H10.4277H45.7134Z" stroke="#6B4EFF" stroke-miterlimit="10"/>
<path d="M28.0706 35.2368V0M45.7134 17.6184H10.4277H45.7134Z" stroke="#6B4EFF" stroke-miterlimit="10"/>
<path d="M28.0706 206V170.763M45.7134 188.382H10.4277H45.7134Z" stroke="#1D262D" stroke-width="2" stroke-miterlimit="10"/>
<path d="M28.0706 119.263V84.0263M45.7134 101.645H10.4277H45.7134Z" stroke="#1D262D" stroke-width="2" stroke-miterlimit="10"/>
<path d="M28.0706 35.2368V0M45.7134 17.6184H10.4277H45.7134Z" stroke="#1D262D" stroke-width="2" stroke-miterlimit="10"/>
<path d="M109.5 119.263V84.0263M127.143 101.645H91.8574H127.143Z" stroke="#6B4EFF" stroke-miterlimit="10"/>
<path d="M109.5 35.2368V0M127.143 17.6184H91.8574H127.143Z" stroke="#6B4EFF" stroke-miterlimit="10"/>
<path d="M109.5 119.263V84.0263M127.143 101.645H91.8574H127.143Z" stroke="#1D262D" stroke-width="2" stroke-miterlimit="10"/>
<path d="M109.5 35.2368V0M127.143 17.6184H91.8574H127.143Z" stroke="#1D262D" stroke-width="2" stroke-miterlimit="10"/>
<path d="M190.928 119.263V84.0263M208.571 101.645H173.285H208.571Z" stroke="#6B4EFF" stroke-miterlimit="10"/>
<path d="M190.928 35.2368V0M208.571 17.6184H173.285H208.571Z" stroke="#6B4EFF" stroke-miterlimit="10"/>
<path d="M190.928 119.263V84.0263M208.571 101.645H173.285H208.571Z" stroke="#1D262D" stroke-width="2" stroke-miterlimit="10"/>
<path d="M190.928 35.2368V0M208.571 17.6184H173.285H208.571Z" stroke="#1D262D" stroke-width="2" stroke-miterlimit="10"/>
<path d="M272.358 119.263V84.0263M290.001 101.645H254.715H290.001Z" stroke="#6B4EFF" stroke-miterlimit="10"/>
<path d="M272.358 35.2368V0M290.001 17.6184H254.715H290.001Z" stroke="#6B4EFF" stroke-miterlimit="10"/>
<path d="M272.358 119.263V84.0263M290.001 101.645H254.715H290.001Z" stroke="#1D262D" stroke-width="2" stroke-miterlimit="10"/>
<path d="M272.358 35.2368V0M290.001 17.6184H254.715H290.001Z" stroke="#1D262D" stroke-width="2" stroke-miterlimit="10"/>
</svg>
