<svg width="20" height="20" viewBox="0 0 20 20" fill="none" xmlns="http://www.w3.org/2000/svg">
<g clip-path="url(#clip0_3538_24185)">
<path d="M17.5 7.5C16.8125 7.5 16.25 8.0625 16.25 8.75V13.75C16.25 14.4375 16.8125 15 17.5 15C18.1875 15 18.75 14.4375 18.75 13.75V8.75C18.75 8.0625 18.1875 7.5 17.5 7.5ZM2.5 7.5C1.8125 7.5 1.25 8.0625 1.25 8.75V13.75C1.25 14.4375 1.8125 15 2.5 15C3.1875 15 3.75 14.4375 3.75 13.75V8.75C3.75 8.0625 3.1875 7.5 2.5 7.5ZM4.375 14.375C4.375 14.8723 4.57254 15.3492 4.92417 15.7008C5.27581 16.0525 5.75272 16.25 6.25 16.25V18.75C6.25 19.4375 6.8125 20 7.5 20C8.1875 20 8.75 19.4375 8.75 18.75V16.25H11.25V18.75C11.25 19.4375 11.8125 20 12.5 20C13.1875 20 13.75 19.4375 13.75 18.75V16.25C14.2473 16.25 14.7242 16.0525 15.0758 15.7008C15.4275 15.3492 15.625 14.8723 15.625 14.375V7.5H4.375V14.375Z" fill="#F3F3F3"/>
<path d="M15.5902 6.24991C15.4976 5.42256 15.2225 4.62608 14.7848 3.91793C14.347 3.20978 13.7576 2.60763 13.0589 2.15491L13.6839 0.90366C13.758 0.755304 13.7701 0.583591 13.7176 0.426295C13.6651 0.268999 13.5523 0.139004 13.4039 0.0649096C13.2556 -0.0091853 13.0838 -0.0213114 12.9265 0.0311987C12.7692 0.0837089 12.6393 0.196554 12.5652 0.34491L11.9377 1.59991L11.7752 1.53491C10.6228 1.15207 9.37752 1.15207 8.22516 1.53491L8.06266 1.59991L7.43516 0.34491C7.36106 0.196554 7.23107 0.0837089 7.07377 0.0311988C6.91648 -0.0213114 6.74476 -0.00918528 6.59641 0.0649096C6.44805 0.139004 6.33521 0.268999 6.2827 0.426295C6.23019 0.583591 6.24231 0.755304 6.31641 0.90366L6.94141 2.15491C6.24269 2.60756 5.65318 3.2097 5.21544 3.91786C4.77771 4.62602 4.50266 5.42254 4.41016 6.24991V6.87491H15.6252V6.24991H15.5902ZM8.12516 4.99991C7.9594 5.00008 7.80036 4.93439 7.68303 4.81729C7.5657 4.7002 7.4997 4.54129 7.49953 4.37553C7.49937 4.20977 7.56505 4.05074 7.68215 3.93341C7.79924 3.81608 7.95815 3.75008 8.12391 3.74991H8.12641C8.29217 3.75008 8.45107 3.81608 8.56816 3.93341C8.68526 4.05074 8.75095 4.20977 8.75078 4.37553C8.75062 4.54129 8.68461 4.7002 8.56728 4.81729C8.44995 4.93439 8.29092 5.00008 8.12516 4.99991ZM11.8752 4.99991C11.7094 5.00008 11.5504 4.93439 11.433 4.81729C11.3157 4.7002 11.2497 4.54129 11.2495 4.37553C11.2494 4.20977 11.3151 4.05074 11.4321 3.93341C11.5492 3.81608 11.7081 3.75008 11.8739 3.74991H11.8777C12.0434 3.75008 12.2023 3.81608 12.3194 3.93341C12.4365 4.05074 12.5022 4.20977 12.502 4.37553C12.5019 4.54129 12.4359 4.7002 12.3185 4.81729C12.2012 4.93439 12.0422 5.00008 11.8764 4.99991H11.8752Z" fill="#F3F3F3"/>
</g>
<defs>
<clipPath id="clip0_3538_24185">
<rect width="20" height="20" fill="white"/>
</clipPath>
</defs>
</svg>
