<svg width="42" height="42" viewBox="0 0 42 42" fill="none" xmlns="http://www.w3.org/2000/svg">
<path fill-rule="evenodd" clip-rule="evenodd" d="M20.5242 38.3489C20.718 38.4502 20.9347 38.5016 21.1514 38.4999C21.3681 38.4982 21.583 38.445 21.7786 38.342L28.0223 35.0043C29.793 34.0605 31.1795 33.0051 32.2612 31.7764C34.6132 29.0994 35.8976 25.6827 35.8747 22.1596L35.8007 10.5385C35.7936 9.19994 34.9145 8.00557 33.6143 7.57141L21.9988 3.67424C21.2994 3.43742 20.533 3.44257 19.8459 3.68625L8.27443 7.72242C6.98127 8.17374 6.118 9.3767 6.12504 10.7169L6.19904 22.3295C6.22194 25.8577 7.55033 29.2589 9.94108 31.9085C11.0334 33.1201 12.4323 34.16 14.2222 35.0884L20.5242 38.3489ZM18.871 24.6905C19.1317 24.941 19.47 25.0646 19.8082 25.0611C20.1465 25.0594 20.483 24.9324 20.7402 24.6784L27.5636 17.9515C28.0763 17.4453 28.071 16.6318 27.5531 16.1325C27.0333 15.6331 26.1965 15.6365 25.6838 16.1428L19.7888 21.9533L17.3752 19.6332C16.8555 19.1339 16.0204 19.139 15.5059 19.6452C14.9932 20.1515 14.9985 20.9649 15.5183 21.4643L18.871 24.6905Z" fill="#6B4EFF"/>
</svg>
