<svg width="42" height="42" viewBox="0 0 42 42" fill="none" xmlns="http://www.w3.org/2000/svg">
<path fill-rule="evenodd" clip-rule="evenodd" d="M25.3352 7.77366L38.0555 29.8501C38.3355 30.5091 38.458 31.0449 38.493 31.6015C38.563 32.9021 38.108 34.1662 37.2157 35.139C36.3233 36.1084 35.116 36.6806 33.8038 36.75H8.18808C7.64567 36.7171 7.10326 36.5939 6.59585 36.4032C4.05878 35.3801 2.83398 32.5015 3.86631 30.0062L16.6742 7.75805C17.1116 6.97599 17.7765 6.30143 18.5988 5.86791C20.9784 4.54829 24.0054 5.41532 25.3352 7.77366ZM22.5177 22.3221C22.5177 23.1545 21.8353 23.8498 20.9955 23.8498C20.1556 23.8498 19.4557 23.1545 19.4557 22.3221V17.4164C19.4557 16.5823 20.1556 15.9078 20.9955 15.9078C21.8353 15.9078 22.5177 16.5823 22.5177 17.4164V22.3221ZM20.9955 29.7814C20.1556 29.7814 19.4557 29.086 19.4557 28.2554C19.4557 27.4213 20.1556 26.7277 20.9955 26.7277C21.8353 26.7277 22.5177 27.4057 22.5177 28.2363C22.5177 29.086 21.8353 29.7814 20.9955 29.7814Z" fill="#6B4EFF"/>
</svg>
