<svg width="32" height="32" viewBox="0 0 32 32" fill="none" xmlns="http://www.w3.org/2000/svg">
<path d="M2.66675 9.33317H4.00008H2.66675ZM2.66675 22.6665H4.00008H2.66675ZM28.0001 9.33317H29.3334H28.0001ZM28.0001 22.6665H29.3334H28.0001ZM22.6667 3.99984V2.6665V3.99984ZM9.33341 3.99984V2.6665V3.99984ZM22.6667 29.3332V27.9998V29.3332ZM9.33341 29.3332V27.9998V29.3332ZM24.0001 8.79984V23.1998C24.0001 23.412 23.9158 23.6155 23.7658 23.7655C23.6157 23.9156 23.4123 23.9998 23.2001 23.9998H8.80008C8.58791 23.9998 8.38443 23.9156 8.2344 23.7655C8.08437 23.6155 8.00008 23.412 8.00008 23.1998V8.79984C8.00008 8.58766 8.08437 8.38418 8.2344 8.23415C8.38443 8.08412 8.58791 7.99984 8.80008 7.99984H23.2001C23.4123 7.99984 23.6157 8.08412 23.7658 8.23415C23.9158 8.38418 24.0001 8.58766 24.0001 8.79984V8.79984Z" stroke="#9747FF" stroke-width="1.5" stroke-linecap="round" stroke-linejoin="round"/>
</svg>
