<svg width="78" height="78" viewBox="0 0 78 78" fill="none" xmlns="http://www.w3.org/2000/svg">
<path d="M61.75 9.75H48.165C46.8 5.98 43.225 3.25 39 3.25C34.775 3.25 31.2 5.98 29.835 9.75H16.25C15.795 9.75 15.3725 9.7825 14.95 9.88C13.9149 10.0972 12.9481 10.5627 12.1329 11.2364C11.3176 11.9101 10.6783 12.7719 10.27 13.7475C9.945 14.495 9.75 15.34 9.75 16.25V61.75C9.75 62.6275 9.945 63.505 10.27 64.285C10.595 65.065 11.0825 65.7475 11.6675 66.365C12.545 67.2425 13.6825 67.8925 14.95 68.1525C15.3725 68.2175 15.795 68.25 16.25 68.25H61.75C65.325 68.25 68.25 65.325 68.25 61.75V16.25C68.25 12.675 65.325 9.75 61.75 9.75ZM33.475 48.36C32.2075 49.6275 30.1275 49.6275 28.86 48.36L21.8075 41.3075C21.5062 41.0068 21.2672 40.6497 21.1041 40.2565C20.941 39.8634 20.8571 39.4419 20.8571 39.0163C20.8571 38.5906 20.941 38.1691 21.1041 37.776C21.2672 37.3828 21.5062 37.0257 21.8075 36.725L28.86 29.6725C30.1275 28.405 32.2075 28.405 33.475 29.6725C34.7425 30.94 34.7425 32.9875 33.475 34.255L28.6975 39L33.4425 43.745C34.71 45.0125 34.7425 47.0925 33.475 48.36ZM39 13.8125C37.6675 13.8125 36.5625 12.7075 36.5625 11.375C36.5625 10.0425 37.6675 8.9375 39 8.9375C40.3325 8.9375 41.4375 10.0425 41.4375 11.375C41.4375 12.7075 40.3325 13.8125 39 13.8125ZM44.525 48.36C44.2237 48.0593 43.9847 47.7022 43.8216 47.309C43.6585 46.9159 43.5746 46.4944 43.5746 46.0688C43.5746 45.6431 43.6585 45.2216 43.8216 44.8285C43.9847 44.4353 44.2237 44.0782 44.525 43.7775L49.3025 39L44.525 34.2225C44.2237 33.9218 43.9847 33.5647 43.8216 33.1715C43.6585 32.7784 43.5746 32.3569 43.5746 31.9312C43.5746 31.5056 43.6585 31.0841 43.8216 30.691C43.9847 30.2978 44.2237 29.9407 44.525 29.64C45.7925 28.3725 47.8725 28.3725 49.14 29.64L56.1925 36.6925C57.46 37.96 57.46 40.0075 56.1925 41.275L49.14 48.3275C47.8725 49.6275 45.7925 49.6275 44.525 48.36Z" fill="#F3F3F3"/>
</svg>
