<svg width="544" height="418" viewBox="0 0 544 418" fill="none" xmlns="http://www.w3.org/2000/svg">
<path opacity="0.1" fill-rule="evenodd" clip-rule="evenodd" d="M0 0H544V418H0V0ZM0.85 0.746429H67.15V58.9679H0.85V0.746429ZM68.85 0.746429H135.15V58.9679H68.85V0.746429ZM203.15 0.746429H136.85V58.9679H203.15V0.746429ZM204.85 0.746429H271.15V58.9679H204.85V0.746429ZM339.15 0.746429H272.85V58.9679H339.15V0.746429ZM340.85 0.746429H407.15V58.9679H340.85V0.746429ZM475.15 0.746429H408.85V58.9679H475.15V0.746429ZM476.85 0.746429H543.15V58.9679H476.85V0.746429ZM67.15 60.4607H0.85V118.682H67.15V60.4607ZM68.85 60.4607H135.15V118.682H68.85V60.4607ZM203.15 60.4607H136.85V118.682H203.15V60.4607ZM204.85 60.4607H271.15V118.682H204.85V60.4607ZM339.15 60.4607H272.85V118.682H339.15V60.4607ZM340.85 60.4607H407.15V118.682H340.85V60.4607ZM475.15 60.4607H408.85V118.682H475.15V60.4607ZM476.85 60.4607H543.15V118.682H476.85V60.4607ZM67.15 120.175H0.85V178.396H67.15V120.175ZM68.85 120.175H135.15V178.396H68.85V120.175ZM203.15 120.175H136.85V178.396H203.15V120.175ZM204.85 120.175H271.15V178.396H204.85V120.175ZM339.15 120.175H272.85V178.396H339.15V120.175ZM340.85 120.175H407.15V178.396H340.85V120.175ZM475.15 120.175H408.85V178.396H475.15V120.175ZM476.85 120.175H543.15V178.396H476.85V120.175ZM67.15 179.889H0.85V238.111H67.15V179.889ZM68.85 179.889H135.15V238.111H68.85V179.889ZM203.15 179.889H136.85V238.111H203.15V179.889ZM204.85 179.889H271.15V238.111H204.85V179.889ZM339.15 179.889H272.85V238.111H339.15V179.889ZM340.85 179.889H407.15V238.111H340.85V179.889ZM475.15 179.889H408.85V238.111H475.15V179.889ZM476.85 179.889H543.15V238.111H476.85V179.889ZM67.15 239.604H0.85V297.825H67.15V239.604ZM68.85 239.604H135.15V297.825H68.85V239.604ZM203.15 239.604H136.85V297.825H203.15V239.604ZM204.85 239.604H271.15V297.825H204.85V239.604ZM339.15 239.604H272.85V297.825H339.15V239.604ZM340.85 239.604H407.15V297.825H340.85V239.604ZM475.15 239.604H408.85V297.825H475.15V239.604ZM476.85 239.604H543.15V297.825H476.85V239.604ZM67.15 299.318H0.85V357.539H67.15V299.318ZM68.85 299.318H135.15V357.539H68.85V299.318ZM203.15 299.318H136.85V357.539H203.15V299.318ZM204.85 299.318H271.15V357.539H204.85V299.318ZM339.15 299.318H272.85V357.539H339.15V299.318ZM340.85 299.318H407.15V357.539H340.85V299.318ZM475.15 299.318H408.85V357.539H475.15V299.318ZM476.85 299.318H543.15V357.539H476.85V299.318ZM67.15 359.032H0.85V417.254H67.15V359.032ZM68.85 359.032H135.15V417.254H68.85V359.032ZM203.15 359.032H136.85V417.254H203.15V359.032ZM204.85 359.032H271.15V417.254H204.85V359.032ZM339.15 359.032H272.85V417.254H339.15V359.032ZM340.85 359.032H407.15V417.254H340.85V359.032ZM475.15 359.032H408.85V417.254H475.15V359.032ZM476.85 359.032H543.15V417.254H476.85V359.032Z" fill="#F3F3F3"/>
</svg>
