<svg width="489" height="561" viewBox="0 0 489 561" fill="none" xmlns="http://www.w3.org/2000/svg">
<path opacity="0.1" fill-rule="evenodd" clip-rule="evenodd" d="M-270 0H488.361V702.186H-270V0ZM-268.815 1.2539H-176.39V99.0583H-268.815V1.2539ZM-174.02 1.2539H-81.5948V99.0583H-174.02V1.2539ZM13.2003 1.2539H-79.2249V99.0583H13.2003V1.2539ZM15.5702 1.2539H107.995V99.0583H15.5702V1.2539ZM202.79 1.2539H110.365V99.0583H202.79V1.2539ZM205.16 1.2539H297.586V99.0583H205.16V1.2539ZM392.381 1.2539H299.955V99.0583H392.381V1.2539ZM394.751 1.2539H487.176V99.0583H394.751V1.2539ZM-176.39 101.566H-268.815V199.371H-176.39V101.566ZM-174.02 101.566H-81.5948V199.371H-174.02V101.566ZM13.2003 101.566H-79.2249V199.371H13.2003V101.566ZM15.5702 101.566H107.995V199.371H15.5702V101.566ZM202.79 101.566H110.365V199.371H202.79V101.566ZM205.16 101.566H297.586V199.371H205.16V101.566ZM392.381 101.566H299.955V199.371H392.381V101.566ZM394.751 101.566H487.176V199.371H394.751V101.566ZM-176.39 201.878H-268.815V299.683H-176.39V201.878ZM-174.02 201.878H-81.5948V299.683H-174.02V201.878ZM13.2003 201.878H-79.2249V299.683H13.2003V201.878ZM15.5702 201.878H107.995V299.683H15.5702V201.878ZM202.79 201.878H110.365V299.683H202.79V201.878ZM205.16 201.878H297.586V299.683H205.16V201.878ZM392.381 201.878H299.955V299.683H392.381V201.878ZM394.751 201.878H487.176V299.683H394.751V201.878ZM-176.39 302.191H-268.815V399.995H-176.39V302.191ZM-174.02 302.191H-81.5948V399.995H-174.02V302.191ZM13.2003 302.191H-79.2249V399.995H13.2003V302.191ZM15.5702 302.191H107.995V399.995H15.5702V302.191ZM202.79 302.191H110.365V399.995H202.79V302.191ZM205.16 302.191H297.586V399.995H205.16V302.191ZM392.381 302.191H299.955V399.995H392.381V302.191ZM394.751 302.191H487.176V399.995H394.751V302.191ZM-176.39 402.503H-268.815V500.307H-176.39V402.503ZM-174.02 402.503H-81.5948V500.307H-174.02V402.503ZM13.2003 402.503H-79.2249V500.307H13.2003V402.503ZM15.5702 402.503H107.995V500.307H15.5702V402.503ZM202.79 402.503H110.365V500.307H202.79V402.503ZM205.16 402.503H297.586V500.307H205.16V402.503ZM392.381 402.503H299.955V500.307H392.381V402.503ZM394.751 402.503H487.176V500.307H394.751V402.503ZM-176.39 502.815H-268.815V600.62H-176.39V502.815ZM-174.02 502.815H-81.5948V600.62H-174.02V502.815ZM13.2003 502.815H-79.2249V600.62H13.2003V502.815ZM15.5702 502.815H107.995V600.62H15.5702V502.815ZM202.79 502.815H110.365V600.62H202.79V502.815ZM205.16 502.815H297.586V600.62H205.16V502.815ZM392.381 502.815H299.955V600.62H392.381V502.815ZM394.751 502.815H487.176V600.62H394.751V502.815ZM-176.39 603.127H-268.815V700.932H-176.39V603.127ZM-174.02 603.127H-81.5948V700.932H-174.02V603.127ZM13.2003 603.127H-79.2249V700.932H13.2003V603.127ZM15.5702 603.127H107.995V700.932H15.5702V603.127ZM202.79 603.127H110.365V700.932H202.79V603.127ZM205.16 603.127H297.586V700.932H205.16V603.127ZM392.381 603.127H299.955V700.932H392.381V603.127ZM394.751 603.127H487.176V700.932H394.751V603.127Z" fill="white" fill-opacity="0.3"/>
</svg>
