<svg width="45" height="143" viewBox="0 0 45 143" fill="none" xmlns="http://www.w3.org/2000/svg">
<path d="M137.894 33.2572C138.29 33.9431 138.675 34.6357 139.05 35.3348C138.369 34.8892 137.914 34.127 137.894 33.2572Z" fill="url(#paint0_linear_1745_2718)"/>
<path d="M123.912 15.6276C125.101 16.7443 126.256 17.8985 127.372 19.0885C126.941 19.8865 126.096 20.4286 125.125 20.4286C123.715 20.4286 122.571 19.2853 122.571 17.875C122.571 16.9039 123.113 16.0594 123.912 15.6276Z" fill="url(#paint1_linear_1745_2718)"/>
<path d="M107.665 3.94978C108.364 4.32487 109.057 4.71049 109.743 5.10643C108.873 5.08613 108.111 4.6309 107.665 3.94978Z" fill="url(#paint2_linear_1745_2718)"/>
<path d="M33.2572 5.10643C33.9431 4.71049 34.6357 4.32487 35.3348 3.94978C34.8892 4.6309 34.127 5.08613 33.2572 5.10643Z" fill="url(#paint3_linear_1745_2718)"/>
<path d="M15.6276 19.0885C16.7443 17.8985 17.8985 16.7443 19.0885 15.6276C19.8865 16.0594 20.4286 16.9039 20.4286 17.875C20.4286 19.2853 19.2853 20.4286 17.875 20.4286C16.9039 20.4286 16.0594 19.8865 15.6276 19.0885Z" fill="url(#paint4_linear_1745_2718)"/>
<path d="M3.94978 35.3348C4.32487 34.6357 4.71049 33.9431 5.10643 33.2572C5.08613 34.127 4.6309 34.8892 3.94978 35.3348Z" fill="url(#paint5_linear_1745_2718)"/>
<path d="M139.05 107.665C138.675 108.364 138.29 109.057 137.894 109.743C137.914 108.873 138.369 108.111 139.05 107.665Z" fill="url(#paint6_linear_1745_2718)"/>
<path d="M127.372 123.912C126.941 123.113 126.096 122.571 125.125 122.571C123.715 122.571 122.571 123.715 122.571 125.125C122.571 126.096 123.113 126.941 123.912 127.372C125.101 126.256 126.256 125.101 127.372 123.912Z" fill="url(#paint7_linear_1745_2718)"/>
<path d="M109.743 137.894C108.873 137.914 108.111 138.369 107.665 139.05C108.364 138.675 109.057 138.29 109.743 137.894Z" fill="url(#paint8_linear_1745_2718)"/>
<path d="M35.3348 139.05C34.8892 138.369 34.127 137.914 33.2572 137.894C33.9431 138.29 34.6357 138.675 35.3348 139.05Z" fill="url(#paint9_linear_1745_2718)"/>
<path d="M19.0885 127.372C19.8865 126.941 20.4286 126.096 20.4286 125.125C20.4286 123.715 19.2853 122.571 17.875 122.571C16.9039 122.571 16.0594 123.113 15.6276 123.912C16.7443 125.101 17.8985 126.256 19.0885 127.372Z" fill="url(#paint10_linear_1745_2718)"/>
<path d="M5.10643 109.743C5.08613 108.873 4.6309 108.111 3.94978 107.665C4.32487 108.364 4.71049 109.057 5.10643 109.743Z" fill="url(#paint11_linear_1745_2718)"/>
<path d="M51.0714 2.55357C51.0714 3.96387 49.9282 5.10714 48.5179 5.10714C47.1076 5.10714 45.9643 3.96387 45.9643 2.55357C45.9643 1.14327 47.1076 0 48.5179 0C49.9282 0 51.0714 1.14327 51.0714 2.55357Z" fill="url(#paint12_linear_1745_2718)"/>
<path d="M66.3929 2.55357C66.3929 3.96387 65.2496 5.10714 63.8393 5.10714C62.429 5.10714 61.2857 3.96387 61.2857 2.55357C61.2857 1.14327 62.429 0 63.8393 0C65.2496 0 66.3929 1.14327 66.3929 2.55357Z" fill="url(#paint13_linear_1745_2718)"/>
<path d="M81.7143 2.55357C81.7143 3.96387 80.571 5.10714 79.1607 5.10714C77.7504 5.10714 76.6071 3.96387 76.6071 2.55357C76.6071 1.14327 77.7504 0 79.1607 0C80.571 0 81.7143 1.14327 81.7143 2.55357Z" fill="url(#paint14_linear_1745_2718)"/>
<path d="M97.0357 2.55357C97.0357 3.96387 95.8924 5.10714 94.4821 5.10714C93.0718 5.10714 91.9286 3.96387 91.9286 2.55357C91.9286 1.14327 93.0718 0 94.4821 0C95.8924 0 97.0357 1.14327 97.0357 2.55357Z" fill="url(#paint15_linear_1745_2718)"/>
<path d="M35.75 17.875C35.75 19.2853 34.6067 20.4286 33.1964 20.4286C31.7861 20.4286 30.6429 19.2853 30.6429 17.875C30.6429 16.4647 31.7861 15.3214 33.1964 15.3214C34.6067 15.3214 35.75 16.4647 35.75 17.875Z" fill="url(#paint16_linear_1745_2718)"/>
<path d="M51.0714 17.875C51.0714 19.2853 49.9282 20.4286 48.5179 20.4286C47.1076 20.4286 45.9643 19.2853 45.9643 17.875C45.9643 16.4647 47.1076 15.3214 48.5179 15.3214C49.9282 15.3214 51.0714 16.4647 51.0714 17.875Z" fill="url(#paint17_linear_1745_2718)"/>
<path d="M66.3929 17.875C66.3929 19.2853 65.2496 20.4286 63.8393 20.4286C62.429 20.4286 61.2857 19.2853 61.2857 17.875C61.2857 16.4647 62.429 15.3214 63.8393 15.3214C65.2496 15.3214 66.3929 16.4647 66.3929 17.875Z" fill="url(#paint18_linear_1745_2718)"/>
<path d="M81.7143 17.875C81.7143 19.2853 80.571 20.4286 79.1607 20.4286C77.7504 20.4286 76.6071 19.2853 76.6071 17.875C76.6071 16.4647 77.7504 15.3214 79.1607 15.3214C80.571 15.3214 81.7143 16.4647 81.7143 17.875Z" fill="url(#paint19_linear_1745_2718)"/>
<path d="M97.0357 17.875C97.0357 19.2853 95.8924 20.4286 94.4821 20.4286C93.0718 20.4286 91.9286 19.2853 91.9286 17.875C91.9286 16.4647 93.0718 15.3214 94.4821 15.3214C95.8924 15.3214 97.0357 16.4647 97.0357 17.875Z" fill="url(#paint20_linear_1745_2718)"/>
<path d="M112.357 17.875C112.357 19.2853 111.214 20.4286 109.804 20.4286C108.393 20.4286 107.25 19.2853 107.25 17.875C107.25 16.4647 108.393 15.3214 109.804 15.3214C111.214 15.3214 112.357 16.4647 112.357 17.875Z" fill="url(#paint21_linear_1745_2718)"/>
<path d="M20.4286 33.1964C20.4286 34.6067 19.2853 35.75 17.875 35.75C16.4647 35.75 15.3214 34.6067 15.3214 33.1964C15.3214 31.7861 16.4647 30.6429 17.875 30.6429C19.2853 30.6429 20.4286 31.7861 20.4286 33.1964Z" fill="url(#paint22_linear_1745_2718)"/>
<path d="M35.75 33.1964C35.75 34.6067 34.6067 35.75 33.1964 35.75C31.7861 35.75 30.6429 34.6067 30.6429 33.1964C30.6429 31.7861 31.7861 30.6429 33.1964 30.6429C34.6067 30.6429 35.75 31.7861 35.75 33.1964Z" fill="url(#paint23_linear_1745_2718)"/>
<path d="M51.0714 33.1964C51.0714 34.6067 49.9282 35.75 48.5179 35.75C47.1076 35.75 45.9643 34.6067 45.9643 33.1964C45.9643 31.7861 47.1076 30.6429 48.5179 30.6429C49.9282 30.6429 51.0714 31.7861 51.0714 33.1964Z" fill="url(#paint24_linear_1745_2718)"/>
<path d="M66.3929 33.1964C66.3929 34.6067 65.2496 35.75 63.8393 35.75C62.429 35.75 61.2857 34.6067 61.2857 33.1964C61.2857 31.7861 62.429 30.6429 63.8393 30.6429C65.2496 30.6429 66.3929 31.7861 66.3929 33.1964Z" fill="url(#paint25_linear_1745_2718)"/>
<path d="M81.7143 33.1964C81.7143 34.6067 80.571 35.75 79.1607 35.75C77.7504 35.75 76.6071 34.6067 76.6071 33.1964C76.6071 31.7861 77.7504 30.6429 79.1607 30.6429C80.571 30.6429 81.7143 31.7861 81.7143 33.1964Z" fill="url(#paint26_linear_1745_2718)"/>
<path d="M97.0357 33.1964C97.0357 34.6067 95.8924 35.75 94.4821 35.75C93.0718 35.75 91.9286 34.6067 91.9286 33.1964C91.9286 31.7861 93.0718 30.6429 94.4821 30.6429C95.8924 30.6429 97.0357 31.7861 97.0357 33.1964Z" fill="url(#paint27_linear_1745_2718)"/>
<path d="M112.357 33.1964C112.357 34.6067 111.214 35.75 109.804 35.75C108.393 35.75 107.25 34.6067 107.25 33.1964C107.25 31.7861 108.393 30.6429 109.804 30.6429C111.214 30.6429 112.357 31.7861 112.357 33.1964Z" fill="url(#paint28_linear_1745_2718)"/>
<path d="M127.679 33.1964C127.679 34.6067 126.535 35.75 125.125 35.75C123.715 35.75 122.571 34.6067 122.571 33.1964C122.571 31.7861 123.715 30.6429 125.125 30.6429C126.535 30.6429 127.679 31.7861 127.679 33.1964Z" fill="url(#paint29_linear_1745_2718)"/>
<path d="M5.10714 48.5179C5.10714 49.9282 3.96387 51.0714 2.55357 51.0714C1.14327 51.0714 0 49.9282 0 48.5179C0 47.1076 1.14327 45.9643 2.55357 45.9643C3.96387 45.9643 5.10714 47.1076 5.10714 48.5179Z" fill="url(#paint30_linear_1745_2718)"/>
<path d="M20.4286 48.5179C20.4286 49.9282 19.2853 51.0714 17.875 51.0714C16.4647 51.0714 15.3214 49.9282 15.3214 48.5179C15.3214 47.1076 16.4647 45.9643 17.875 45.9643C19.2853 45.9643 20.4286 47.1076 20.4286 48.5179Z" fill="url(#paint31_linear_1745_2718)"/>
<path d="M35.75 48.5179C35.75 49.9282 34.6067 51.0714 33.1964 51.0714C31.7861 51.0714 30.6429 49.9282 30.6429 48.5179C30.6429 47.1076 31.7861 45.9643 33.1964 45.9643C34.6067 45.9643 35.75 47.1076 35.75 48.5179Z" fill="url(#paint32_linear_1745_2718)"/>
<path d="M51.0714 48.5179C51.0714 49.9282 49.9282 51.0714 48.5179 51.0714C47.1076 51.0714 45.9643 49.9282 45.9643 48.5179C45.9643 47.1076 47.1076 45.9643 48.5179 45.9643C49.9282 45.9643 51.0714 47.1076 51.0714 48.5179Z" fill="url(#paint33_linear_1745_2718)"/>
<path d="M66.3929 48.5179C66.3929 49.9282 65.2496 51.0714 63.8393 51.0714C62.429 51.0714 61.2857 49.9282 61.2857 48.5179C61.2857 47.1076 62.429 45.9643 63.8393 45.9643C65.2496 45.9643 66.3929 47.1076 66.3929 48.5179Z" fill="url(#paint34_linear_1745_2718)"/>
<path d="M81.7143 48.5179C81.7143 49.9282 80.571 51.0714 79.1607 51.0714C77.7504 51.0714 76.6071 49.9282 76.6071 48.5179C76.6071 47.1076 77.7504 45.9643 79.1607 45.9643C80.571 45.9643 81.7143 47.1076 81.7143 48.5179Z" fill="url(#paint35_linear_1745_2718)"/>
<path d="M97.0357 48.5179C97.0357 49.9282 95.8924 51.0714 94.4821 51.0714C93.0718 51.0714 91.9286 49.9282 91.9286 48.5179C91.9286 47.1076 93.0718 45.9643 94.4821 45.9643C95.8924 45.9643 97.0357 47.1076 97.0357 48.5179Z" fill="url(#paint36_linear_1745_2718)"/>
<path d="M112.357 48.5179C112.357 49.9282 111.214 51.0714 109.804 51.0714C108.393 51.0714 107.25 49.9282 107.25 48.5179C107.25 47.1076 108.393 45.9643 109.804 45.9643C111.214 45.9643 112.357 47.1076 112.357 48.5179Z" fill="url(#paint37_linear_1745_2718)"/>
<path d="M127.679 48.5179C127.679 49.9282 126.535 51.0714 125.125 51.0714C123.715 51.0714 122.571 49.9282 122.571 48.5179C122.571 47.1076 123.715 45.9643 125.125 45.9643C126.535 45.9643 127.679 47.1076 127.679 48.5179Z" fill="url(#paint38_linear_1745_2718)"/>
<path d="M143 48.5179C143 49.9282 141.857 51.0714 140.446 51.0714C139.036 51.0714 137.893 49.9282 137.893 48.5179C137.893 47.1076 139.036 45.9643 140.446 45.9643C141.857 45.9643 143 47.1076 143 48.5179Z" fill="url(#paint39_linear_1745_2718)"/>
<path d="M5.10714 63.8393C5.10714 65.2496 3.96387 66.3929 2.55357 66.3929C1.14327 66.3929 0 65.2496 0 63.8393C0 62.429 1.14327 61.2857 2.55357 61.2857C3.96387 61.2857 5.10714 62.429 5.10714 63.8393Z" fill="url(#paint40_linear_1745_2718)"/>
<path d="M20.4286 63.8393C20.4286 65.2496 19.2853 66.3929 17.875 66.3929C16.4647 66.3929 15.3214 65.2496 15.3214 63.8393C15.3214 62.429 16.4647 61.2857 17.875 61.2857C19.2853 61.2857 20.4286 62.429 20.4286 63.8393Z" fill="url(#paint41_linear_1745_2718)"/>
<path d="M35.75 63.8393C35.75 65.2496 34.6067 66.3929 33.1964 66.3929C31.7861 66.3929 30.6429 65.2496 30.6429 63.8393C30.6429 62.429 31.7861 61.2857 33.1964 61.2857C34.6067 61.2857 35.75 62.429 35.75 63.8393Z" fill="url(#paint42_linear_1745_2718)"/>
<path d="M51.0714 63.8393C51.0714 65.2496 49.9282 66.3929 48.5179 66.3929C47.1076 66.3929 45.9643 65.2496 45.9643 63.8393C45.9643 62.429 47.1076 61.2857 48.5179 61.2857C49.9282 61.2857 51.0714 62.429 51.0714 63.8393Z" fill="url(#paint43_linear_1745_2718)"/>
<path d="M66.3929 63.8393C66.3929 65.2496 65.2496 66.3929 63.8393 66.3929C62.429 66.3929 61.2857 65.2496 61.2857 63.8393C61.2857 62.429 62.429 61.2857 63.8393 61.2857C65.2496 61.2857 66.3929 62.429 66.3929 63.8393Z" fill="url(#paint44_linear_1745_2718)"/>
<path d="M81.7143 63.8393C81.7143 65.2496 80.571 66.3929 79.1607 66.3929C77.7504 66.3929 76.6071 65.2496 76.6071 63.8393C76.6071 62.429 77.7504 61.2857 79.1607 61.2857C80.571 61.2857 81.7143 62.429 81.7143 63.8393Z" fill="url(#paint45_linear_1745_2718)"/>
<path d="M97.0357 63.8393C97.0357 65.2496 95.8924 66.3929 94.4821 66.3929C93.0718 66.3929 91.9286 65.2496 91.9286 63.8393C91.9286 62.429 93.0718 61.2857 94.4821 61.2857C95.8924 61.2857 97.0357 62.429 97.0357 63.8393Z" fill="url(#paint46_linear_1745_2718)"/>
<path d="M112.357 63.8393C112.357 65.2496 111.214 66.3929 109.804 66.3929C108.393 66.3929 107.25 65.2496 107.25 63.8393C107.25 62.429 108.393 61.2857 109.804 61.2857C111.214 61.2857 112.357 62.429 112.357 63.8393Z" fill="url(#paint47_linear_1745_2718)"/>
<path d="M127.679 63.8393C127.679 65.2496 126.535 66.3929 125.125 66.3929C123.715 66.3929 122.571 65.2496 122.571 63.8393C122.571 62.429 123.715 61.2857 125.125 61.2857C126.535 61.2857 127.679 62.429 127.679 63.8393Z" fill="url(#paint48_linear_1745_2718)"/>
<path d="M143 63.8393C143 65.2496 141.857 66.3929 140.446 66.3929C139.036 66.3929 137.893 65.2496 137.893 63.8393C137.893 62.429 139.036 61.2857 140.446 61.2857C141.857 61.2857 143 62.429 143 63.8393Z" fill="url(#paint49_linear_1745_2718)"/>
<path d="M5.10714 79.1607C5.10714 80.571 3.96387 81.7143 2.55357 81.7143C1.14327 81.7143 0 80.571 0 79.1607C0 77.7504 1.14327 76.6071 2.55357 76.6071C3.96387 76.6071 5.10714 77.7504 5.10714 79.1607Z" fill="url(#paint50_linear_1745_2718)"/>
<path d="M20.4286 79.1607C20.4286 80.571 19.2853 81.7143 17.875 81.7143C16.4647 81.7143 15.3214 80.571 15.3214 79.1607C15.3214 77.7504 16.4647 76.6071 17.875 76.6071C19.2853 76.6071 20.4286 77.7504 20.4286 79.1607Z" fill="url(#paint51_linear_1745_2718)"/>
<path d="M35.75 79.1607C35.75 80.571 34.6067 81.7143 33.1964 81.7143C31.7861 81.7143 30.6429 80.571 30.6429 79.1607C30.6429 77.7504 31.7861 76.6071 33.1964 76.6071C34.6067 76.6071 35.75 77.7504 35.75 79.1607Z" fill="url(#paint52_linear_1745_2718)"/>
<path d="M51.0714 79.1607C51.0714 80.571 49.9282 81.7143 48.5179 81.7143C47.1076 81.7143 45.9643 80.571 45.9643 79.1607C45.9643 77.7504 47.1076 76.6071 48.5179 76.6071C49.9282 76.6071 51.0714 77.7504 51.0714 79.1607Z" fill="url(#paint53_linear_1745_2718)"/>
<path d="M66.3929 79.1607C66.3929 80.571 65.2496 81.7143 63.8393 81.7143C62.429 81.7143 61.2857 80.571 61.2857 79.1607C61.2857 77.7504 62.429 76.6071 63.8393 76.6071C65.2496 76.6071 66.3929 77.7504 66.3929 79.1607Z" fill="url(#paint54_linear_1745_2718)"/>
<path d="M81.7143 79.1607C81.7143 80.571 80.571 81.7143 79.1607 81.7143C77.7504 81.7143 76.6071 80.571 76.6071 79.1607C76.6071 77.7504 77.7504 76.6071 79.1607 76.6071C80.571 76.6071 81.7143 77.7504 81.7143 79.1607Z" fill="url(#paint55_linear_1745_2718)"/>
<path d="M97.0357 79.1607C97.0357 80.571 95.8924 81.7143 94.4821 81.7143C93.0718 81.7143 91.9286 80.571 91.9286 79.1607C91.9286 77.7504 93.0718 76.6071 94.4821 76.6071C95.8924 76.6071 97.0357 77.7504 97.0357 79.1607Z" fill="url(#paint56_linear_1745_2718)"/>
<path d="M112.357 79.1607C112.357 80.571 111.214 81.7143 109.804 81.7143C108.393 81.7143 107.25 80.571 107.25 79.1607C107.25 77.7504 108.393 76.6071 109.804 76.6071C111.214 76.6071 112.357 77.7504 112.357 79.1607Z" fill="url(#paint57_linear_1745_2718)"/>
<path d="M127.679 79.1607C127.679 80.571 126.535 81.7143 125.125 81.7143C123.715 81.7143 122.571 80.571 122.571 79.1607C122.571 77.7504 123.715 76.6071 125.125 76.6071C126.535 76.6071 127.679 77.7504 127.679 79.1607Z" fill="url(#paint58_linear_1745_2718)"/>
<path d="M143 79.1607C143 80.571 141.857 81.7143 140.446 81.7143C139.036 81.7143 137.893 80.571 137.893 79.1607C137.893 77.7504 139.036 76.6071 140.446 76.6071C141.857 76.6071 143 77.7504 143 79.1607Z" fill="url(#paint59_linear_1745_2718)"/>
<path d="M5.10714 94.4821C5.10714 95.8924 3.96387 97.0357 2.55357 97.0357C1.14327 97.0357 0 95.8924 0 94.4821C0 93.0718 1.14327 91.9286 2.55357 91.9286C3.96387 91.9286 5.10714 93.0718 5.10714 94.4821Z" fill="url(#paint60_linear_1745_2718)"/>
<path d="M20.4286 94.4821C20.4286 95.8924 19.2853 97.0357 17.875 97.0357C16.4647 97.0357 15.3214 95.8924 15.3214 94.4821C15.3214 93.0718 16.4647 91.9286 17.875 91.9286C19.2853 91.9286 20.4286 93.0718 20.4286 94.4821Z" fill="url(#paint61_linear_1745_2718)"/>
<path d="M35.75 94.4821C35.75 95.8924 34.6067 97.0357 33.1964 97.0357C31.7861 97.0357 30.6429 95.8924 30.6429 94.4821C30.6429 93.0718 31.7861 91.9286 33.1964 91.9286C34.6067 91.9286 35.75 93.0718 35.75 94.4821Z" fill="url(#paint62_linear_1745_2718)"/>
<path d="M51.0714 94.4821C51.0714 95.8924 49.9282 97.0357 48.5179 97.0357C47.1076 97.0357 45.9643 95.8924 45.9643 94.4821C45.9643 93.0718 47.1076 91.9286 48.5179 91.9286C49.9282 91.9286 51.0714 93.0718 51.0714 94.4821Z" fill="url(#paint63_linear_1745_2718)"/>
<path d="M66.3929 94.4821C66.3929 95.8924 65.2496 97.0357 63.8393 97.0357C62.429 97.0357 61.2857 95.8924 61.2857 94.4821C61.2857 93.0718 62.429 91.9286 63.8393 91.9286C65.2496 91.9286 66.3929 93.0718 66.3929 94.4821Z" fill="url(#paint64_linear_1745_2718)"/>
<path d="M81.7143 94.4821C81.7143 95.8924 80.571 97.0357 79.1607 97.0357C77.7504 97.0357 76.6071 95.8924 76.6071 94.4821C76.6071 93.0718 77.7504 91.9286 79.1607 91.9286C80.571 91.9286 81.7143 93.0718 81.7143 94.4821Z" fill="url(#paint65_linear_1745_2718)"/>
<path d="M97.0357 94.4821C97.0357 95.8924 95.8924 97.0357 94.4821 97.0357C93.0718 97.0357 91.9286 95.8924 91.9286 94.4821C91.9286 93.0718 93.0718 91.9286 94.4821 91.9286C95.8924 91.9286 97.0357 93.0718 97.0357 94.4821Z" fill="url(#paint66_linear_1745_2718)"/>
<path d="M112.357 94.4821C112.357 95.8924 111.214 97.0357 109.804 97.0357C108.393 97.0357 107.25 95.8924 107.25 94.4821C107.25 93.0718 108.393 91.9286 109.804 91.9286C111.214 91.9286 112.357 93.0718 112.357 94.4821Z" fill="url(#paint67_linear_1745_2718)"/>
<path d="M127.679 94.4821C127.679 95.8924 126.535 97.0357 125.125 97.0357C123.715 97.0357 122.571 95.8924 122.571 94.4821C122.571 93.0718 123.715 91.9286 125.125 91.9286C126.535 91.9286 127.679 93.0718 127.679 94.4821Z" fill="url(#paint68_linear_1745_2718)"/>
<path d="M143 94.4821C143 95.8924 141.857 97.0357 140.446 97.0357C139.036 97.0357 137.893 95.8924 137.893 94.4821C137.893 93.0718 139.036 91.9286 140.446 91.9286C141.857 91.9286 143 93.0718 143 94.4821Z" fill="url(#paint69_linear_1745_2718)"/>
<path d="M20.4286 109.804C20.4286 111.214 19.2853 112.357 17.875 112.357C16.4647 112.357 15.3214 111.214 15.3214 109.804C15.3214 108.393 16.4647 107.25 17.875 107.25C19.2853 107.25 20.4286 108.393 20.4286 109.804Z" fill="url(#paint70_linear_1745_2718)"/>
<path d="M35.75 109.804C35.75 111.214 34.6067 112.357 33.1964 112.357C31.7861 112.357 30.6429 111.214 30.6429 109.804C30.6429 108.393 31.7861 107.25 33.1964 107.25C34.6067 107.25 35.75 108.393 35.75 109.804Z" fill="url(#paint71_linear_1745_2718)"/>
<path d="M51.0714 109.804C51.0714 111.214 49.9282 112.357 48.5179 112.357C47.1076 112.357 45.9643 111.214 45.9643 109.804C45.9643 108.393 47.1076 107.25 48.5179 107.25C49.9282 107.25 51.0714 108.393 51.0714 109.804Z" fill="url(#paint72_linear_1745_2718)"/>
<path d="M66.3929 109.804C66.3929 111.214 65.2496 112.357 63.8393 112.357C62.429 112.357 61.2857 111.214 61.2857 109.804C61.2857 108.393 62.429 107.25 63.8393 107.25C65.2496 107.25 66.3929 108.393 66.3929 109.804Z" fill="url(#paint73_linear_1745_2718)"/>
<path d="M81.7143 109.804C81.7143 111.214 80.571 112.357 79.1607 112.357C77.7504 112.357 76.6071 111.214 76.6071 109.804C76.6071 108.393 77.7504 107.25 79.1607 107.25C80.571 107.25 81.7143 108.393 81.7143 109.804Z" fill="url(#paint74_linear_1745_2718)"/>
<path d="M97.0357 109.804C97.0357 111.214 95.8924 112.357 94.4821 112.357C93.0718 112.357 91.9286 111.214 91.9286 109.804C91.9286 108.393 93.0718 107.25 94.4821 107.25C95.8924 107.25 97.0357 108.393 97.0357 109.804Z" fill="url(#paint75_linear_1745_2718)"/>
<path d="M112.357 109.804C112.357 111.214 111.214 112.357 109.804 112.357C108.393 112.357 107.25 111.214 107.25 109.804C107.25 108.393 108.393 107.25 109.804 107.25C111.214 107.25 112.357 108.393 112.357 109.804Z" fill="url(#paint76_linear_1745_2718)"/>
<path d="M127.679 109.804C127.679 111.214 126.535 112.357 125.125 112.357C123.715 112.357 122.571 111.214 122.571 109.804C122.571 108.393 123.715 107.25 125.125 107.25C126.535 107.25 127.679 108.393 127.679 109.804Z" fill="url(#paint77_linear_1745_2718)"/>
<path d="M35.75 125.125C35.75 126.535 34.6067 127.679 33.1964 127.679C31.7861 127.679 30.6429 126.535 30.6429 125.125C30.6429 123.715 31.7861 122.571 33.1964 122.571C34.6067 122.571 35.75 123.715 35.75 125.125Z" fill="url(#paint78_linear_1745_2718)"/>
<path d="M51.0714 125.125C51.0714 126.535 49.9282 127.679 48.5179 127.679C47.1076 127.679 45.9643 126.535 45.9643 125.125C45.9643 123.715 47.1076 122.571 48.5179 122.571C49.9282 122.571 51.0714 123.715 51.0714 125.125Z" fill="url(#paint79_linear_1745_2718)"/>
<path d="M66.3929 125.125C66.3929 126.535 65.2496 127.679 63.8393 127.679C62.429 127.679 61.2857 126.535 61.2857 125.125C61.2857 123.715 62.429 122.571 63.8393 122.571C65.2496 122.571 66.3929 123.715 66.3929 125.125Z" fill="url(#paint80_linear_1745_2718)"/>
<path d="M81.7143 125.125C81.7143 126.535 80.571 127.679 79.1607 127.679C77.7504 127.679 76.6071 126.535 76.6071 125.125C76.6071 123.715 77.7504 122.571 79.1607 122.571C80.571 122.571 81.7143 123.715 81.7143 125.125Z" fill="url(#paint81_linear_1745_2718)"/>
<path d="M97.0357 125.125C97.0357 126.535 95.8924 127.679 94.4821 127.679C93.0718 127.679 91.9286 126.535 91.9286 125.125C91.9286 123.715 93.0718 122.571 94.4821 122.571C95.8924 122.571 97.0357 123.715 97.0357 125.125Z" fill="url(#paint82_linear_1745_2718)"/>
<path d="M112.357 125.125C112.357 126.535 111.214 127.679 109.804 127.679C108.393 127.679 107.25 126.535 107.25 125.125C107.25 123.715 108.393 122.571 109.804 122.571C111.214 122.571 112.357 123.715 112.357 125.125Z" fill="url(#paint83_linear_1745_2718)"/>
<path d="M51.0714 140.446C51.0714 141.857 49.9282 143 48.5179 143C47.1076 143 45.9643 141.857 45.9643 140.446C45.9643 139.036 47.1076 137.893 48.5179 137.893C49.9282 137.893 51.0714 139.036 51.0714 140.446Z" fill="url(#paint84_linear_1745_2718)"/>
<path d="M66.3929 140.446C66.3929 141.857 65.2496 143 63.8393 143C62.429 143 61.2857 141.857 61.2857 140.446C61.2857 139.036 62.429 137.893 63.8393 137.893C65.2496 137.893 66.3929 139.036 66.3929 140.446Z" fill="url(#paint85_linear_1745_2718)"/>
<path d="M81.7143 140.446C81.7143 141.857 80.571 143 79.1607 143C77.7504 143 76.6071 141.857 76.6071 140.446C76.6071 139.036 77.7504 137.893 79.1607 137.893C80.571 137.893 81.7143 139.036 81.7143 140.446Z" fill="url(#paint86_linear_1745_2718)"/>
<path d="M97.0357 140.446C97.0357 141.857 95.8924 143 94.4821 143C93.0718 143 91.9286 141.857 91.9286 140.446C91.9286 139.036 93.0718 137.893 94.4821 137.893C95.8924 137.893 97.0357 139.036 97.0357 140.446Z" fill="url(#paint87_linear_1745_2718)"/>
<defs>
<linearGradient id="paint0_linear_1745_2718" x1="88.1833" y1="156.823" x2="31.2217" y2="11.6783" gradientUnits="userSpaceOnUse">
<stop stop-color="#A6A6A6"/>
<stop offset="1" stop-color="#343434"/>
</linearGradient>
<linearGradient id="paint1_linear_1745_2718" x1="88.1833" y1="156.823" x2="31.2217" y2="11.6783" gradientUnits="userSpaceOnUse">
<stop stop-color="#A6A6A6"/>
<stop offset="1" stop-color="#343434"/>
</linearGradient>
<linearGradient id="paint2_linear_1745_2718" x1="88.1833" y1="156.823" x2="31.2217" y2="11.6783" gradientUnits="userSpaceOnUse">
<stop stop-color="#A6A6A6"/>
<stop offset="1" stop-color="#343434"/>
</linearGradient>
<linearGradient id="paint3_linear_1745_2718" x1="88.1833" y1="156.823" x2="31.2217" y2="11.6783" gradientUnits="userSpaceOnUse">
<stop stop-color="#A6A6A6"/>
<stop offset="1" stop-color="#343434"/>
</linearGradient>
<linearGradient id="paint4_linear_1745_2718" x1="88.1833" y1="156.823" x2="31.2217" y2="11.6783" gradientUnits="userSpaceOnUse">
<stop stop-color="#A6A6A6"/>
<stop offset="1" stop-color="#343434"/>
</linearGradient>
<linearGradient id="paint5_linear_1745_2718" x1="88.1833" y1="156.823" x2="31.2217" y2="11.6783" gradientUnits="userSpaceOnUse">
<stop stop-color="#A6A6A6"/>
<stop offset="1" stop-color="#343434"/>
</linearGradient>
<linearGradient id="paint6_linear_1745_2718" x1="88.1833" y1="156.823" x2="31.2217" y2="11.6783" gradientUnits="userSpaceOnUse">
<stop stop-color="#A6A6A6"/>
<stop offset="1" stop-color="#343434"/>
</linearGradient>
<linearGradient id="paint7_linear_1745_2718" x1="88.1833" y1="156.823" x2="31.2217" y2="11.6783" gradientUnits="userSpaceOnUse">
<stop stop-color="#A6A6A6"/>
<stop offset="1" stop-color="#343434"/>
</linearGradient>
<linearGradient id="paint8_linear_1745_2718" x1="88.1833" y1="156.823" x2="31.2217" y2="11.6783" gradientUnits="userSpaceOnUse">
<stop stop-color="#A6A6A6"/>
<stop offset="1" stop-color="#343434"/>
</linearGradient>
<linearGradient id="paint9_linear_1745_2718" x1="88.1833" y1="156.823" x2="31.2217" y2="11.6783" gradientUnits="userSpaceOnUse">
<stop stop-color="#A6A6A6"/>
<stop offset="1" stop-color="#343434"/>
</linearGradient>
<linearGradient id="paint10_linear_1745_2718" x1="88.1833" y1="156.823" x2="31.2217" y2="11.6783" gradientUnits="userSpaceOnUse">
<stop stop-color="#A6A6A6"/>
<stop offset="1" stop-color="#343434"/>
</linearGradient>
<linearGradient id="paint11_linear_1745_2718" x1="88.1833" y1="156.823" x2="31.2217" y2="11.6783" gradientUnits="userSpaceOnUse">
<stop stop-color="#A6A6A6"/>
<stop offset="1" stop-color="#343434"/>
</linearGradient>
<linearGradient id="paint12_linear_1745_2718" x1="88.1833" y1="156.823" x2="31.2217" y2="11.6783" gradientUnits="userSpaceOnUse">
<stop stop-color="#A6A6A6"/>
<stop offset="1" stop-color="#343434"/>
</linearGradient>
<linearGradient id="paint13_linear_1745_2718" x1="88.1833" y1="156.823" x2="31.2217" y2="11.6783" gradientUnits="userSpaceOnUse">
<stop stop-color="#A6A6A6"/>
<stop offset="1" stop-color="#343434"/>
</linearGradient>
<linearGradient id="paint14_linear_1745_2718" x1="88.1833" y1="156.823" x2="31.2217" y2="11.6783" gradientUnits="userSpaceOnUse">
<stop stop-color="#A6A6A6"/>
<stop offset="1" stop-color="#343434"/>
</linearGradient>
<linearGradient id="paint15_linear_1745_2718" x1="88.1833" y1="156.823" x2="31.2217" y2="11.6783" gradientUnits="userSpaceOnUse">
<stop stop-color="#A6A6A6"/>
<stop offset="1" stop-color="#343434"/>
</linearGradient>
<linearGradient id="paint16_linear_1745_2718" x1="88.1833" y1="156.823" x2="31.2217" y2="11.6783" gradientUnits="userSpaceOnUse">
<stop stop-color="#A6A6A6"/>
<stop offset="1" stop-color="#343434"/>
</linearGradient>
<linearGradient id="paint17_linear_1745_2718" x1="88.1833" y1="156.823" x2="31.2217" y2="11.6783" gradientUnits="userSpaceOnUse">
<stop stop-color="#A6A6A6"/>
<stop offset="1" stop-color="#343434"/>
</linearGradient>
<linearGradient id="paint18_linear_1745_2718" x1="88.1833" y1="156.823" x2="31.2217" y2="11.6783" gradientUnits="userSpaceOnUse">
<stop stop-color="#A6A6A6"/>
<stop offset="1" stop-color="#343434"/>
</linearGradient>
<linearGradient id="paint19_linear_1745_2718" x1="88.1833" y1="156.823" x2="31.2217" y2="11.6783" gradientUnits="userSpaceOnUse">
<stop stop-color="#A6A6A6"/>
<stop offset="1" stop-color="#343434"/>
</linearGradient>
<linearGradient id="paint20_linear_1745_2718" x1="88.1833" y1="156.823" x2="31.2217" y2="11.6783" gradientUnits="userSpaceOnUse">
<stop stop-color="#A6A6A6"/>
<stop offset="1" stop-color="#343434"/>
</linearGradient>
<linearGradient id="paint21_linear_1745_2718" x1="88.1833" y1="156.823" x2="31.2217" y2="11.6783" gradientUnits="userSpaceOnUse">
<stop stop-color="#A6A6A6"/>
<stop offset="1" stop-color="#343434"/>
</linearGradient>
<linearGradient id="paint22_linear_1745_2718" x1="88.1833" y1="156.823" x2="31.2217" y2="11.6783" gradientUnits="userSpaceOnUse">
<stop stop-color="#A6A6A6"/>
<stop offset="1" stop-color="#343434"/>
</linearGradient>
<linearGradient id="paint23_linear_1745_2718" x1="88.1833" y1="156.823" x2="31.2217" y2="11.6783" gradientUnits="userSpaceOnUse">
<stop stop-color="#A6A6A6"/>
<stop offset="1" stop-color="#343434"/>
</linearGradient>
<linearGradient id="paint24_linear_1745_2718" x1="88.1833" y1="156.823" x2="31.2217" y2="11.6783" gradientUnits="userSpaceOnUse">
<stop stop-color="#A6A6A6"/>
<stop offset="1" stop-color="#343434"/>
</linearGradient>
<linearGradient id="paint25_linear_1745_2718" x1="88.1833" y1="156.823" x2="31.2217" y2="11.6783" gradientUnits="userSpaceOnUse">
<stop stop-color="#A6A6A6"/>
<stop offset="1" stop-color="#343434"/>
</linearGradient>
<linearGradient id="paint26_linear_1745_2718" x1="88.1833" y1="156.823" x2="31.2217" y2="11.6783" gradientUnits="userSpaceOnUse">
<stop stop-color="#A6A6A6"/>
<stop offset="1" stop-color="#343434"/>
</linearGradient>
<linearGradient id="paint27_linear_1745_2718" x1="88.1833" y1="156.823" x2="31.2217" y2="11.6783" gradientUnits="userSpaceOnUse">
<stop stop-color="#A6A6A6"/>
<stop offset="1" stop-color="#343434"/>
</linearGradient>
<linearGradient id="paint28_linear_1745_2718" x1="88.1833" y1="156.823" x2="31.2217" y2="11.6783" gradientUnits="userSpaceOnUse">
<stop stop-color="#A6A6A6"/>
<stop offset="1" stop-color="#343434"/>
</linearGradient>
<linearGradient id="paint29_linear_1745_2718" x1="88.1833" y1="156.823" x2="31.2217" y2="11.6783" gradientUnits="userSpaceOnUse">
<stop stop-color="#A6A6A6"/>
<stop offset="1" stop-color="#343434"/>
</linearGradient>
<linearGradient id="paint30_linear_1745_2718" x1="88.1833" y1="156.823" x2="31.2217" y2="11.6783" gradientUnits="userSpaceOnUse">
<stop stop-color="#A6A6A6"/>
<stop offset="1" stop-color="#343434"/>
</linearGradient>
<linearGradient id="paint31_linear_1745_2718" x1="88.1833" y1="156.823" x2="31.2217" y2="11.6783" gradientUnits="userSpaceOnUse">
<stop stop-color="#A6A6A6"/>
<stop offset="1" stop-color="#343434"/>
</linearGradient>
<linearGradient id="paint32_linear_1745_2718" x1="88.1833" y1="156.823" x2="31.2217" y2="11.6783" gradientUnits="userSpaceOnUse">
<stop stop-color="#A6A6A6"/>
<stop offset="1" stop-color="#343434"/>
</linearGradient>
<linearGradient id="paint33_linear_1745_2718" x1="88.1833" y1="156.823" x2="31.2217" y2="11.6783" gradientUnits="userSpaceOnUse">
<stop stop-color="#A6A6A6"/>
<stop offset="1" stop-color="#343434"/>
</linearGradient>
<linearGradient id="paint34_linear_1745_2718" x1="88.1833" y1="156.823" x2="31.2217" y2="11.6783" gradientUnits="userSpaceOnUse">
<stop stop-color="#A6A6A6"/>
<stop offset="1" stop-color="#343434"/>
</linearGradient>
<linearGradient id="paint35_linear_1745_2718" x1="88.1833" y1="156.823" x2="31.2217" y2="11.6783" gradientUnits="userSpaceOnUse">
<stop stop-color="#A6A6A6"/>
<stop offset="1" stop-color="#343434"/>
</linearGradient>
<linearGradient id="paint36_linear_1745_2718" x1="88.1833" y1="156.823" x2="31.2217" y2="11.6783" gradientUnits="userSpaceOnUse">
<stop stop-color="#A6A6A6"/>
<stop offset="1" stop-color="#343434"/>
</linearGradient>
<linearGradient id="paint37_linear_1745_2718" x1="88.1833" y1="156.823" x2="31.2217" y2="11.6783" gradientUnits="userSpaceOnUse">
<stop stop-color="#A6A6A6"/>
<stop offset="1" stop-color="#343434"/>
</linearGradient>
<linearGradient id="paint38_linear_1745_2718" x1="88.1833" y1="156.823" x2="31.2217" y2="11.6783" gradientUnits="userSpaceOnUse">
<stop stop-color="#A6A6A6"/>
<stop offset="1" stop-color="#343434"/>
</linearGradient>
<linearGradient id="paint39_linear_1745_2718" x1="88.1833" y1="156.823" x2="31.2217" y2="11.6783" gradientUnits="userSpaceOnUse">
<stop stop-color="#A6A6A6"/>
<stop offset="1" stop-color="#343434"/>
</linearGradient>
<linearGradient id="paint40_linear_1745_2718" x1="88.1833" y1="156.823" x2="31.2217" y2="11.6783" gradientUnits="userSpaceOnUse">
<stop stop-color="#A6A6A6"/>
<stop offset="1" stop-color="#343434"/>
</linearGradient>
<linearGradient id="paint41_linear_1745_2718" x1="88.1833" y1="156.823" x2="31.2217" y2="11.6783" gradientUnits="userSpaceOnUse">
<stop stop-color="#A6A6A6"/>
<stop offset="1" stop-color="#343434"/>
</linearGradient>
<linearGradient id="paint42_linear_1745_2718" x1="88.1833" y1="156.823" x2="31.2217" y2="11.6783" gradientUnits="userSpaceOnUse">
<stop stop-color="#A6A6A6"/>
<stop offset="1" stop-color="#343434"/>
</linearGradient>
<linearGradient id="paint43_linear_1745_2718" x1="88.1833" y1="156.823" x2="31.2217" y2="11.6783" gradientUnits="userSpaceOnUse">
<stop stop-color="#A6A6A6"/>
<stop offset="1" stop-color="#343434"/>
</linearGradient>
<linearGradient id="paint44_linear_1745_2718" x1="88.1833" y1="156.823" x2="31.2217" y2="11.6783" gradientUnits="userSpaceOnUse">
<stop stop-color="#A6A6A6"/>
<stop offset="1" stop-color="#343434"/>
</linearGradient>
<linearGradient id="paint45_linear_1745_2718" x1="88.1833" y1="156.823" x2="31.2217" y2="11.6783" gradientUnits="userSpaceOnUse">
<stop stop-color="#A6A6A6"/>
<stop offset="1" stop-color="#343434"/>
</linearGradient>
<linearGradient id="paint46_linear_1745_2718" x1="88.1833" y1="156.823" x2="31.2217" y2="11.6783" gradientUnits="userSpaceOnUse">
<stop stop-color="#A6A6A6"/>
<stop offset="1" stop-color="#343434"/>
</linearGradient>
<linearGradient id="paint47_linear_1745_2718" x1="88.1833" y1="156.823" x2="31.2217" y2="11.6783" gradientUnits="userSpaceOnUse">
<stop stop-color="#A6A6A6"/>
<stop offset="1" stop-color="#343434"/>
</linearGradient>
<linearGradient id="paint48_linear_1745_2718" x1="88.1833" y1="156.823" x2="31.2217" y2="11.6783" gradientUnits="userSpaceOnUse">
<stop stop-color="#A6A6A6"/>
<stop offset="1" stop-color="#343434"/>
</linearGradient>
<linearGradient id="paint49_linear_1745_2718" x1="88.1833" y1="156.823" x2="31.2217" y2="11.6783" gradientUnits="userSpaceOnUse">
<stop stop-color="#A6A6A6"/>
<stop offset="1" stop-color="#343434"/>
</linearGradient>
<linearGradient id="paint50_linear_1745_2718" x1="88.1833" y1="156.823" x2="31.2217" y2="11.6783" gradientUnits="userSpaceOnUse">
<stop stop-color="#A6A6A6"/>
<stop offset="1" stop-color="#343434"/>
</linearGradient>
<linearGradient id="paint51_linear_1745_2718" x1="88.1833" y1="156.823" x2="31.2217" y2="11.6783" gradientUnits="userSpaceOnUse">
<stop stop-color="#A6A6A6"/>
<stop offset="1" stop-color="#343434"/>
</linearGradient>
<linearGradient id="paint52_linear_1745_2718" x1="88.1833" y1="156.823" x2="31.2217" y2="11.6783" gradientUnits="userSpaceOnUse">
<stop stop-color="#A6A6A6"/>
<stop offset="1" stop-color="#343434"/>
</linearGradient>
<linearGradient id="paint53_linear_1745_2718" x1="88.1833" y1="156.823" x2="31.2217" y2="11.6783" gradientUnits="userSpaceOnUse">
<stop stop-color="#A6A6A6"/>
<stop offset="1" stop-color="#343434"/>
</linearGradient>
<linearGradient id="paint54_linear_1745_2718" x1="88.1833" y1="156.823" x2="31.2217" y2="11.6783" gradientUnits="userSpaceOnUse">
<stop stop-color="#A6A6A6"/>
<stop offset="1" stop-color="#343434"/>
</linearGradient>
<linearGradient id="paint55_linear_1745_2718" x1="88.1833" y1="156.823" x2="31.2217" y2="11.6783" gradientUnits="userSpaceOnUse">
<stop stop-color="#A6A6A6"/>
<stop offset="1" stop-color="#343434"/>
</linearGradient>
<linearGradient id="paint56_linear_1745_2718" x1="88.1833" y1="156.823" x2="31.2217" y2="11.6783" gradientUnits="userSpaceOnUse">
<stop stop-color="#A6A6A6"/>
<stop offset="1" stop-color="#343434"/>
</linearGradient>
<linearGradient id="paint57_linear_1745_2718" x1="88.1833" y1="156.823" x2="31.2217" y2="11.6783" gradientUnits="userSpaceOnUse">
<stop stop-color="#A6A6A6"/>
<stop offset="1" stop-color="#343434"/>
</linearGradient>
<linearGradient id="paint58_linear_1745_2718" x1="88.1833" y1="156.823" x2="31.2217" y2="11.6783" gradientUnits="userSpaceOnUse">
<stop stop-color="#A6A6A6"/>
<stop offset="1" stop-color="#343434"/>
</linearGradient>
<linearGradient id="paint59_linear_1745_2718" x1="88.1833" y1="156.823" x2="31.2217" y2="11.6783" gradientUnits="userSpaceOnUse">
<stop stop-color="#A6A6A6"/>
<stop offset="1" stop-color="#343434"/>
</linearGradient>
<linearGradient id="paint60_linear_1745_2718" x1="88.1833" y1="156.823" x2="31.2217" y2="11.6783" gradientUnits="userSpaceOnUse">
<stop stop-color="#A6A6A6"/>
<stop offset="1" stop-color="#343434"/>
</linearGradient>
<linearGradient id="paint61_linear_1745_2718" x1="88.1833" y1="156.823" x2="31.2217" y2="11.6783" gradientUnits="userSpaceOnUse">
<stop stop-color="#A6A6A6"/>
<stop offset="1" stop-color="#343434"/>
</linearGradient>
<linearGradient id="paint62_linear_1745_2718" x1="88.1833" y1="156.823" x2="31.2217" y2="11.6783" gradientUnits="userSpaceOnUse">
<stop stop-color="#A6A6A6"/>
<stop offset="1" stop-color="#343434"/>
</linearGradient>
<linearGradient id="paint63_linear_1745_2718" x1="88.1833" y1="156.823" x2="31.2217" y2="11.6783" gradientUnits="userSpaceOnUse">
<stop stop-color="#A6A6A6"/>
<stop offset="1" stop-color="#343434"/>
</linearGradient>
<linearGradient id="paint64_linear_1745_2718" x1="88.1833" y1="156.823" x2="31.2217" y2="11.6783" gradientUnits="userSpaceOnUse">
<stop stop-color="#A6A6A6"/>
<stop offset="1" stop-color="#343434"/>
</linearGradient>
<linearGradient id="paint65_linear_1745_2718" x1="88.1833" y1="156.823" x2="31.2217" y2="11.6783" gradientUnits="userSpaceOnUse">
<stop stop-color="#A6A6A6"/>
<stop offset="1" stop-color="#343434"/>
</linearGradient>
<linearGradient id="paint66_linear_1745_2718" x1="88.1833" y1="156.823" x2="31.2217" y2="11.6783" gradientUnits="userSpaceOnUse">
<stop stop-color="#A6A6A6"/>
<stop offset="1" stop-color="#343434"/>
</linearGradient>
<linearGradient id="paint67_linear_1745_2718" x1="88.1833" y1="156.823" x2="31.2217" y2="11.6783" gradientUnits="userSpaceOnUse">
<stop stop-color="#A6A6A6"/>
<stop offset="1" stop-color="#343434"/>
</linearGradient>
<linearGradient id="paint68_linear_1745_2718" x1="88.1833" y1="156.823" x2="31.2217" y2="11.6783" gradientUnits="userSpaceOnUse">
<stop stop-color="#A6A6A6"/>
<stop offset="1" stop-color="#343434"/>
</linearGradient>
<linearGradient id="paint69_linear_1745_2718" x1="88.1833" y1="156.823" x2="31.2217" y2="11.6783" gradientUnits="userSpaceOnUse">
<stop stop-color="#A6A6A6"/>
<stop offset="1" stop-color="#343434"/>
</linearGradient>
<linearGradient id="paint70_linear_1745_2718" x1="88.1833" y1="156.823" x2="31.2217" y2="11.6783" gradientUnits="userSpaceOnUse">
<stop stop-color="#A6A6A6"/>
<stop offset="1" stop-color="#343434"/>
</linearGradient>
<linearGradient id="paint71_linear_1745_2718" x1="88.1833" y1="156.823" x2="31.2217" y2="11.6783" gradientUnits="userSpaceOnUse">
<stop stop-color="#A6A6A6"/>
<stop offset="1" stop-color="#343434"/>
</linearGradient>
<linearGradient id="paint72_linear_1745_2718" x1="88.1833" y1="156.823" x2="31.2217" y2="11.6783" gradientUnits="userSpaceOnUse">
<stop stop-color="#A6A6A6"/>
<stop offset="1" stop-color="#343434"/>
</linearGradient>
<linearGradient id="paint73_linear_1745_2718" x1="88.1833" y1="156.823" x2="31.2217" y2="11.6783" gradientUnits="userSpaceOnUse">
<stop stop-color="#A6A6A6"/>
<stop offset="1" stop-color="#343434"/>
</linearGradient>
<linearGradient id="paint74_linear_1745_2718" x1="88.1833" y1="156.823" x2="31.2217" y2="11.6783" gradientUnits="userSpaceOnUse">
<stop stop-color="#A6A6A6"/>
<stop offset="1" stop-color="#343434"/>
</linearGradient>
<linearGradient id="paint75_linear_1745_2718" x1="88.1833" y1="156.823" x2="31.2217" y2="11.6783" gradientUnits="userSpaceOnUse">
<stop stop-color="#A6A6A6"/>
<stop offset="1" stop-color="#343434"/>
</linearGradient>
<linearGradient id="paint76_linear_1745_2718" x1="88.1833" y1="156.823" x2="31.2217" y2="11.6783" gradientUnits="userSpaceOnUse">
<stop stop-color="#A6A6A6"/>
<stop offset="1" stop-color="#343434"/>
</linearGradient>
<linearGradient id="paint77_linear_1745_2718" x1="88.1833" y1="156.823" x2="31.2217" y2="11.6783" gradientUnits="userSpaceOnUse">
<stop stop-color="#A6A6A6"/>
<stop offset="1" stop-color="#343434"/>
</linearGradient>
<linearGradient id="paint78_linear_1745_2718" x1="88.1833" y1="156.823" x2="31.2217" y2="11.6783" gradientUnits="userSpaceOnUse">
<stop stop-color="#A6A6A6"/>
<stop offset="1" stop-color="#343434"/>
</linearGradient>
<linearGradient id="paint79_linear_1745_2718" x1="88.1833" y1="156.823" x2="31.2217" y2="11.6783" gradientUnits="userSpaceOnUse">
<stop stop-color="#A6A6A6"/>
<stop offset="1" stop-color="#343434"/>
</linearGradient>
<linearGradient id="paint80_linear_1745_2718" x1="88.1833" y1="156.823" x2="31.2217" y2="11.6783" gradientUnits="userSpaceOnUse">
<stop stop-color="#A6A6A6"/>
<stop offset="1" stop-color="#343434"/>
</linearGradient>
<linearGradient id="paint81_linear_1745_2718" x1="88.1833" y1="156.823" x2="31.2217" y2="11.6783" gradientUnits="userSpaceOnUse">
<stop stop-color="#A6A6A6"/>
<stop offset="1" stop-color="#343434"/>
</linearGradient>
<linearGradient id="paint82_linear_1745_2718" x1="88.1833" y1="156.823" x2="31.2217" y2="11.6783" gradientUnits="userSpaceOnUse">
<stop stop-color="#A6A6A6"/>
<stop offset="1" stop-color="#343434"/>
</linearGradient>
<linearGradient id="paint83_linear_1745_2718" x1="88.1833" y1="156.823" x2="31.2217" y2="11.6783" gradientUnits="userSpaceOnUse">
<stop stop-color="#A6A6A6"/>
<stop offset="1" stop-color="#343434"/>
</linearGradient>
<linearGradient id="paint84_linear_1745_2718" x1="88.1833" y1="156.823" x2="31.2217" y2="11.6783" gradientUnits="userSpaceOnUse">
<stop stop-color="#A6A6A6"/>
<stop offset="1" stop-color="#343434"/>
</linearGradient>
<linearGradient id="paint85_linear_1745_2718" x1="88.1833" y1="156.823" x2="31.2217" y2="11.6783" gradientUnits="userSpaceOnUse">
<stop stop-color="#A6A6A6"/>
<stop offset="1" stop-color="#343434"/>
</linearGradient>
<linearGradient id="paint86_linear_1745_2718" x1="88.1833" y1="156.823" x2="31.2217" y2="11.6783" gradientUnits="userSpaceOnUse">
<stop stop-color="#A6A6A6"/>
<stop offset="1" stop-color="#343434"/>
</linearGradient>
<linearGradient id="paint87_linear_1745_2718" x1="88.1833" y1="156.823" x2="31.2217" y2="11.6783" gradientUnits="userSpaceOnUse">
<stop stop-color="#A6A6A6"/>
<stop offset="1" stop-color="#343434"/>
</linearGradient>
</defs>
</svg>
