<svg width="362" height="224" viewBox="0 0 362 224" fill="none" xmlns="http://www.w3.org/2000/svg">
<g opacity="0.3">
<path d="M13.7075 8.46222L10.5442 0L7.38095 8.46222L0 14.9333L10.5442 12.9422L21.0884 14.9333L13.7075 8.46222Z" fill="#F3F3F3"/>
<path d="M62.4091 8.46222L59.2459 0L56.0826 8.46222L48.7017 14.9333L59.2459 12.9422L69.7901 14.9333L62.4091 8.46222Z" fill="#F3F3F3"/>
<path d="M107.948 0L111.111 8.46222L118.492 14.9333L107.948 12.9422L97.4033 14.9333L104.784 8.46222L107.948 0Z" fill="#F3F3F3"/>
<path d="M159.812 8.46222L156.649 0L153.486 8.46222L146.105 14.9333L156.649 12.9422L167.193 14.9333L159.812 8.46222Z" fill="#F3F3F3"/>
<path d="M205.351 0L208.514 8.46222L215.895 14.9333L205.351 12.9422L194.807 14.9333L202.188 8.46222L205.351 0Z" fill="#F3F3F3"/>
<path d="M257.216 8.46222L254.052 0L250.889 8.46222L243.508 14.9333L254.052 12.9422L264.597 14.9333L257.216 8.46222Z" fill="#F3F3F3"/>
<path d="M302.754 0L305.917 8.46222L313.298 14.9333L302.754 12.9422L292.21 14.9333L299.591 8.46222L302.754 0Z" fill="#F3F3F3"/>
<path d="M354.619 8.46222L351.456 0L348.293 8.46222L340.912 14.9333L351.456 12.9422L362 14.9333L354.619 8.46222Z" fill="#F3F3F3"/>
<path d="M10.5442 29.8667L13.7075 38.3289L21.0884 44.8L10.5442 42.8089L0 44.8L7.38095 38.3289L10.5442 29.8667Z" fill="#F3F3F3"/>
<path d="M62.4091 38.3289L59.2459 29.8667L56.0826 38.3289L48.7017 44.8L59.2459 42.8089L69.7901 44.8L62.4091 38.3289Z" fill="#F3F3F3"/>
<path d="M107.948 29.8667L111.111 38.3289L118.492 44.8L107.948 42.8089L97.4033 44.8L104.784 38.3289L107.948 29.8667Z" fill="#F3F3F3"/>
<path d="M159.812 38.3289L156.649 29.8667L153.486 38.3289L146.105 44.8L156.649 42.8089L167.193 44.8L159.812 38.3289Z" fill="#F3F3F3"/>
<path d="M205.351 29.8667L208.514 38.3289L215.895 44.8L205.351 42.8089L194.807 44.8L202.188 38.3289L205.351 29.8667Z" fill="#F3F3F3"/>
<path d="M257.216 38.3289L254.052 29.8667L250.889 38.3289L243.508 44.8L254.052 42.8089L264.597 44.8L257.216 38.3289Z" fill="#F3F3F3"/>
<path d="M302.754 29.8667L305.917 38.3289L313.298 44.8L302.754 42.8089L292.21 44.8L299.591 38.3289L302.754 29.8667Z" fill="#F3F3F3"/>
<path d="M354.619 38.3289L351.456 29.8667L348.293 38.3289L340.912 44.8L351.456 42.8089L362 44.8L354.619 38.3289Z" fill="#F3F3F3"/>
<path d="M10.5442 59.7333L13.7075 68.1956L21.0884 74.6667L10.5442 72.6756L0 74.6667L7.38095 68.1956L10.5442 59.7333Z" fill="#F3F3F3"/>
<path d="M62.4091 68.1956L59.2459 59.7333L56.0826 68.1956L48.7017 74.6667L59.2459 72.6756L69.7901 74.6667L62.4091 68.1956Z" fill="#F3F3F3"/>
<path d="M107.948 59.7333L111.111 68.1956L118.492 74.6667L107.948 72.6756L97.4033 74.6667L104.784 68.1956L107.948 59.7333Z" fill="#F3F3F3"/>
<path d="M159.812 68.1956L156.649 59.7333L153.486 68.1956L146.105 74.6667L156.649 72.6756L167.193 74.6667L159.812 68.1956Z" fill="#F3F3F3"/>
<path d="M205.351 59.7333L208.514 68.1956L215.895 74.6667L205.351 72.6756L194.807 74.6667L202.188 68.1956L205.351 59.7333Z" fill="#F3F3F3"/>
<path d="M257.216 68.1956L254.052 59.7333L250.889 68.1956L243.508 74.6667L254.052 72.6756L264.597 74.6667L257.216 68.1956Z" fill="#F3F3F3"/>
<path d="M302.754 59.7333L305.917 68.1956L313.298 74.6667L302.754 72.6756L292.21 74.6667L299.591 68.1956L302.754 59.7333Z" fill="#F3F3F3"/>
<path d="M354.619 68.1956L351.456 59.7333L348.293 68.1956L340.912 74.6667L351.456 72.6756L362 74.6667L354.619 68.1956Z" fill="#F3F3F3"/>
<path d="M10.5442 89.6L13.7075 98.0622L21.0884 104.533L10.5442 102.542L0 104.533L7.38095 98.0622L10.5442 89.6Z" fill="#F3F3F3"/>
<path d="M62.4091 98.0622L59.2459 89.6L56.0826 98.0622L48.7017 104.533L59.2459 102.542L69.7901 104.533L62.4091 98.0622Z" fill="#F3F3F3"/>
<path d="M107.948 89.6L111.111 98.0622L118.492 104.533L107.948 102.542L97.4033 104.533L104.784 98.0622L107.948 89.6Z" fill="#F3F3F3"/>
<path d="M159.812 98.0622L156.649 89.6L153.486 98.0622L146.105 104.533L156.649 102.542L167.193 104.533L159.812 98.0622Z" fill="#F3F3F3"/>
<path d="M205.351 89.6L208.514 98.0622L215.895 104.533L205.351 102.542L194.807 104.533L202.188 98.0622L205.351 89.6Z" fill="#F3F3F3"/>
<path d="M257.216 98.0622L254.052 89.6L250.889 98.0622L243.508 104.533L254.052 102.542L264.597 104.533L257.216 98.0622Z" fill="#F3F3F3"/>
<path d="M302.754 89.6L305.917 98.0622L313.298 104.533L302.754 102.542L292.21 104.533L299.591 98.0622L302.754 89.6Z" fill="#F3F3F3"/>
<path d="M354.619 98.0622L351.456 89.6L348.293 98.0622L340.912 104.533L351.456 102.542L362 104.533L354.619 98.0622Z" fill="#F3F3F3"/>
<path d="M10.5442 119.467L13.7075 127.929L21.0884 134.4L10.5442 132.409L0 134.4L7.38095 127.929L10.5442 119.467Z" fill="#F3F3F3"/>
<path d="M62.4091 127.929L59.2459 119.467L56.0826 127.929L48.7017 134.4L59.2459 132.409L69.7901 134.4L62.4091 127.929Z" fill="#F3F3F3"/>
<path d="M107.948 119.467L111.111 127.929L118.492 134.4L107.948 132.409L97.4033 134.4L104.784 127.929L107.948 119.467Z" fill="#F3F3F3"/>
<path d="M159.812 127.929L156.649 119.467L153.486 127.929L146.105 134.4L156.649 132.409L167.193 134.4L159.812 127.929Z" fill="#F3F3F3"/>
<path d="M205.351 119.467L208.514 127.929L215.895 134.4L205.351 132.409L194.807 134.4L202.188 127.929L205.351 119.467Z" fill="#F3F3F3"/>
<path d="M257.216 127.929L254.052 119.467L250.889 127.929L243.508 134.4L254.052 132.409L264.597 134.4L257.216 127.929Z" fill="#F3F3F3"/>
<path d="M302.754 119.467L305.917 127.929L313.298 134.4L302.754 132.409L292.21 134.4L299.591 127.929L302.754 119.467Z" fill="#F3F3F3"/>
<path d="M354.619 127.929L351.456 119.467L348.293 127.929L340.912 134.4L351.456 132.409L362 134.4L354.619 127.929Z" fill="#F3F3F3"/>
<path d="M10.5442 149.333L13.7075 157.796L21.0884 164.267L10.5442 162.276L0 164.267L7.38095 157.796L10.5442 149.333Z" fill="#F3F3F3"/>
<path d="M62.4091 157.796L59.2459 149.333L56.0826 157.796L48.7017 164.267L59.2459 162.276L69.7901 164.267L62.4091 157.796Z" fill="#F3F3F3"/>
<path d="M107.948 149.333L111.111 157.796L118.492 164.267L107.948 162.276L97.4033 164.267L104.784 157.796L107.948 149.333Z" fill="#F3F3F3"/>
<path d="M159.812 157.796L156.649 149.333L153.486 157.796L146.105 164.267L156.649 162.276L167.193 164.267L159.812 157.796Z" fill="#F3F3F3"/>
<path d="M205.351 149.333L208.514 157.796L215.895 164.267L205.351 162.276L194.807 164.267L202.188 157.796L205.351 149.333Z" fill="#F3F3F3"/>
<path d="M257.216 157.796L254.052 149.333L250.889 157.796L243.508 164.267L254.052 162.276L264.597 164.267L257.216 157.796Z" fill="#F3F3F3"/>
<path d="M302.754 149.333L305.917 157.796L313.298 164.267L302.754 162.276L292.21 164.267L299.591 157.796L302.754 149.333Z" fill="#F3F3F3"/>
<path d="M354.619 157.796L351.456 149.333L348.293 157.796L340.912 164.267L351.456 162.276L362 164.267L354.619 157.796Z" fill="#F3F3F3"/>
<path d="M10.5442 179.2L13.7075 187.662L21.0884 194.133L10.5442 192.142L0 194.133L7.38095 187.662L10.5442 179.2Z" fill="#F3F3F3"/>
<path d="M62.4091 187.662L59.2459 179.2L56.0826 187.662L48.7017 194.133L59.2459 192.142L69.7901 194.133L62.4091 187.662Z" fill="#F3F3F3"/>
<path d="M107.948 179.2L111.111 187.662L118.492 194.133L107.948 192.142L97.4033 194.133L104.784 187.662L107.948 179.2Z" fill="#F3F3F3"/>
<path d="M159.812 187.662L156.649 179.2L153.486 187.662L146.105 194.133L156.649 192.142L167.193 194.133L159.812 187.662Z" fill="#F3F3F3"/>
<path d="M205.351 179.2L208.514 187.662L215.895 194.133L205.351 192.142L194.807 194.133L202.188 187.662L205.351 179.2Z" fill="#F3F3F3"/>
<path d="M257.216 187.662L254.052 179.2L250.889 187.662L243.508 194.133L254.052 192.142L264.597 194.133L257.216 187.662Z" fill="#F3F3F3"/>
<path d="M302.754 179.2L305.917 187.662L313.298 194.133L302.754 192.142L292.21 194.133L299.591 187.662L302.754 179.2Z" fill="#F3F3F3"/>
<path d="M354.619 187.662L351.456 179.2L348.293 187.662L340.912 194.133L351.456 192.142L362 194.133L354.619 187.662Z" fill="#F3F3F3"/>
<path d="M10.5442 209.067L13.7075 217.529L21.0884 224L10.5442 222.009L0 224L7.38095 217.529L10.5442 209.067Z" fill="#F3F3F3"/>
<path d="M62.4091 217.529L59.2459 209.067L56.0826 217.529L48.7017 224L59.2459 222.009L69.7901 224L62.4091 217.529Z" fill="#F3F3F3"/>
<path d="M107.948 209.067L111.111 217.529L118.492 224L107.948 222.009L97.4033 224L104.784 217.529L107.948 209.067Z" fill="#F3F3F3"/>
<path d="M159.812 217.529L156.649 209.067L153.486 217.529L146.105 224L156.649 222.009L167.193 224L159.812 217.529Z" fill="#F3F3F3"/>
<path d="M205.351 209.067L208.514 217.529L215.895 224L205.351 222.009L194.807 224L202.188 217.529L205.351 209.067Z" fill="#F3F3F3"/>
<path d="M257.216 217.529L254.052 209.067L250.889 217.529L243.508 224L254.052 222.009L264.597 224L257.216 217.529Z" fill="#F3F3F3"/>
<path d="M302.754 209.067L305.917 217.529L313.298 224L302.754 222.009L292.21 224L299.591 217.529L302.754 209.067Z" fill="#F3F3F3"/>
<path d="M354.619 217.529L351.456 209.067L348.293 217.529L340.912 224L351.456 222.009L362 224L354.619 217.529Z" fill="#F3F3F3"/>
</g>
</svg>
