<svg width="32" height="15" viewBox="0 0 32 15" fill="none" xmlns="http://www.w3.org/2000/svg">
<path fill-rule="evenodd" clip-rule="evenodd" d="M8.28458 0.750778C8.41762 0.802231 8.53847 0.87764 8.64019 0.972687C8.74217 1.06749 8.82308 1.18011 8.87829 1.30411C8.9335 1.4281 8.96191 1.56102 8.96191 1.69527C8.96191 1.82951 8.9335 1.96243 8.87829 2.08643C8.82308 2.21042 8.74217 2.32304 8.64019 2.41785L3.93833 6.79822H30.8317C31.1221 6.79822 31.4006 6.90575 31.606 7.09714C31.8114 7.28854 31.9268 7.54813 31.9268 7.81882C31.9268 8.08949 31.8114 8.34908 31.606 8.54048C31.4006 8.73187 31.1221 8.8394 30.8317 8.8394H3.93828L8.64019 13.2198C8.84582 13.4115 8.96134 13.6714 8.96134 13.9424C8.96134 14.2134 8.84582 14.4733 8.64019 14.665C8.43456 14.8566 8.15567 14.9643 7.86487 14.9643C7.57407 14.9643 7.29518 14.8566 7.08955 14.665L0.519037 8.54141C0.417057 8.44661 0.336145 8.33398 0.280939 8.20999C0.225733 8.086 0.197315 7.95308 0.197315 7.81883C0.197315 7.68459 0.225733 7.55167 0.280939 7.42767C0.336145 7.30368 0.417057 7.19106 0.519037 7.09625L7.08955 0.972687C7.19127 0.87764 7.31212 0.802231 7.44516 0.750778C7.5782 0.699341 7.72083 0.672852 7.86487 0.672852C8.00891 0.672852 8.15154 0.699341 8.28458 0.750778Z" fill="#808080"/>
</svg>
