<svg width="52" height="24" viewBox="0 0 52 24" fill="none" xmlns="http://www.w3.org/2000/svg">
<path fill-rule="evenodd" clip-rule="evenodd" d="M38.741 0.296249C38.5241 0.380127 38.3271 0.503067 38.1612 0.65802C37.995 0.812576 37.8631 0.996185 37.7731 1.19833C37.683 1.40048 37.6367 1.61719 37.6367 1.83604C37.6367 2.0549 37.683 2.27161 37.7731 2.47375C37.8631 2.6759 37.995 2.85951 38.1612 3.01407L45.8267 10.1554H1.98161C1.50812 10.1554 1.05401 10.3307 0.719199 10.6428C0.384386 10.9548 0.196289 11.378 0.196289 11.8193C0.196289 12.2606 0.384386 12.6838 0.719199 12.9958C1.05401 13.3079 1.50812 13.4832 1.98161 13.4832H45.8268L38.1612 20.6246C37.826 20.937 37.6377 21.3608 37.6377 21.8026C37.6377 22.2445 37.826 22.6682 38.1612 22.9806C38.4965 23.2931 38.9511 23.4686 39.4252 23.4686C39.8993 23.4686 40.354 23.2931 40.6892 22.9806L51.4012 12.9974C51.5675 12.8428 51.6994 12.6592 51.7894 12.457C51.8794 12.2549 51.9257 12.0382 51.9257 11.8193C51.9257 11.6005 51.8794 11.3838 51.7894 11.1816C51.6994 10.9795 51.5675 10.7959 51.4012 10.6413L40.6892 0.65802C40.5234 0.503067 40.3264 0.380127 40.1095 0.296249C39.8926 0.212372 39.6601 0.169189 39.4252 0.169189C39.1904 0.169189 38.9579 0.212372 38.741 0.296249Z" fill="#343434"/>
</svg>
