<svg width="16" height="26" viewBox="0 0 16 26" fill="none" xmlns="http://www.w3.org/2000/svg">
<path d="M2.66269 3.00609C3.89914 2.68816 10.6585 1.24412 11.826 2.5137C13.9552 4.82903 11.1791 9.35821 9.40818 11.1873C7.61342 13.041 5.59525 15.4015 2.50014 14.5772C-0.0302889 13.9033 7.73143 13.9144 10.3631 13.9144C13.4037 13.9144 14 14.5421 14 17.3232C14 18.6418 13.8966 20.5327 13.106 21.6789C12.8289 22.0807 11.3351 23.6891 10.8914 23.7811C9.17225 24.1371 6.64357 23.9959 4.857 23.8C4.6581 23.7782 3.42642 22.4867 3.37381 22.266C3.1841 21.4703 3.02841 20.9175 3.02841 20.0503" stroke="#F3F3F3" stroke-width="3" stroke-linecap="round"/>
</svg>
