<svg width="24" height="32" viewBox="0 0 24 32" fill="none" xmlns="http://www.w3.org/2000/svg">
<g clip-path="url(#clip0_3539_5162)">
<path d="M20 16L16 20L10 16L6 20L0.34375 16.2188C0.572917 14.7812 0.901042 13.3333 1.32812 11.875C1.75521 10.4167 2.31771 8.96875 3.01562 7.53125C3.71354 6.09375 4.48438 4.82292 5.32812 3.71875C6.17188 2.61458 7.17708 1.71875 8.34375 1.03125C9.51042 0.34375 10.7292 0 12 0C13.1667 0 14.2812 0.28125 15.3438 0.84375C16.4062 1.40625 17.3438 2.16146 18.1562 3.10938C18.9688 4.05729 19.7135 5.13542 20.3906 6.34375C21.0677 7.55208 21.6406 8.83333 22.1094 10.1875C22.5781 11.5417 22.9583 12.8698 23.25 14.1719C23.5417 15.474 23.75 16.7292 23.875 17.9375L20 16ZM6 22L10 18L16 22L20 18L24 20C24 22.1667 23.4635 24.1719 22.3906 26.0156C21.3177 27.8594 19.8594 29.3177 18.0156 30.3906C16.1719 31.4635 14.1667 32 12 32C9.83333 32 7.82812 31.4635 5.98438 30.3906C4.14062 29.3177 2.68229 27.8594 1.60938 26.0156C0.536458 24.1719 0 22.1667 0 20C0 19.4792 0.03125 18.8333 0.09375 18.0625L6 22Z" fill="#6B4EFF"/>
</g>
<defs>
<clipPath id="clip0_3539_5162">
<rect width="24" height="32" fill="white"/>
</clipPath>
</defs>
</svg>
